<?xml version="1.0" encoding="UTF-8" standalone="no"?>
<!DOCTYPE svg  PUBLIC '-//W3C//DTD SVG 1.1//EN'  'http://www.w3.org/Graphics/SVG/1.1/DTD/svg11.dtd'>
<svg xmlns="http://www.w3.org/2000/svg">
<defs>
<font id="BrandonGrotesque-Light" horiz-adv-x="486">
<font-face underline-position="-50" font-weight="330" descent="-200" panose-1="2 11 3 3 2 2 3 6 2 2" units-per-em="1000" unicode-range="U+0020-2215" bbox="-143 -346 930 1027" x-height="400" underline-thickness="50" font-family="BrandonGrotesque" ascent="800" cap-height="700"/>
<missing-glyph horiz-adv-x="1000"/>
<glyph glyph-name=".notdef" horiz-adv-x="1000"/>
<glyph glyph-name=".null" horiz-adv-x="0"/>
<glyph glyph-name="nonmarkingreturn" horiz-adv-x="333"/>
<glyph glyph-name="space" horiz-adv-x="217" unicode=" "/>
<glyph glyph-name="exclam" horiz-adv-x="296" unicode="!" d="M107 30q0 17 12 28.5t29 11.5t28.5 -11.5t11.5 -28.5t-11.5 -28.5t-28.5 -11.5t-29 12t-12 28zM144 269q-5 0 -9 3.5t-4 8.5l-10 284v122q0 13 15 13h25q13 0 13 -13v-121l-9 -285q0 -4 -4 -8t-9 -4h-8z"/>
<glyph glyph-name="quotedbl" horiz-adv-x="299" unicode='&quot;' d="M65 496q-9 0 -9 11v180q0 13 13 13h21q14 0 12 -16l-16 -177q-2 -11 -10 -11h-11zM215 496q-9 0 -9 11v180q0 13 13 13h21q14 0 12 -16l-16 -177q-2 -11 -10 -11h-11z"/>
<glyph glyph-name="numbersign" horiz-adv-x="550" unicode="#" d="M178 237h163l30 182h-162zM109 15l33 191h-84q-12 0 -12 13v5q0 13 12 13h88l31 182h-90q-13 0 -13 13v6q0 13 13 13h95l40 238q1 11 13 11h6q13 0 11 -15l-39 -234h163l40 238q1 11 13 11h7q12 0 10 -15l-39 -234h83q12 0 12 -13v-6q0 -13 -11 -13h-88l-31 -182h89 q13 0 13 -13v-5q0 -13 -12 -13h-95l-33 -195q-2 -11 -13 -11h-6q-15 0 -12 15l33 191h-164l-32 -195q-2 -11 -13 -11h-6q-15 0 -12 15z"/>
<glyph glyph-name="dollar" horiz-adv-x="533" unicode="$" d="M287 33q64 4 109.5 42.5t45.5 90.5q0 56 -38.5 90.5t-116.5 63.5v-287zM257 383v283q-78 -3 -117 -43.5t-39 -88.5q0 -58 38.5 -91t117.5 -60zM61 72q-7 5 -7 11q0 5 4 10l11 14q8 10 25 -3q74 -65 163 -71v300q-103 34 -152.5 76.5t-49.5 123.5q0 63 51 117t151 59v37 q0 13 14 13h4q13 0 13 -13v-38q40 -2 79 -14.5t57 -23.5l19 -12q12 -10 5 -20l-10 -15q-8 -11 -21 -4q-60 40 -129 46q0 -49 -0.5 -147t-0.5 -147q104 -36 154 -81.5t50 -122.5q0 -71 -60.5 -121.5t-143.5 -55.5v-108q0 -12 -14 -12q-16 0 -16 12v108q-106 6 -196 82z"/>
<glyph glyph-name="percent" horiz-adv-x="688" unicode="%" d="M391 127q0 -42 29.5 -71t71.5 -29q41 0 70.5 29t29.5 71q0 41 -29.5 70.5t-70.5 29.5q-42 0 -71.5 -29.5t-29.5 -70.5zM354 127q0 58 40 98.5t98 40.5q57 0 97.5 -40.5t40.5 -98.5q0 -57 -40.5 -97.5t-97.5 -40.5q-58 0 -98 40.5t-40 97.5zM179 471q41 0 70.5 29.5 t29.5 71.5q0 41 -29.5 70.5t-70.5 29.5q-42 0 -71 -29.5t-29 -70.5q0 -42 29 -71.5t71 -29.5zM120 17l380 678q3 5 12 5h18q10 0 10 -11q0 -2 -2 -8l-381 -674q-3 -7 -12 -7h-18q-7 0 -9 5.5t2 11.5zM179 434q-57 0 -97.5 40t-40.5 98t40.5 98t97.5 40t97.5 -40t40.5 -98 t-40.5 -98t-97.5 -40z"/>
<glyph glyph-name="ampersand" horiz-adv-x="678" unicode="&amp;" d="M134 173q0 -61 41.5 -102t105.5 -41q119 0 202 99l-217 220q-132 -71 -132 -176zM276 398q150 76 150 160q0 46 -32 79.5t-89 33.5q-60 0 -93 -35t-33 -82q-1 -56 68 -127zM90 173q0 124 148 203l-15 16q-28 31 -43 50t-29.5 50.5t-13.5 62.5q0 59 44.5 107t126.5 48 q76 0 119 -44t43 -107q0 -104 -165 -190l204 -202q60 96 60 204q0 3 -0.5 10t-0.5 10q0 9 8 9h21q9 0 12 -9q2 -7 2 -20q0 -123 -72 -233l104 -103q8 -6 8 -14q0 -5 -4 -9l-16 -15q-9 -9 -20 2l-100 101q-94 -110 -231 -110q-87 0 -138.5 53t-51.5 130z"/>
<glyph glyph-name="quotesingle" horiz-adv-x="149" unicode="&apos;" d="M65 496q-9 0 -9 11v180q0 13 13 13h21q14 0 12 -16l-16 -177q-2 -11 -10 -11h-11z"/>
<glyph glyph-name="parenleft" horiz-adv-x="344" unicode="(" d="M307 -43q10 0 8 -12l-1 -15q0 -8 -9 -8h-3q-46 2 -86.5 23t-76 64.5t-56 122t-20.5 183.5t20.5 183.5t56 122t76 65t86.5 23.5q12 0 12 -9l1 -15q2 -12 -8 -12q-93 -13 -146.5 -100t-53.5 -258t53.5 -258t146.5 -100z"/>
<glyph glyph-name="parenright" horiz-adv-x="344" unicode=")" d="M38 -43q93 13 146 100t53 258t-53 258t-146 100q-11 0 -9 12l1 15q2 9 13 9q36 -2 69 -15t64.5 -42t54 -72.5t36.5 -111.5t14 -153q0 -106 -20.5 -184t-56 -121.5t-75.5 -64.5t-86 -23h-3q-8 0 -10 8l-1 15q-2 12 9 12z"/>
<glyph glyph-name="asterisk" horiz-adv-x="340" unicode="*" d="M166 410q-13 0 -13 13l1 103l-88 -55q-10 -7 -17 4l-5 8q-2 4 -2 6q0 7 6 11l91 55l-92 55q-5 3 -5 11q0 4 1 6l6 10q5 8 16 2l89 -55l-1 103q0 13 13 13h8q13 0 13 -13l-1 -103l88 56q9 5 17 -4l5 -8q2 -4 2 -7q0 -5 -6 -10l-92 -56l93 -56q5 -3 5 -11q0 -3 -1 -5l-5 -9 q-7 -11 -18 -4l-88 56l1 -103q0 -13 -13 -13h-8z"/>
<glyph glyph-name="plus" horiz-adv-x="505" unicode="+" d="M232 155v171h-172q-13 0 -13 13v15q0 13 13 13h172v173q0 12 13 12h16q13 0 13 -12v-173h171q13 0 13 -13v-15q0 -13 -13 -13h-171v-171q0 -13 -13 -13h-16q-13 0 -13 13z"/>
<glyph glyph-name="comma" horiz-adv-x="231" unicode="," d="M71 30q0 18 11.5 28.5t30.5 10.5q24 0 40 -23.5t16 -70.5q0 -52 -24.5 -89t-47.5 -50q-6 -3 -10 -3t-7 3l-8 10q-2 2 -2 6q0 6 6 10q51 41 56 95v8q0 17 -5 30q-8 -5 -16 -5q-19 0 -29.5 11.5t-10.5 28.5z"/>
<glyph glyph-name="hyphen" horiz-adv-x="478" unicode="-" d="M126 231q-12 0 -12 13v11q0 13 12 13h226q13 0 13 -13v-11q0 -13 -13 -13h-226z"/>
<glyph glyph-name="period" horiz-adv-x="223" unicode="." d="M71 30q0 17 12 28.5t29 11.5t28.5 -11.5t11.5 -28.5t-11.5 -28.5t-28.5 -11.5t-29 12t-12 28z"/>
<glyph glyph-name="slash" horiz-adv-x="327" unicode="/" d="M41 14l221 678q3 8 13 8h14q13 0 13 -10q0 -3 -1 -4l-221 -677q-3 -9 -13 -9h-15q-12 0 -12 10q0 2 1 4z"/>
<glyph glyph-name="zero" horiz-adv-x="644" unicode="0" d="M322 31q96 0 148 81t52 229q0 147 -52 228t-148 81t-148.5 -81t-52.5 -228q0 -148 52 -229t149 -81zM322 -10q-116 0 -180.5 93t-64.5 258t64.5 258t180.5 93t180.5 -93t64.5 -258t-64.5 -258t-180.5 -93z"/>
<glyph glyph-name="one" horiz-adv-x="322" unicode="1" d="M166 13v601l-119 -98q-9 -7 -15 1l-12 14q-2 2 -2 7t4 8l160 135h15q15 0 15 -12v-656q0 -13 -13 -13h-20q-13 0 -13 13z"/>
<glyph glyph-name="two" horiz-adv-x="524" unicode="2" d="M40 12v18l265 266q111 111 111 198q0 63 -43.5 108.5t-124.5 45.5q-19 0 -36.5 -3.5t-31.5 -10.5t-25.5 -13.5t-22 -16t-16 -15t-12.5 -13.5l-8 -9q-9 -11 -20 -3l-12 10q-9 9 -2 18q3 4 7.5 10.5t22 24t37.5 30.5t52 23.5t67 10.5q101 0 158 -56.5t57 -139.5 q0 -61 -32 -113t-94 -114l-228 -227h336q13 0 13 -13v-15q0 -13 -13 -13h-392q-13 0 -13 12z"/>
<glyph glyph-name="three" horiz-adv-x="546" unicode="3" d="M52 79q-4 6 -4 9q0 4 4 8l16 13q8 7 18 -3l12 -12q13 -13 18.5 -18t22 -16t31 -16t37.5 -9.5t49 -4.5q78 0 127.5 41t49.5 109q0 69 -54 107.5t-126 38.5h-93q-13 0 -13 13v18q0 12 14 12h92q40 0 75 13t61 45.5t26 80.5q0 62 -43.5 101.5t-108.5 39.5q-94 0 -157 -74 q-8 -10 -17 -2l-15 12q-11 7 -1 17q3 4 8.5 10t24 21t39 27t52.5 21.5t66 9.5q87 0 143 -49.5t56 -128.5q0 -55 -34 -99.5t-79 -61.5v-2q52 -16 91.5 -63t39.5 -104q0 -84 -62 -138.5t-164 -54.5q-124 0 -202 89z"/>
<glyph glyph-name="four" horiz-adv-x="583" unicode="4" d="M71 196h340v416zM32 156q-17 0 -17 15v17l409 504h18q11 0 11 -11q0 -81 0.5 -243t0.5 -243h76q13 0 13 -12v-13q0 -13 -13 -13h-76v-144q0 -13 -13 -13h-11q-21 0 -21 13v143h-377z"/>
<glyph glyph-name="five" horiz-adv-x="545" unicode="5" d="M71 74q-7 9 -7 12q0 4 6 10q3 2 7 6.5t7 6.5q10 8 17 -2q62 -76 165 -76q82 0 135 56t53 133t-48 121.5t-140 44.5h-166q-9 0 -14 6.5t-5 14.5v261q0 13 13 13h314q13 0 13 -13v-16q0 -13 -13 -13h-285v-211h143q114 0 174 -54t60 -154q0 -96 -67 -163t-168 -67 q-124 0 -194 84z"/>
<glyph glyph-name="six" horiz-adv-x="554" unicode="6" d="M101 268q0 -99 50 -168.5t141 -69.5q73 0 126 55.5t53 132.5q0 78 -52 129t-125 51q-34 0 -66 -10.5t-52 -23t-39.5 -30.5t-24 -23.5t-9.5 -12.5q-2 -20 -2 -30zM58 275q0 77 26 145.5t63 113.5t85.5 82.5t84 56t68.5 31.5q1 0 2 0.5t2 0.5q8 0 11 -8l7 -15 q5 -13 -11 -19q-21 -7 -49 -21.5t-67 -42t-72 -60.5t-60.5 -81t-36.5 -100q19 25 69.5 53t117.5 28q89 0 153 -61t64 -158q0 -95 -66 -162.5t-157 -67.5q-113 0 -173.5 80t-60.5 205z"/>
<glyph glyph-name="seven" horiz-adv-x="473" unicode="7" d="M117 16l285 623h-369q-13 0 -13 14v15q0 13 13 13h414q14 0 14 -12v-5l-294 -648q-7 -16 -19 -16h-24q-7 0 -8.5 6t1.5 10z"/>
<glyph glyph-name="eight" horiz-adv-x="574" unicode="8" d="M109 175q0 -70 50 -108.5t126 -38.5q79 0 129.5 38t50.5 109q0 58 -48.5 99.5t-129.5 48.5q-82 -7 -130 -48t-48 -100zM287 372q74 5 117.5 41t43.5 94q0 61 -44 102.5t-120 41.5q-74 0 -116 -41.5t-42 -102.5q0 -58 43 -94t118 -41zM63 179q0 62 43.5 108t106.5 61v2 q-56 16 -94 58.5t-38 99.5q0 78 54 129.5t150 51.5q97 0 152.5 -52t55.5 -129q0 -57 -38 -99.5t-94 -58.5v-2q64 -15 107 -60t43 -109q0 -88 -62 -138.5t-164 -50.5q-100 0 -161 50.5t-61 138.5z"/>
<glyph glyph-name="nine" horiz-adv-x="553" unicode="9" d="M259 288q34 0 66.5 10.5t52 22.5t39 30.5t23.5 24t10 12.5q2 20 2 30q0 99 -49.5 168.5t-140.5 69.5q-74 0 -126.5 -55.5t-52.5 -132.5q0 -78 51.5 -129t124.5 -51zM147 4q-5 14 11 19q28 10 65.5 31.5t85 58.5t85 94t48.5 121q-19 -25 -69.5 -53t-116.5 -28 q-89 0 -153 61t-64 158q0 95 66 162.5t157 67.5q112 0 173 -80t61 -205q0 -77 -26 -145.5t-63 -113.5t-86 -82.5t-84 -56t-69 -31.5h-2l-2 -1q-8 0 -11 8z"/>
<glyph glyph-name="colon" horiz-adv-x="263" unicode=":" d="M91 30q0 17 12 28.5t29 11.5t28.5 -11.5t11.5 -28.5t-11.5 -28.5t-28.5 -11.5t-29 12t-12 28zM132 329q-16 0 -28.5 12t-12.5 28q0 17 12 29t29 12t28.5 -12t11.5 -29q0 -16 -11.5 -28t-28.5 -12z"/>
<glyph glyph-name="semicolon" horiz-adv-x="267" unicode=";" d="M91 30q0 18 11.5 28.5t30.5 10.5q24 0 40 -23.5t16 -70.5q0 -52 -24.5 -89t-47.5 -50q-6 -3 -10 -3t-7 3l-8 10q-2 2 -2 6q0 6 6 10q51 41 56 95v8q0 17 -5 30q-8 -5 -16 -5q-19 0 -29.5 11.5t-10.5 28.5zM131 329q-16 0 -28 12t-12 28q0 17 11.5 29t28.5 12t28.5 -12 t11.5 -29q0 -16 -11.5 -28t-28.5 -12z"/>
<glyph glyph-name="less" horiz-adv-x="433" unicode="&lt;" d="M36 215q-10 6 -10 16v1q0 8 10 14l353 224q4 2 6 2q8 0 8 -12v-23q0 -10 -8 -15l-304 -191l304 -185q8 -5 8 -15v-23q0 -12 -8 -12q-2 0 -6 2z"/>
<glyph glyph-name="equal" horiz-adv-x="561" unicode="=" d="M123 158q-13 0 -13 13v17q0 13 13 13h315q13 0 13 -13v-17q0 -13 -13 -13h-315zM123 366q-13 0 -13 13v17q0 13 13 13h315q13 0 13 -13v-17q0 -13 -13 -13h-315z"/>
<glyph glyph-name="greater" horiz-adv-x="433" unicode="&gt;" d="M30 8v23q0 10 8 15l304 185l-304 191q-8 5 -8 15v23q0 12 8 12q2 0 6 -2l353 -224q10 -6 10 -14v-1q0 -10 -10 -16l-353 -217q-4 -2 -6 -2q-8 0 -8 12z"/>
<glyph glyph-name="question" horiz-adv-x="469" unicode="?" d="M172 30q0 17 11.5 28.5t28.5 11.5t29 -11.5t12 -28.5t-12 -28.5t-29 -11.5q-16 0 -28 12t-12 28zM203 273q-12 0 -12 14v58q0 32 26 61t57.5 48t57.5 48.5t26 63.5q0 42 -33.5 73t-89.5 31q-19 0 -36.5 -3t-31 -9t-24.5 -12t-20 -14t-14.5 -13.5t-11 -11.5t-6.5 -7 q-7 -7 -17 -1l-10 7q-7 6 -7 10q0 3 4 9q2 3 6.5 9t20.5 20.5t35 26t50 20.5t65 9q75 0 120 -39.5t45 -101.5q0 -37 -17.5 -67t-42 -49.5t-49 -36t-42 -35t-17.5 -37.5v-57q0 -14 -13 -14h-19z"/>
<glyph glyph-name="at" horiz-adv-x="990" unicode="@" d="M328 202q0 -76 40.5 -123t104.5 -47q31 0 56.5 11t40 28t22 30t10.5 23v189q-3 6 -14 17t-40.5 25.5t-64.5 14.5q-65 0 -110 -46.5t-45 -121.5zM48 224q0 215 125.5 350.5t334.5 135.5q196 0 309 -118t113 -303q0 -54 -10 -103t-31.5 -95t-64 -73.5t-99.5 -27.5 q-92 0 -112 79q-18 -29 -54.5 -54t-88.5 -25q-81 0 -133 59.5t-52 152.5q0 92 57 150t139 58q36 0 66.5 -11t43.5 -22l13 -11l3 22q1 12 14 12h10q13 0 13 -13v-251q0 -109 83 -109q80 0 121.5 74.5t41.5 187.5q0 170 -101 277t-282 107q-191 0 -305 -123t-114 -326 q0 -144 76 -250.5t203 -161.5q11 -5 6 -16l-7 -16q-3 -7 -8 -7q-4 0 -6 1q-138 59 -221 176t-83 274z"/>
<glyph glyph-name="A" horiz-adv-x="653" unicode="A" d="M153 232h347l-171 403h-2zM13 0q-8 0 -8 7q0 3 1 5l308 696q4 7 12 7h3q9 0 13 -7l305 -696q1 -2 1 -5q0 -7 -10 -7h-26q-10 0 -14 9l-81 184h-382l-80 -184q-5 -9 -14 -9h-28z"/>
<glyph glyph-name="B" horiz-adv-x="623" unicode="B" d="M152 42h193q73 0 119 42t46 107t-49 103.5t-122 38.5h-187v-291zM153 376h186q69 0 109 39t40 102q0 65 -42 102t-114 37h-179v-280zM106 13v674q0 13 13 13h213q93 0 150 -49.5t57 -131.5q0 -57 -30.5 -99.5t-79.5 -62.5q58 -16 95 -57.5t37 -109.5q0 -84 -61.5 -137 t-158.5 -53h-222q-13 0 -13 13z"/>
<glyph glyph-name="C" horiz-adv-x="718" unicode="C" d="M56 349q0 150 106 255.5t256 105.5q141 0 243 -93q4 -4 4 -10q0 -5 -3 -8l-16 -17q-8 -8 -17 1q-92 82 -211 82q-131 0 -221.5 -93t-90.5 -223t90.5 -222t221.5 -92q110 0 211 84q9 7 16 2l17 -17q4 -4 4 -8q0 -5 -4 -9q-100 -97 -244 -97q-150 0 -256 104.5t-106 254.5z "/>
<glyph glyph-name="D" horiz-adv-x="738" unicode="D" d="M153 43h169q131 0 220.5 88.5t89.5 219.5q0 130 -89.5 218t-220.5 88h-169v-614zM106 13v674q0 5 3.5 9t8.5 4h212q145 0 248.5 -102.5t103.5 -246.5q0 -146 -103 -248.5t-249 -102.5h-212q-5 0 -8.5 4t-3.5 9z"/>
<glyph glyph-name="E" horiz-adv-x="598" unicode="E" d="M106 13v674q0 13 13 13h401q13 0 13 -13v-17q0 -13 -13 -13h-366v-276h317q13 0 13 -13v-17q0 -13 -13 -13h-317v-296h366q13 0 13 -13v-16q0 -13 -13 -13h-401q-13 0 -13 13z"/>
<glyph glyph-name="F" horiz-adv-x="573" unicode="F" d="M106 13v674q0 13 13 13h401q13 0 13 -13v-17q0 -13 -13 -13h-366v-304h317q13 0 13 -13v-8q0 -21 -13 -21h-317l-1 -298q0 -13 -16 -13h-18q-13 0 -13 13z"/>
<glyph glyph-name="G" horiz-adv-x="743" unicode="G" d="M56 349q0 150 105.5 255.5t256.5 105.5q140 0 242 -93q10 -9 1 -18q-5 -6 -16 -17q-8 -9 -17 0q-90 84 -211 84q-130 0 -220.5 -92.5t-90.5 -222.5t90.5 -222.5t220.5 -92.5q55 0 105.5 13t72 24t30.5 18v188h-171q-13 0 -13 13v20q0 12 13 12h205q5 0 9 -3.5t4 -8.5 v-232q0 -16 -14 -26q-16 -10 -41 -22.5t-82.5 -27t-116.5 -14.5q-151 0 -256.5 104.5t-105.5 254.5z"/>
<glyph glyph-name="H" horiz-adv-x="755" unicode="H" d="M106 13v674q0 13 13 13h21q13 0 13 -13v-307h449v307q0 13 13 13h21q13 0 13 -13v-674q0 -13 -13 -13h-21q-13 0 -13 13v325h-449v-325q0 -13 -13 -13h-21q-13 0 -13 13z"/>
<glyph glyph-name="I" horiz-adv-x="260" unicode="I" d="M106 13v674q0 13 13 13h22q13 0 13 -13v-674q0 -13 -14 -13h-21q-13 0 -13 13z"/>
<glyph glyph-name="J" horiz-adv-x="391" unicode="J" d="M-25 65q-3 5 -3 8q0 5 4 9l13 12q9 8 17 0q20 -20 28.5 -28t36.5 -21t58 -13q66 0 106 45.5t40 132.5v477q0 13 14 13h20q13 0 13 -13v-476q0 -104 -52 -162.5t-142 -58.5q-92 0 -153 75z"/>
<glyph glyph-name="K" horiz-adv-x="590" unicode="K" d="M106 13v672q0 15 15 15h18q15 0 15 -15v-309l340 317q8 7 20 7h28q8 0 9.5 -6t-3.5 -11l-348 -323l359 -343q3 -3 3 -7q0 -10 -12 -10h-32q-12 0 -22 10l-342 332v-329q0 -13 -15 -13h-20q-13 0 -13 13z"/>
<glyph glyph-name="L" horiz-adv-x="489" unicode="L" d="M106 13v674q0 13 13 13h22q5 0 8.5 -4t3.5 -9v-645h319q13 0 13 -13v-18q0 -11 -13 -11h-353q-13 0 -13 13z"/>
<glyph glyph-name="M" horiz-adv-x="859" unicode="M" d="M50 13l142 690q2 7 9 7h11q7 0 10 -7l206 -614h2l207 614q3 7 10 7h11q7 0 9 -7l142 -690q0 -1 1 -3v-1q0 -9 -12 -9h-24q-10 0 -12 11l-113 586h-2l-202 -599q-3 -8 -14 -8h-4q-11 0 -13 8l-202 599h-2l-113 -586q-2 -11 -12 -11h-24q-12 0 -12 9l1 1v3z"/>
<glyph glyph-name="N" horiz-adv-x="771" unicode="N" d="M106 13v684q0 13 15 13h17l480 -625h1v602q0 13 13 13h20q13 0 13 -13v-684q0 -13 -16 -13h-13q-7 0 -484 631h-1v-608q0 -13 -13 -13h-19q-13 0 -13 13z"/>
<glyph glyph-name="O" horiz-adv-x="833" unicode="O" d="M100 349q0 -131 92.5 -223t223.5 -92t224 92t93 223t-93 224t-224 93t-223.5 -93t-92.5 -224zM56 349q0 150 105 255.5t255 105.5q151 0 256 -105.5t105 -255.5q0 -151 -105 -255t-256 -104q-150 0 -255 104.5t-105 254.5z"/>
<glyph glyph-name="P" horiz-adv-x="594" unicode="P" d="M153 295h179q74 0 127.5 53.5t53.5 128.5q0 73 -53.5 124.5t-128.5 51.5h-178v-358zM106 13v674q0 13 13 13h215q93 0 159.5 -66t66.5 -158q0 -94 -66.5 -160.5t-158.5 -66.5h-182v-236q0 -13 -16 -13h-18q-13 0 -13 13z"/>
<glyph glyph-name="Q" horiz-adv-x="834" unicode="Q" d="M100 349q0 -131 92.5 -223t223.5 -92t224 92t93 223t-93 224t-224 93t-223.5 -93t-92.5 -224zM56 349q0 150 105 255.5t255 105.5q151 0 256 -105.5t105 -255.5q0 -113 -62 -203t-163 -130l119 -194q3 -4 1 -9.5t-8 -5.5h-33q-7 0 -13 10l-111 184q-44 -11 -91 -11 q-150 0 -255 104.5t-105 254.5z"/>
<glyph glyph-name="R" horiz-adv-x="650" unicode="R" d="M154 312h211q73 0 125 50.5t52 123.5q0 71 -52.5 119.5t-125.5 48.5h-210v-342zM106 13v674q0 13 13 13h248q92 0 157.5 -61.5t65.5 -152.5q0 -74 -46 -131t-119 -78l146 -259q4 -6 2 -12t-9 -6h-31q-9 0 -14 9l-145 262q-13 -1 -37 -1h-184v-257q0 -13 -16 -13h-18 q-13 0 -13 13z"/>
<glyph glyph-name="S" horiz-adv-x="543" unicode="S" d="M67 72q-7 5 -7 11q0 5 4 10l9 12q12 13 22 4q86 -77 185 -77q68 0 118 39.5t50 94.5q0 62 -47 99t-147 71q-100 35 -146.5 76t-46.5 121q0 30 12.5 59.5t36.5 56.5t67.5 44t99.5 17q44 0 87 -13t64 -25l21 -13q12 -9 4 -21q-4 -6 -8 -13q-9 -13 -22 -5q-71 47 -147 47 q-84 0 -126.5 -41t-42.5 -92q0 -59 41 -93t125 -62q115 -40 169.5 -85t54.5 -126q0 -74 -65 -126t-153 -52q-41 0 -80 10.5t-67 27t-42 26t-23 18.5z"/>
<glyph glyph-name="T" horiz-adv-x="472" unicode="T" d="M212 13v644h-191q-13 0 -13 15v15q0 13 13 13h430q13 0 13 -13v-17q0 -13 -13 -13h-192v-644q0 -13 -16 -13h-18q-13 0 -13 13z"/>
<glyph glyph-name="U" horiz-adv-x="720" unicode="U" d="M98 255v432q0 13 13 13h21q13 0 13 -13v-427q0 -99 58 -161.5t156 -62.5q99 0 157.5 62.5t58.5 160.5v428q0 13 14 13h20q13 0 13 -13v-432q0 -116 -72.5 -190.5t-190.5 -74.5q-117 0 -189 74.5t-72 190.5z"/>
<glyph glyph-name="V" horiz-adv-x="651" unicode="V" d="M308 -1l-302 688q-2 4 -2 6q0 7 10 7h27q9 0 11 -7l270 -621h2l273 621q2 7 11 7h26q11 0 11 -8q0 -2 -2 -6l-307 -687q-4 -9 -12 -9h-5q-8 0 -11 9z"/>
<glyph glyph-name="W" horiz-adv-x="896" unicode="W" d="M237 -3l-198 690q0 1 -1 3v1q0 9 12 9h24q10 0 12 -11l168 -586h2l176 598q3 9 15 9h2q12 0 15 -9l177 -598h2l167 586q2 11 12 11h24q12 0 12 -9v-1q-1 -2 -1 -3l-198 -690q-2 -7 -9 -7h-11q-7 0 -10 7l-180 609h-2l-180 -609q-3 -7 -10 -7h-11q-7 0 -9 7z"/>
<glyph glyph-name="X" horiz-adv-x="565" unicode="X" d="M35 15l217 343l-205 327q-9 15 8 15h32q9 0 13 -6l181 -294h1l183 294q5 6 13 6h32q17 0 8 -15l-206 -327l219 -343q2 -3 2 -7q0 -8 -10 -8h-32q-8 0 -13 6l-196 309h-1l-193 -309q-4 -6 -13 -6h-32q-10 0 -10 8q0 4 2 7z"/>
<glyph glyph-name="Y" horiz-adv-x="560" unicode="Y" d="M253 13v327l-255 345q-3 5 -3 7q0 8 11 8h30q8 0 13 -6l228 -311l232 311q5 6 13 6h30q11 0 11 -8q0 -2 -3 -7l-260 -344v-328q0 -13 -13 -13h-12q-22 0 -22 13z"/>
<glyph glyph-name="Z" horiz-adv-x="533" unicode="Z" d="M30 12v18l406 624v2h-362q-13 0 -13 15v16q0 13 13 13h412q13 0 13 -13v-16l-407 -626v-1h373q13 0 13 -13v-18q0 -13 -13 -13h-421q-14 0 -14 12z"/>
<glyph glyph-name="bracketleft" horiz-adv-x="330" unicode="[" d="M126 -260h165q13 0 13 -13v-15q0 -13 -13 -13h-195q-13 0 -13 13v975q0 13 13 13h195q13 0 13 -13v-15q0 -13 -13 -13h-165v-919z"/>
<glyph glyph-name="backslash" horiz-adv-x="327" unicode="\" d="M247 9l-221 677q-1 1 -1 4q0 10 13 10h14q10 0 13 -8l221 -678q1 -2 1 -4q0 -10 -12 -10h-15q-10 0 -13 9z"/>
<glyph glyph-name="bracketright" horiz-adv-x="329" unicode="]" d="M39 -260h164v919h-164q-13 0 -13 13v15q0 13 13 13h194q13 0 13 -13v-975q0 -13 -13 -13h-194q-13 0 -13 13v15q0 13 13 13z"/>
<glyph glyph-name="asciicircum" horiz-adv-x="524" unicode="^" d="M46 400q-9 0 -9 7q0 5 3 9l211 291q5 7 11 7h3q6 0 11 -7l210 -291q3 -4 3 -9q0 -7 -9 -7h-23q-10 0 -16 8l-178 247l-178 -247q-6 -8 -16 -8h-23z"/>
<glyph glyph-name="underscore" horiz-adv-x="393" unicode="_" d="M26 -23q0 13 13 13h315q13 0 13 -13v-10q0 -12 -13 -12h-315q-13 0 -13 12v10z"/>
<glyph glyph-name="grave" horiz-adv-x="302" unicode="`" d="M248 559l-172 79q-6 3 -6 9q0 2 2 6l10 20q2 5 9 5q4 0 8 -2l164 -90q7 -4 7 -10q0 -3 -1 -4l-5 -10q-2 -5 -7 -5t-9 2z"/>
<glyph glyph-name="a" horiz-adv-x="427" unicode="a" d="M85 124q0 -43 26.5 -69t68.5 -26t79 20t54 42v110q-45 21 -101 21q-57 0 -92 -27t-35 -71zM44 123q0 59 45.5 97t122.5 38q52 0 101 -18q0 73 -16.5 102.5t-71.5 29.5q-19 0 -37 -2.5t-31.5 -6.5t-24 -7.5t-18.5 -7t-9 -3.5q-11 -4 -15 8l-5 12q-4 11 6 15q5 3 18 9 t47.5 13.5t71.5 7.5q36 0 60 -9t37.5 -22.5t20 -39t8 -46.5t1.5 -58v-222q0 -13 -13 -13h-12q-9 0 -12 11l-4 36q-62 -57 -139 -57q-57 0 -94 36.5t-37 96.5z"/>
<glyph glyph-name="b" d="M120 101q4 -7 15.5 -21t44.5 -32t71 -18q62 0 103.5 49.5t41.5 120.5q0 72 -44.5 119.5t-113.5 47.5q-32 0 -61.5 -10.5t-42.5 -20.5l-14 -11v-224zM76 13v674q0 13 13 13h17q13 0 13 -13v-317q5 4 15.5 11t42.5 18t66 11q84 0 140 -60t56 -149q0 -88 -53.5 -149.5 t-130.5 -61.5q-50 0 -86.5 20t-52.5 39l-3 -36q-1 -13 -14 -13h-10q-13 0 -13 13z" unicode="b"/>
<glyph glyph-name="c" horiz-adv-x="459" unicode="c" d="M46 200q0 89 62 149.5t148 60.5q52 0 91 -20t57 -43q8 -10 -2 -18l-10 -10q-10 -9 -21 2q-13 15 -43.5 30.5t-71.5 15.5q-69 0 -117 -47.5t-48 -118.5q0 -72 48 -120.5t116 -48.5q71 0 125 59q10 11 19 2l11 -10q5 -5 5 -10q0 -2 -2 -6q-16 -25 -59 -51t-98 -26 q-86 0 -148 60.5t-62 149.5z"/>
<glyph glyph-name="d" d="M91 200q0 -71 41 -120.5t103 -49.5q39 0 72 18t44.5 32t15.5 21v224q-5 5 -14.5 12t-41 18.5t-63.5 11.5q-69 0 -113 -47.5t-44 -119.5zM47 200q0 89 56 149.5t141 60.5q34 0 64.5 -10t44.5 -20l14 -10v317q0 13 13 13h18q5 0 8.5 -4t3.5 -9v-674q0 -13 -13 -13h-10 q-13 0 -14 13l-3 35q-54 -58 -138 -58q-78 0 -131.5 61t-53.5 149z" unicode="d"/>
<glyph glyph-name="e" horiz-adv-x="467" unicode="e" d="M92 224h289q0 62 -36 104t-101 42t-106.5 -41.5t-45.5 -104.5zM47 201q0 88 54 148.5t143 60.5q79 0 130 -51.5t51 -131.5q0 -39 -15 -39h-319q3 -66 46.5 -112t109.5 -46q63 0 118 37q12 8 18 0l10 -14q5 -7 -4 -16q-17 -17 -59.5 -32t-85.5 -15q-89 0 -143 60.5 t-54 150.5z"/>
<glyph glyph-name="f" horiz-adv-x="313" unicode="f" d="M101 13v348h-60q-13 0 -13 13v13q0 13 13 13h60v137q0 85 41.5 129t109.5 44q36 0 67.5 -13.5t44.5 -29.5q4 -4 4 -10q0 -2 -2 -6l-10 -14q-7 -11 -17 -1q-36 34 -87 34q-49 0 -78 -33t-29 -100v-137h148q13 0 13 -12v-15q0 -12 -13 -12h-148v-348q0 -13 -13 -13h-18 q-13 0 -13 13z"/>
<glyph glyph-name="g" horiz-adv-x="462" unicode="g" d="M94 -157q0 -44 40.5 -78t109.5 -34q67 0 113 35t46 86q0 38 -25 63t-77 25h-126q-8 -1 -25.5 -10t-36.5 -32.5t-19 -54.5zM238 114q55 0 89 36.5t34 91.5q0 60 -35.5 94t-87.5 34q-57 0 -92 -36.5t-35 -91.5t33.5 -91.5t93.5 -36.5zM35 34q0 30 15.5 56t27.5 35.5 t23 15.5q-31 39 -31 100q0 73 48 121t127 48h164q13 0 13 -13v-11q0 -10 -9 -12l-72 -5q13 -7 25 -19t24.5 -41.5t12.5 -67.5q0 -69 -46 -117.5t-120 -48.5q-76 0 -109 36q-7 -3 -17 -9.5t-22 -24t-12 -38.5q0 -58 79 -58h145q68 0 108 -32t40 -96q0 -66 -57.5 -114.5 t-146.5 -48.5q-94 0 -144.5 45t-50.5 103q0 66 63 105q-24 5 -51 28.5t-27 62.5z"/>
<glyph glyph-name="h" horiz-adv-x="495" unicode="h" d="M76 13v674q0 13 14 13h16q13 0 13 -13v-341q64 64 145 64q78 0 119.5 -47t41.5 -136v-214q0 -13 -13 -13h-18q-13 0 -13 13v214q0 69 -31 104.5t-88 35.5q-37 0 -73 -18t-49.5 -30.5t-20.5 -21.5v-284q0 -13 -13 -13h-19q-11 0 -11 13z"/>
<glyph glyph-name="i" horiz-adv-x="196" unicode="i" d="M76 13v374q0 13 13 13h18q13 0 13 -13v-374q0 -13 -13 -13h-20q-11 0 -11 13zM98 596q-14 0 -24 9.5t-10 23.5t10 24.5t24 10.5t24 -10.5t10 -24.5t-10 -23.5t-24 -9.5z"/>
<glyph glyph-name="j" horiz-adv-x="195" unicode="j" d="M76 -137v524q0 13 13 13h17q13 0 13 -13v-524q0 -86 -39 -129.5t-107 -43.5q-35 0 -65.5 13.5t-46.5 29.5q-4 4 -4 8q0 2 2 6l10 16q7 10 17 0q43 -33 87 -33q103 0 103 133zM97 596q-14 0 -24 9.5t-10 23.5t10 24.5t24 10.5t24 -10.5t10 -24.5t-10 -23.5t-24 -9.5z"/>
<glyph glyph-name="k" horiz-adv-x="428" unicode="k" d="M76 13v674q0 13 13 13h17q13 0 13 -13v-448l213 155q8 6 16 6h29q5 0 7 -3.5t1 -8t-5 -6.5l-215 -158l241 -207q4 -3 4 -8q0 -9 -9 -9h-31q-10 0 -20 8l-231 199v-194q0 -13 -13 -13h-19q-11 0 -11 13z"/>
<glyph glyph-name="l" horiz-adv-x="196" unicode="l" d="M76 13v674q0 13 13 13h18q13 0 13 -13v-674q0 -13 -13 -13h-20q-11 0 -11 13z"/>
<glyph glyph-name="m" horiz-adv-x="763" unicode="m" d="M76 13v374q0 13 13 13h12q9 0 11 -10l5 -43q8 11 22.5 23.5t46.5 26t69 13.5q92 0 131 -73q9 12 25.5 26.5t52 30.5t72.5 16q156 0 156 -183v-214q0 -13 -13 -13h-20q-11 0 -11 13v214q0 140 -115 140q-77 0 -132 -68q9 -31 9 -72v-214q0 -13 -13 -13h-19q-12 0 -12 13 v214q0 69 -30 104.5t-86 35.5q-36 0 -68 -17t-44 -30t-18 -22v-285q0 -13 -13 -13h-20q-11 0 -11 13z"/>
<glyph glyph-name="n" horiz-adv-x="495" unicode="n" d="M76 13v374q0 13 14 13h10q10 0 12 -10l4 -43q10 11 26 23t51 26t71 14q82 0 121.5 -48t39.5 -135v-214q0 -13 -13 -13h-18q-13 0 -13 13v214q0 69 -31 104.5t-88 35.5q-37 0 -72.5 -17.5t-49.5 -30.5t-21 -21v-285q0 -13 -13 -13h-19q-11 0 -11 13z"/>
<glyph glyph-name="o" horiz-adv-x="494" unicode="o" d="M89 201q0 -71 45.5 -120.5t112.5 -49.5q66 0 111.5 49.5t45.5 120.5q0 69 -45.5 118t-111.5 49t-112 -49t-46 -118zM46 201q0 86 58.5 147.5t142.5 61.5t142.5 -61.5t58.5 -147.5q0 -88 -58.5 -149.5t-142.5 -61.5t-142.5 61.5t-58.5 149.5z"/>
<glyph glyph-name="p" horiz-adv-x="487" unicode="p" d="M120 79q2 -4 14.5 -14t40.5 -21.5t58 -11.5q72 0 117.5 48.5t45.5 120.5q0 71 -42.5 119.5t-109.5 48.5q-35 0 -65.5 -14t-42.5 -25t-16 -17v-234zM119 31v-318q0 -13 -13 -13h-17q-13 0 -13 13v674q0 13 14 13h11q11 0 12 -10l3 -28q58 48 131 48q83 0 138 -61t55 -149 q0 -89 -57 -149.5t-145 -60.5q-74 0 -119 41z"/>
<glyph glyph-name="q" d="M91 201q0 -72 45 -120.5t117 -48.5q30 0 58.5 11t40 20t15.5 15v235q-5 7 -16 17t-42 24.5t-66 14.5q-68 0 -110 -48.5t-42 -119.5zM47 200q0 89 54.5 149.5t137.5 60.5q73 0 131 -48l4 27q1 11 13 11h11q5 0 8.5 -4t3.5 -9v-674q0 -5 -3.5 -9t-8.5 -4h-18q-13 0 -13 13 v319q-46 -42 -118 -42q-88 0 -145 60t-57 150z" unicode="q"/>
<glyph glyph-name="r" horiz-adv-x="324" unicode="r" d="M76 13v374q0 13 13 13h12q10 0 12 -11l4 -41q44 62 125 62q30 0 62 -12q12 -3 12 -13q0 -3 -1 -5l-8 -20q-4 -10 -16 -5q-30 12 -52 12q-35 0 -64.5 -17.5t-40 -30.5t-14.5 -21v-285q0 -13 -13 -13h-20q-11 0 -11 13z"/>
<glyph glyph-name="s" horiz-adv-x="370" unicode="s" d="M57 35q-9 6 -4 14l10 16q7 11 18 1q49 -39 107 -39q42 0 69 20.5t27 50.5q0 31 -26 49.5t-86 40.5q-60 21 -91.5 48t-31.5 70q0 39 34 71.5t97 32.5q64 0 113 -32q11 -7 4 -19l-6 -11q-7 -12 -19 -5q-42 28 -92 28q-43 0 -64.5 -20t-21.5 -44q0 -28 23 -45t72 -35 q37 -14 55.5 -22t42 -23.5t33.5 -35t10 -45.5q0 -45 -41.5 -78t-100.5 -33q-73 0 -131 45z"/>
<glyph glyph-name="t" horiz-adv-x="329" unicode="t" d="M93 103v258h-47q-12 0 -12 13v16q0 10 12 10h47v109q0 13 13 13l17 1q13 0 13 -13v-110h139q13 0 13 -13v-13q0 -13 -13 -13h-139v-255q0 -40 9.5 -56.5t42.5 -16.5q47 0 91 27q10 6 16 -4l7 -12q2 -3 2 -8q0 -6 -5 -9q-46 -37 -116 -37q-57 0 -73.5 28t-16.5 85z"/>
<glyph glyph-name="u" horiz-adv-x="485" unicode="u" d="M70 172v215q0 13 13 13h18q13 0 13 -13v-215q0 -69 30.5 -104.5t88.5 -35.5q37 0 70 18t45 31t17 21v285q0 13 13 13h18q13 0 13 -13v-374q0 -13 -13 -13h-12q-10 0 -12 12l-4 39q-8 -11 -22.5 -23t-47 -25t-68.5 -13q-160 0 -160 182z"/>
<glyph glyph-name="v" horiz-adv-x="408" unicode="v" d="M189 -1l-172 386q-2 6 -2 8q0 7 8 7h22q9 0 13 -9l145 -330h1l146 330q4 9 13 9h22q8 0 8 -7q0 -2 -2 -8l-174 -386q-5 -9 -12 -9h-4q-8 0 -12 9z"/>
<glyph glyph-name="w" horiz-adv-x="606" unicode="w" d="M154 -1l-120 385q-2 6 -2 9q0 7 8 7h22q10 0 13 -9l94 -315h1l119 325q3 9 12 9h4q9 0 12 -9l119 -325h1l94 315q3 9 13 9h22q8 0 8 -7q0 -3 -2 -9l-120 -385q-3 -9 -12 -9h-4q-9 0 -12 9l-121 337h-1l-120 -337q-3 -9 -12 -9h-4q-9 0 -12 9z"/>
<glyph glyph-name="x" horiz-adv-x="418" unicode="x" d="M35 14l147 191l-139 181q-4 5 -2 9.5t8 4.5h26q9 0 15 -9l117 -155h1l118 155q6 9 15 9h26q6 0 8 -4.5t-2 -9.5l-138 -180l145 -192q3 -3 3 -7q0 -7 -9 -7h-26q-9 0 -15 9l-125 167h-1l-125 -167q-6 -9 -15 -9h-26q-9 0 -9 7q0 4 3 7z"/>
<glyph glyph-name="y" horiz-adv-x="443" unicode="y" d="M204 4l-189 380q-2 6 -2 8q0 8 8 8h22q9 0 13 -9l171 -338h2l156 338q5 9 13 9h22q8 0 8 -8q0 -2 -2 -8l-314 -676q-3 -8 -13 -8h-23q-13 0 -7 14z"/>
<glyph glyph-name="z" horiz-adv-x="371" unicode="z" d="M34 11v11l235 335v3h-204q-12 0 -12 13v14q0 13 12 13h259q13 0 13 -12q0 -5 -2 -7l-234 -338v-3h207q13 0 13 -13v-14q0 -13 -13 -13h-262q-12 0 -12 11z"/>
<glyph glyph-name="braceleft" horiz-adv-x="365" unicode="{" d="M108 -68v164q0 65 -73 89q-9 3 -9 9v16q0 6 9 9q73 24 73 89v160q0 66 19 115t51 75.5t68.5 39t78.5 12.5q14 0 14 -12v-12q0 -10 -10 -12q-84 -6 -131 -57t-47 -150v-159q0 -31 -17 -57.5t-29 -35t-22 -13.5v-1q3 -1 9 -4.5t17 -12.5t20 -20.5t15.5 -29.5t6.5 -38v-163 q0 -99 47 -150t131 -57q10 -2 10 -12v-12q0 -12 -14 -12q-42 0 -78.5 12.5t-68.5 39t-51 75.5t-19 115z"/>
<glyph glyph-name="bar" horiz-adv-x="195" unicode="|" d="M82 -288v1034q0 13 13 13h6q12 0 12 -13v-1034q0 -12 -13 -12h-5q-13 0 -13 12z"/>
<glyph glyph-name="braceright" horiz-adv-x="365" unicode="}" d="M214 -67v163q0 24 9 44.5t23 33.5t21.5 18.5t14.5 8.5v1q-6 3 -13.5 8.5t-22 18t-23.5 33.5t-9 46v159q0 99 -47 150t-131 57q-10 2 -10 12v12q0 12 14 12q42 0 78.5 -12.5t68.5 -39t51 -75.5t19 -115v-160q0 -65 73 -89q9 -3 9 -9v-16q0 -6 -9 -9q-73 -24 -73 -89v-164 q0 -66 -19 -115t-51 -75.5t-68.5 -39t-78.5 -12.5q-14 0 -14 12v12q0 10 10 12q84 6 131 57t47 150z"/>
<glyph glyph-name="asciitilde" horiz-adv-x="574" unicode="~" d="M81 239l-13 10q-4 3 -4 9q0 4 2 7q2 4 6 10.5t17 22.5t27 28.5t36.5 23t46.5 10.5q53 0 105 -54q42 -45 79 -45q10 0 19.5 2t17.5 6.5t15 9t13.5 11.5t11 12t9.5 12t7 10.5t5 8.5l3 5q8 11 17 3l13 -9q5 -2 5 -9q0 -5 -2 -7q-2 -4 -6 -10.5t-17 -22.5t-27.5 -28.5 t-37 -23t-46.5 -10.5q-47 0 -102 53q-45 45 -82 45q-10 0 -19.5 -2t-17.5 -6.5t-15 -9t-13 -11t-10.5 -12t-9.5 -12.5t-7 -10.5t-5 -8.5l-3 -5q-7 -10 -18 -3z"/>
<glyph glyph-name="uni00A0" horiz-adv-x="217" unicode=" "/>
<glyph glyph-name="exclamdown" horiz-adv-x="225" unicode="¡" d="M95 119q0 4 4 8t9 4h8q5 0 9 -3.5t4 -8.5l10 -284v-122q0 -13 -15 -13h-25q-13 0 -13 13v121zM112 330q-17 0 -28.5 11.5t-11.5 28.5t11.5 28.5t28.5 11.5t29 -12t12 -28q0 -17 -12 -28.5t-29 -11.5z"/>
<glyph glyph-name="cent" horiz-adv-x="445" unicode="¢" d="M178 46l86 319q-12 2 -19 2q-69 0 -117 -47.5t-48 -118.5q0 -53 27 -94.5t71 -60.5zM166 4q-58 23 -94.5 75.5t-36.5 120.5q0 89 62 149.5t148 60.5q16 0 31 -3l10 40q3 8 13 8h3l5 -1q13 -2 9 -16l-10 -38q59 -17 87 -53q8 -10 -2 -18l-11 -10q-9 -8 -20 3 q-25 25 -65 36l-87 -323q18 -3 36 -3q14 0 27 2t23 5t20 8t17 9t14.5 10t11 9.5t8.5 8t6 5.5q10 11 19 2l8 -7q6 -6 6 -11q0 -2 -2 -6q-16 -25 -59 -51t-98 -26q-30 0 -49 5l-23 -90q-3 -8 -13 -8h-3l-5 1q-13 2 -9 15z"/>
<glyph glyph-name="sterling" horiz-adv-x="518" unicode="£" d="M82 14v9q48 109 48 191v7q0 35 -8 81h-43q-13 0 -13 15v4q0 5 4 8.5t9 3.5h36q-1 3 -11.5 43t-15.5 70t-5 62q0 89 59 145.5t144 56.5q60 0 109 -25t66 -48q4 -6 4 -10q0 -5 -6 -12l-8 -9q-10 -10 -22 2q-60 60 -145 60q-65 0 -111 -45t-46 -116q0 -31 5.5 -62.5 t15.5 -68t11 -43.5h202q13 0 13 -14v-4q0 -13 -13 -13h-194q6 -36 6 -81q-2 -98 -37 -180h300q12 0 12 -14v-15q0 -12 -12 -12h-342q-5 0 -9 4.5t-3 9.5z"/>
<glyph glyph-name="currency" horiz-adv-x="491" unicode="¤" d="M179 253q29 -27 69 -27t67 27q28 28 28 68t-28 68q-27 28 -68 28q-40 0 -68 -28t-28 -68t28 -68zM97 162l-10 12q-5 2 -5 9q0 4 3 7l53 53q-26 35 -26 78q0 44 26 79l-53 52q-3 3 -3 8q0 6 5 10l10 11q5 4 10 4t9 -2l51 -53q33 26 78 26t79 -27l53 53q3 3 7 3q6 0 11 -6 l11 -9q4 -5 4 -10q0 -3 -4 -9l-51 -51q25 -34 25 -78q0 -46 -25 -78l51 -51q3 -4 3 -8q0 -7 -6 -11l-10 -11q-4 -4 -10 -4q-5 0 -8 3l-51 51q-35 -26 -79 -26q-43 0 -78 26l-51 -53q-4 -2 -8 -2q-6 0 -11 4z"/>
<glyph glyph-name="yen" horiz-adv-x="620" unicode="¥" d="M133 139q-12 0 -12 12v6q0 13 12 13h150v88h-150q-12 0 -12 12v6q0 13 12 13h150v51l-255 345q-3 5 -3 7q0 8 11 8h30q8 0 13 -6l228 -312l232 312q5 6 13 6h30q11 0 11 -8q0 -2 -3 -7l-260 -344v-52h150q12 0 12 -13v-6q0 -12 -12 -12h-150v-88h150q12 0 12 -13v-6 q0 -12 -12 -12h-150v-126q0 -13 -13 -13h-22q-12 0 -12 13v126h-150z"/>
<glyph glyph-name="brokenbar" horiz-adv-x="359" unicode="¦" d="M164 58q0 13 13 13h6q12 0 12 -13v-346q0 -12 -13 -12h-5q-13 0 -13 12v346zM177 388q-13 0 -13 13v345q0 13 13 13h6q12 0 12 -13v-345q0 -13 -13 -13h-5z"/>
<glyph glyph-name="section" horiz-adv-x="533" unicode="§" d="M257 143q66 -20 116 -49l7 6q7 6 10.5 9.5t10.5 11t11.5 14.5t9 16t7 19.5t2.5 20.5q0 56 -45 89t-143 66q-62 17 -94 41q-15 -14 -22 -21t-18.5 -29.5t-11.5 -45.5q0 -56 39.5 -88t120.5 -60zM72 -114q9 11 19 1q11 -11 29 -24.5t62 -32t87 -18.5q64 0 113 34.5t49 87.5 q0 58 -46.5 95t-141.5 69q-93 31 -143 75t-50 116q0 62 65 120q-64 60 -64 130q0 65 54.5 118t160.5 53q44 0 87 -13t63 -25l21 -13q13 -7 4 -20l-10 -15q-8 -11 -20 -4q-80 48 -145 48q-85 0 -127 -39t-42 -90q0 -55 42 -90.5t122 -60.5q112 -37 166 -79t54 -115 q0 -13 -3 -25t-9 -23.5t-11 -20.5t-14 -19t-13.5 -14.5l-12.5 -12.5l-8 -8q70 -58 70 -136q0 -71 -63 -118t-149 -47q-51 0 -101 19t-70.5 33.5t-34.5 26.5q-11 11 -3 21z"/>
<glyph glyph-name="dieresis" horiz-adv-x="414" unicode="¨" d="M128 596q-14 0 -24 9.5t-10 23.5q0 15 10 25t24 10q15 0 24.5 -10t9.5 -25q0 -14 -9.5 -23.5t-24.5 -9.5zM319 596q-14 0 -23.5 9.5t-9.5 23.5q0 15 9.5 25t23.5 10q15 0 25 -10t10 -25q0 -14 -10 -23.5t-25 -9.5z"/>
<glyph glyph-name="copyright" horiz-adv-x="833" unicode="©" d="M235 348q0 79 55.5 134.5t134.5 55.5q70 0 116 -38q11 -9 2 -19l-9 -11q-7 -9 -17 -1q-37 29 -91 29q-62 0 -104.5 -43.5t-42.5 -105.5t42.5 -105t104.5 -43q49 0 90 31q11 8 19 -2l9 -12q6 -10 -1 -17q-47 -43 -118 -43q-79 0 -134.5 55.5t-55.5 134.5zM95 350 q0 -133 94 -227t227 -94t227 94t94 227t-94 226.5t-227 93.5t-227 -93.5t-94 -226.5zM56 350q0 149 105.5 254.5t254.5 105.5t255 -106t106 -254q0 -149 -106 -254.5t-255 -105.5t-254.5 105.5t-105.5 254.5z"/>
<glyph glyph-name="ordfeminine" horiz-adv-x="324" unicode="ª" d="M138 434q29 0 55 13.5t38 29.5v80q-39 14 -71 14q-39 0 -64 -20t-25 -49q0 -30 19 -49t48 -19zM135 403q-41 0 -68 27t-27 71q0 43 33 70t89 27q41 0 70 -11q0 52 -11 71.5t-49 19.5q-39 0 -86 -20q-9 -3 -11 5l-4 13q-3 8 5 12q44 22 98 22q27 0 44.5 -7.5t27 -17 t14 -30.5t5.5 -36t1 -45v-154q0 -10 -10 -10h-11q-8 0 -10 8l-3 23q-45 -38 -97 -38z"/>
<glyph glyph-name="guillemotleft" horiz-adv-x="405" unicode="«" d="M154 42l-108 157q-3 3 -3 8t3 9l108 154q7 9 14 9h2h16q6 0 7.5 -5.5t-2.5 -12.5l-94 -153l94 -157q4 -7 2.5 -12.5t-7.5 -5.5h-16h-2q-7 0 -14 9zM206 199q-3 3 -3 8t3 9l108 154q7 9 14 9h2h16q8 0 8 -8q0 -4 -3 -10l-94 -153l94 -157q3 -6 3 -10q0 -8 -8 -8h-16h-2 q-7 0 -14 9z"/>
<glyph glyph-name="logicalnot" horiz-adv-x="531" unicode="¬" d="M61 327q-13 0 -13 13v15q0 13 13 13h385q12 0 12 -13v-200q0 -12 -13 -12h-16q-13 0 -13 12v172h-355z"/>
<glyph glyph-name="uni00AD" horiz-adv-x="347" unicode="­" d="M60 231q-12 0 -12 13v11q0 13 12 13h226q13 0 13 -13v-11q0 -13 -13 -13h-226z"/>
<glyph glyph-name="registered" horiz-adv-x="834" unicode="®" d="M328 345h118q35 0 60.5 21.5t25.5 56.5q0 77 -98 77h-106v-155zM288 180v343q0 13 12 13h146q53 0 90 -29t37 -84q0 -49 -29 -77t-66 -35l70 -128q3 -5 1 -10t-9 -5h-23q-9 0 -14 10l-67 130h-14h-94v-128q0 -13 -12 -13h-16q-12 0 -12 13zM95 350q0 -133 94 -227 t227 -94t227 94t94 227t-94 226.5t-227 93.5t-227 -93.5t-94 -226.5zM56 350q0 149 105.5 254.5t254.5 105.5t255 -106t106 -254q0 -149 -106 -254.5t-255 -105.5t-254.5 105.5t-105.5 254.5z"/>
<glyph glyph-name="macron" horiz-adv-x="414" unicode="¯" d="M71 595q-13 0 -13 12v13q0 13 13 13h272q13 0 13 -13v-13q0 -12 -13 -12h-272z"/>
<glyph glyph-name="degree" horiz-adv-x="350" unicode="°" d="M175 470q41 0 71.5 30.5t30.5 72.5q0 41 -30.5 71.5t-71.5 30.5q-42 0 -72.5 -30.5t-30.5 -71.5q0 -42 30.5 -72.5t72.5 -30.5zM175 435q-58 0 -98 40t-40 98t40 98t98 40q57 0 97.5 -40.5t40.5 -97.5t-40.5 -97.5t-97.5 -40.5z"/>
<glyph glyph-name="plusminus" horiz-adv-x="614" unicode="±" d="M102 87v15q0 13 13 13h385q12 0 12 -13v-15q0 -13 -12 -13h-385q-13 0 -13 13zM286 256v126h-171q-13 0 -13 13v15q0 13 13 13h171v168q0 12 13 12h16q13 0 13 -12v-168h172q12 0 12 -13v-15q0 -13 -12 -13h-172v-126q0 -13 -13 -13h-16q-13 0 -13 13z"/>
<glyph glyph-name="twosuperior" horiz-adv-x="320" unicode="²" d="M63 504q-9 0 -9 8v9l139 130q35 33 36 66q0 24 -19 42t-53 18q-35 0 -68 -33q-5 -6 -10 -1l-13 12q-5 5 -1 10t11 12.5t31.5 20t51.5 12.5q50 0 78 -26t28 -64q0 -45 -46 -88l-106 -97h143q7 0 7 -8v-15q0 -8 -7 -8h-193z"/>
<glyph glyph-name="threesuperior" horiz-adv-x="316" unicode="³" d="M157 494q-71 0 -105 41q-3 3 -3 6q0 2 3 5l11 11q7 7 13 0l4 -4q4 -4 6.5 -6t8 -5.5t11.5 -6t13.5 -5t17 -4t19.5 -1.5q34 0 55.5 16t21.5 41q0 24 -21 40.5t-60 16.5h-45q-8 0 -8 10v12q0 8 8 8h45q32 0 52.5 14t20.5 41q0 24 -19 39t-49 15q-41 0 -71 -30q-6 -6 -10 -1 l-13 11q-6 6 -1 11q4 5 11.5 11.5t33 18t52.5 11.5q45 0 74 -22t29 -60q0 -23 -15.5 -43t-36.5 -29q2 -1 6.5 -2.5t15 -8t18.5 -14t14.5 -21.5t6.5 -30q0 -37 -32 -61.5t-82 -24.5z"/>
<glyph glyph-name="acute" horiz-adv-x="302" unicode="´" d="M92 558q-6 -2 -7 -2q-4 0 -7 6l-6 13q-1 2 -1 5q0 5 7 9l165 87q4 2 8 2q7 0 9 -5l10 -20q1 -2 1 -5q0 -8 -10 -13z"/>
<glyph glyph-name="mu" horiz-adv-x="505" unicode="µ" d="M122 42v-329q0 -13 -14 -13h-17q-13 0 -13 13v674q0 13 13 13h18q13 0 13 -13v-215q0 -69 30.5 -104.5t88.5 -35.5q37 0 70 18t45 31t17 21v285q0 13 13 13h18q13 0 13 -13v-374q0 -13 -13 -13h-12q-10 0 -12 12l-4 39q-8 -11 -22.5 -23t-47 -25t-68.5 -13q-38 0 -70 15 t-46 37z"/>
<glyph glyph-name="paragraph" horiz-adv-x="685" unicode="¶" d="M223 283q-86 0 -141.5 62t-55.5 145q0 87 57 148.5t140 61.5h428q13 0 13 -13v-12q0 -13 -13 -13h-107v-949q0 -13 -13 -13h-11q-13 0 -13 13v949h-175v-949q0 -13 -13 -13h-11q-13 0 -13 13v570h-72z"/>
<glyph glyph-name="periodcentered" horiz-adv-x="233" unicode="·" d="M117 221q-17 0 -29 12t-12 28q0 17 12 28.5t29 11.5t28.5 -11.5t11.5 -28.5t-11.5 -28.5t-28.5 -11.5z"/>
<glyph glyph-name="cedilla" horiz-adv-x="247" unicode="¸" d="M72 0h36v-54q48 -6 77.5 -30.5t29.5 -66.5q0 -40 -28 -68.5t-70 -28.5q-27 0 -48.5 10.5t-29.5 23.5q-3 6 -3 10q0 5 4 8l10 8q7 6 16 -3q18 -21 51 -21q26 0 42.5 17.5t16.5 42.5q0 57 -92 68q-12 3 -12 13v71z"/>
<glyph glyph-name="onesuperior" horiz-adv-x="187" unicode="¹" d="M98 504q-8 0 -8 8v241l-47 -28q-6 -3 -9 2l-6 10q-1 2 -1 4q0 4 4 7l73 52h12q10 0 10 -8v-280q0 -8 -8 -8h-20z"/>
<glyph glyph-name="ordmasculine" horiz-adv-x="331" unicode="º" d="M165 427q41 0 64 32.5t23 91.5t-23 93t-64 34q-40 0 -63 -34t-23 -93q0 -58 22.5 -91t63.5 -33zM165 394q-57 0 -89.5 42t-32.5 115q0 74 32 116.5t90 42.5t90.5 -42t32.5 -117q0 -73 -32.5 -115t-90.5 -42z"/>
<glyph glyph-name="guillemotright" horiz-adv-x="405" unicode="»" d="M59 33q-8 0 -8 8q0 4 3 10l94 157l-94 153q-3 6 -3 10q0 8 8 8h16h2q7 0 14 -9l108 -154q6 -10 0 -17l-108 -157q-7 -9 -14 -9h-2h-16zM214 51l94 157l-94 153q-3 6 -3 10q0 8 8 8h16h2q7 0 14 -9l108 -154q3 -4 3 -9t-3 -8l-108 -157q-7 -9 -14 -9h-2h-16q-8 0 -8 8 q0 4 3 10z"/>
<glyph glyph-name="onequarter" horiz-adv-x="635" unicode="¼" d="M372 103h119v130zM315 78v9l189 209h14q10 0 10 -9v-185h39q9 0 9 -8v-16q0 -8 -9 -8h-39v-61q0 -9 -10 -9h-17q-10 0 -10 9v60h-167q-9 0 -9 9zM117 404q-8 0 -8 8v241l-47 -28q-6 -3 -9 2l-6 10q-1 2 -1 4q0 4 4 7l73 52h12q10 0 10 -8v-280q0 -8 -8 -8h-20zM75 14 l384 681q3 5 13 5h15q10 0 10 -8q0 -2 -2 -6l-384 -681q-3 -5 -13 -5h-15q-10 0 -10 8q0 2 2 6z"/>
<glyph glyph-name="onehalf" horiz-adv-x="669" unicode="½" d="M387 8v9l139 130q35 33 36 66q0 24 -19 42t-53 18q-35 0 -68 -33q-5 -6 -10 -1l-13 12q-5 5 -1 10t11 12.5t31.5 20t51.5 12.5q50 0 78 -26t28 -64q0 -45 -46 -88l-106 -97h143q7 0 7 -8v-15q0 -8 -7 -8h-193q-9 0 -9 8zM117 404q-8 0 -8 8v241l-47 -28q-6 -3 -9 2l-6 10 q-1 2 -1 4q0 4 4 7l73 52h12q10 0 10 -8v-280q0 -8 -8 -8h-20zM75 14l384 681q3 5 13 5h15q10 0 10 -8q0 -2 -2 -6l-384 -681q-3 -5 -13 -5h-15q-10 0 -10 8q0 2 2 6z"/>
<glyph glyph-name="threequarters" horiz-adv-x="706" unicode="¾" d="M442 103h119v130zM385 78v9l189 209h14q10 0 10 -9v-185h39q9 0 9 -8v-16q0 -8 -9 -8h-39v-61q0 -9 -10 -9h-17q-10 0 -10 9v60h-167q-9 0 -9 9zM145 14l384 681q3 5 13 5h15q10 0 10 -8q0 -2 -2 -6l-384 -681q-3 -5 -13 -5h-15q-15 0 -8 14zM154 394q-71 0 -105 41 q-3 3 -3 6q0 2 3 5l11 11q6 7 13 0l4 -4q4 -4 6.5 -6t8 -5.5t11.5 -6t13.5 -5t17 -4t19.5 -1.5q34 0 55.5 16t21.5 41q0 24 -21 40.5t-60 16.5h-45q-8 0 -8 10v12q0 8 8 8h45q32 0 52.5 14t20.5 41q0 24 -19 39t-49 15q-41 0 -71 -30q-5 -6 -10 -1l-13 11q-6 6 -1 11 q4 5 11.5 11.5t33 18t52.5 11.5q45 0 74 -22t29 -60q0 -23 -15.5 -43t-36.5 -29q2 -1 6.5 -2.5t15 -8t18.5 -14t14.5 -21.5t6.5 -30q0 -37 -32 -61.5t-82 -24.5z"/>
<glyph glyph-name="questiondown" horiz-adv-x="239" unicode="¿" d="M102 56v57q0 14 13 14h19q12 0 12 -14v-58q0 -32 -26 -61t-57.5 -48t-57.5 -48.5t-26 -63.5q0 -42 33.5 -73t89.5 -31q19 0 36.5 3t31 9t24.5 12t20 14t14.5 13.5t11 11.5t6.5 7q7 7 17 1l10 -7q7 -6 7 -10q0 -3 -4 -9q-2 -3 -6.5 -9t-20.5 -20.5t-35 -26t-50 -20.5 t-65 -9q-75 0 -120 39.5t-45 101.5q0 37 17.5 67t42 49.5t49 36t42 35t17.5 37.5zM125 330q-17 0 -29 11.5t-12 28.5t12 28.5t29 11.5t28.5 -12t11.5 -28q0 -17 -11.5 -28.5t-28.5 -11.5z"/>
<glyph glyph-name="Agrave" horiz-adv-x="653" unicode="À" d="M418 782l-172 79q-9 5 -4 15l10 20q2 5 9 5q4 0 8 -2l164 -90q9 -5 6 -14l-5 -10q-4 -8 -16 -3zM153 232h347l-171 403h-2zM13 0q-8 0 -8 7q0 3 1 5l308 696q4 7 12 7h3q9 0 13 -7l305 -696q1 -2 1 -5q0 -7 -10 -7h-26q-10 0 -14 9l-81 184h-382l-80 -184q-5 -9 -14 -9 h-28z"/>
<glyph glyph-name="Aacute" horiz-adv-x="653" unicode="Á" d="M262 782q-12 -5 -16 3l-5 10q-3 9 6 14l164 90q4 2 8 2q7 0 9 -5l10 -20q5 -10 -4 -15zM153 232h347l-171 403h-2zM13 0q-8 0 -8 7q0 3 1 5l308 696q4 7 12 7h3q9 0 13 -7l305 -696q1 -2 1 -5q0 -7 -10 -7h-26q-10 0 -14 9l-81 184h-382l-80 -184q-5 -9 -14 -9h-28z"/>
<glyph glyph-name="Acircumflex" horiz-adv-x="653" unicode="Â" d="M217 768q-9 -6 -15 2l-9 11q-5 7 4 14l121 98q5 5 10 5h3q5 0 10 -5l121 -98q9 -7 4 -14l-9 -11q-6 -8 -15 -2l-113 84zM153 232h347l-171 403h-2zM13 0q-8 0 -8 7q0 3 1 5l308 696q4 7 12 7h3q9 0 13 -7l305 -696q1 -2 1 -5q0 -7 -10 -7h-26q-10 0 -14 9l-81 184h-382 l-80 -184q-5 -9 -14 -9h-28z"/>
<glyph glyph-name="Atilde" horiz-adv-x="653" unicode="Ã" d="M199 799l-12 5q-10 3 -6 14q24 61 57 78q17 8 36 8q24 0 41 -14t24.5 -31.5t19.5 -31.5t28 -14q37 0 57 59q4 13 15 7l11 -4q8 -4 6 -13q-2 -8 -6 -17.5t-14 -27.5t-29 -29.5t-43 -11.5t-40.5 14.5t-24.5 31.5t-20.5 31.5t-27.5 14.5q-37 0 -57 -62q-3 -12 -15 -7z M153 232h347l-171 403h-2zM13 0q-8 0 -8 7q0 3 1 5l308 696q4 7 12 7h3q9 0 13 -7l305 -696q1 -2 1 -5q0 -7 -10 -7h-26q-10 0 -14 9l-81 184h-382l-80 -184q-5 -9 -14 -9h-28z"/>
<glyph glyph-name="Adieresis" horiz-adv-x="653" unicode="Ä" d="M226 801q-14 0 -24 9.5t-10 23.5q0 15 10 25t24 10q15 0 25 -10t10 -25q0 -14 -10 -23.5t-25 -9.5zM435 801q-14 0 -24 9.5t-10 23.5q0 15 10 25t24 10q15 0 25 -10t10 -25q0 -14 -10 -23.5t-25 -9.5zM153 232h347l-171 403h-2zM13 0q-8 0 -8 7q0 3 1 5l308 696q4 7 12 7 h3q9 0 13 -7l305 -696q1 -2 1 -5q0 -7 -10 -7h-26q-10 0 -14 9l-81 184h-382l-80 -184q-5 -9 -14 -9h-28z"/>
<glyph glyph-name="Aring" horiz-adv-x="653" unicode="Å" d="M331 786q30 0 52 22t22 52t-22 52t-52 22t-52 -22t-22 -52t22 -52t52 -22zM331 754q-45 0 -75.5 30.5t-30.5 75.5t30.5 76t75.5 31q44 0 75.5 -31t31.5 -76t-31 -75.5t-76 -30.5zM153 232h347l-171 403h-2zM13 0q-8 0 -8 7q0 3 1 5l308 696q4 7 12 7h3q9 0 13 -7 l305 -696q1 -2 1 -5q0 -7 -10 -7h-26q-10 0 -14 9l-81 184h-382l-80 -184q-5 -9 -14 -9h-28z"/>
<glyph glyph-name="AE" horiz-adv-x="915" unicode="Æ" d="M179 232h243v382zM-4 0q-8 0 -8 7q0 2 4 10l425 666q10 17 25 17h393q13 0 13 -13v-16q0 -13 -13 -13h-369v-277h321q13 0 13 -13v-17q0 -13 -13 -13h-321v-296h369q13 0 13 -14v-15q0 -13 -13 -13h-400q-13 0 -13 13v180h-266l-116 -184q-6 -9 -16 -9h-28z"/>
<glyph glyph-name="Ccedilla" horiz-adv-x="718" unicode="Ç" d="M56 349q0 150 106 255.5t256 105.5q141 0 243 -93q4 -4 4 -10q0 -5 -3 -8l-16 -17q-8 -8 -17 1q-92 82 -211 82q-131 0 -221.5 -93t-90.5 -223t90.5 -222t221.5 -92q110 0 211 84q9 7 16 2l17 -17q4 -4 4 -8q0 -5 -4 -9q-100 -97 -244 -97q-2 0 -7 0.5t-8 0.5v-45 q48 -6 77.5 -30.5t29.5 -66.5q0 -40 -28 -68.5t-70 -28.5q-27 0 -48.5 10.5t-29.5 23.5q-7 11 1 18l10 8q7 6 16 -3q18 -21 51 -21q26 0 42.5 17.5t16.5 42.5q0 57 -92 68q-12 3 -12 13v65q-133 17 -222 117.5t-89 237.5z"/>
<glyph glyph-name="Egrave" horiz-adv-x="598" unicode="È" d="M402 782l-172 79q-9 5 -4 15l10 20q2 5 9 5q4 0 8 -2l164 -90q9 -5 6 -14l-5 -10q-4 -8 -16 -3zM106 13v674q0 13 13 13h401q13 0 13 -13v-17q0 -13 -13 -13h-366v-276h317q13 0 13 -13v-17q0 -13 -13 -13h-317v-296h366q13 0 13 -13v-16q0 -13 -13 -13h-401 q-13 0 -13 13z"/>
<glyph glyph-name="Eacute" horiz-adv-x="598" unicode="É" d="M246 782q-12 -5 -16 3l-5 10q-3 9 6 14l164 90q4 2 8 2q7 0 9 -5l10 -20q5 -10 -4 -15zM106 13v674q0 13 13 13h401q13 0 13 -13v-17q0 -13 -13 -13h-366v-276h317q13 0 13 -13v-17q0 -13 -13 -13h-317v-296h366q13 0 13 -13v-16q0 -13 -13 -13h-401q-13 0 -13 13z"/>
<glyph glyph-name="Ecircumflex" horiz-adv-x="598" unicode="Ê" d="M201 768q-9 -6 -15 2l-9 11q-5 7 4 14l121 98q5 5 10 5h3q5 0 10 -5l121 -98q9 -7 4 -14l-9 -11q-6 -8 -15 -2l-113 84zM106 13v674q0 13 13 13h401q13 0 13 -13v-17q0 -13 -13 -13h-366v-276h317q13 0 13 -13v-17q0 -13 -13 -13h-317v-296h366q13 0 13 -13v-16 q0 -13 -13 -13h-401q-13 0 -13 13z"/>
<glyph glyph-name="Edieresis" horiz-adv-x="598" unicode="Ë" d="M214 801q-14 0 -24 9.5t-10 23.5q0 15 10 25t24 10q15 0 25 -10t10 -25q0 -14 -10 -23.5t-25 -9.5zM423 801q-14 0 -24 9.5t-10 23.5q0 15 10 25t24 10q15 0 25 -10t10 -25q0 -14 -10 -23.5t-25 -9.5zM106 13v674q0 13 13 13h401q13 0 13 -13v-17q0 -13 -13 -13h-366 v-276h317q13 0 13 -13v-17q0 -13 -13 -13h-317v-296h366q13 0 13 -13v-16q0 -13 -13 -13h-401q-13 0 -13 13z"/>
<glyph glyph-name="Igrave" horiz-adv-x="260" unicode="Ì" d="M217 782l-172 79q-6 3 -6 9q0 2 2 6l10 20q3 5 9 5q4 0 8 -2l164 -90q7 -4 7 -10q0 -3 -1 -4l-5 -10q-4 -8 -16 -3zM106 13v674q0 13 13 13h22q13 0 13 -13v-674q0 -13 -14 -13h-21q-13 0 -13 13z"/>
<glyph glyph-name="Iacute" horiz-adv-x="260" unicode="Í" d="M61 782q-12 -5 -16 3l-5 10q-1 1 -1 4q0 6 7 10l164 90q4 2 8 2q6 0 9 -5l10 -20q2 -4 2 -6q0 -6 -6 -9zM106 13v674q0 13 13 13h22q13 0 13 -13v-674q0 -13 -14 -13h-21q-13 0 -13 13z"/>
<glyph glyph-name="Icircumflex" horiz-adv-x="260" unicode="Î" d="M16 768q-9 -6 -15 2l-9 11q-2 4 -2 5q0 3 6 9l121 98q5 5 10 5h3q5 0 10 -5l121 -98q6 -6 6 -9q0 -1 -2 -5l-9 -11q-6 -8 -15 -2l-113 84zM106 13v674q0 13 13 13h22q13 0 13 -13v-674q0 -13 -14 -13h-21q-13 0 -13 13z"/>
<glyph glyph-name="Idieresis" horiz-adv-x="260" unicode="Ï" d="M25 801q-14 0 -24 9.5t-10 23.5q0 15 10 25t24 10q15 0 25 -10t10 -25q0 -14 -10 -23.5t-25 -9.5zM234 801q-14 0 -24 9.5t-10 23.5q0 15 10 25t24 10q15 0 25 -10t10 -25q0 -14 -10 -23.5t-25 -9.5zM106 13v674q0 13 13 13h22q13 0 13 -13v-674q0 -13 -14 -13h-21 q-13 0 -13 13z"/>
<glyph glyph-name="Eth" horiz-adv-x="741" unicode="Ð" d="M156 43h169q131 0 220 88.5t89 219.5q0 130 -89 218t-220 88h-169v-294h250q13 0 13 -13v-6q0 -12 -13 -12h-250v-289zM109 13v319h-35q-12 0 -12 13v5q0 13 12 13h35v324q0 13 12 13h212q145 0 248.5 -102.5t103.5 -246.5q0 -146 -103 -248.5t-249 -102.5h-212 q-12 0 -12 13z"/>
<glyph glyph-name="Ntilde" horiz-adv-x="771" unicode="Ñ" d="M260 799l-12 5q-10 3 -6 14q24 61 57 78q17 8 36 8q24 0 41 -14t24.5 -31.5t19.5 -31.5t28 -14q37 0 57 59q4 13 15 7l11 -4q8 -4 6 -13q-2 -8 -6 -17.5t-14 -27.5t-29 -29.5t-43 -11.5t-40.5 14.5t-24.5 31.5t-20.5 31.5t-27.5 14.5q-37 0 -57 -62q-3 -12 -15 -7z M106 13v684q0 13 15 13h17l480 -625h1v602q0 13 13 13h20q13 0 13 -13v-684q0 -13 -16 -13h-13q-7 0 -484 631h-1v-608q0 -13 -13 -13h-19q-13 0 -13 13z"/>
<glyph glyph-name="Ograve" horiz-adv-x="833" unicode="Ò" d="M504 782l-172 79q-9 5 -4 15l10 20q2 5 9 5q4 0 8 -2l164 -90q9 -5 6 -14l-5 -10q-4 -8 -16 -3zM100 349q0 -131 92.5 -223t223.5 -92t224 92t93 223t-93 224t-224 93t-223.5 -93t-92.5 -224zM56 349q0 150 105 255.5t255 105.5q151 0 256 -105.5t105 -255.5 q0 -151 -105 -255t-256 -104q-150 0 -255 104.5t-105 254.5z"/>
<glyph glyph-name="Oacute" horiz-adv-x="833" unicode="Ó" d="M348 782q-12 -5 -16 3l-5 10q-3 9 6 14l164 90q4 2 8 2q7 0 9 -5l10 -20q5 -10 -4 -15zM100 349q0 -131 92.5 -223t223.5 -92t224 92t93 223t-93 224t-224 93t-223.5 -93t-92.5 -224zM56 349q0 150 105 255.5t255 105.5q151 0 256 -105.5t105 -255.5q0 -151 -105 -255 t-256 -104q-150 0 -255 104.5t-105 254.5z"/>
<glyph glyph-name="Ocircumflex" horiz-adv-x="833" unicode="Ô" d="M303 768q-9 -6 -15 2l-9 11q-5 7 4 14l121 98q5 5 10 5h3q5 0 10 -5l121 -98q9 -7 4 -14l-9 -11q-6 -8 -15 -2l-113 84zM100 349q0 -131 92.5 -223t223.5 -92t224 92t93 223t-93 224t-224 93t-223.5 -93t-92.5 -224zM56 349q0 150 105 255.5t255 105.5q151 0 256 -105.5 t105 -255.5q0 -151 -105 -255t-256 -104q-150 0 -255 104.5t-105 254.5z"/>
<glyph glyph-name="Otilde" horiz-adv-x="833" unicode="Õ" d="M285 799l-12 5q-10 3 -6 14q24 61 57 78q17 8 36 8q24 0 41 -14t24.5 -31.5t19.5 -31.5t28 -14q37 0 57 59q4 13 15 7l11 -4q8 -4 6 -13q-2 -8 -6 -17.5t-14 -27.5t-29 -29.5t-43 -11.5t-40.5 14.5t-24.5 31.5t-20.5 31.5t-27.5 14.5q-37 0 -57 -62q-3 -12 -15 -7z M100 349q0 -131 92.5 -223t223.5 -92t224 92t93 223t-93 224t-224 93t-223.5 -93t-92.5 -224zM56 349q0 150 105 255.5t255 105.5q151 0 256 -105.5t105 -255.5q0 -151 -105 -255t-256 -104q-150 0 -255 104.5t-105 254.5z"/>
<glyph glyph-name="Odieresis" horiz-adv-x="833" unicode="Ö" d="M312 801q-14 0 -24 9.5t-10 23.5q0 15 10 25t24 10q15 0 25 -10t10 -25q0 -14 -10 -23.5t-25 -9.5zM521 801q-14 0 -24 9.5t-10 23.5q0 15 10 25t24 10q15 0 25 -10t10 -25q0 -14 -10 -23.5t-25 -9.5zM100 349q0 -131 92.5 -223t223.5 -92t224 92t93 223t-93 224t-224 93 t-223.5 -93t-92.5 -224zM56 349q0 150 105 255.5t255 105.5q151 0 256 -105.5t105 -255.5q0 -151 -105 -255t-256 -104q-150 0 -255 104.5t-105 254.5z"/>
<glyph glyph-name="multiply" d="M103 197l-12 11q-4 4 -4 9t4 9l121 121l-121 121q-3 3 -3 10q0 6 3 9l11 11q4 4 10 4q5 0 9 -4l121 -121l121 122q3 3 8 3q6 0 10 -4l12 -11q3 -4 3 -10q0 -5 -3 -8l-121 -122l121 -121q4 -4 4 -9t-4 -9l-12 -11q-3 -4 -9 -4q-5 0 -8 3l-122 122l-122 -121q-4 -4 -8 -4 q-5 0 -9 4z" unicode="×"/>
<glyph glyph-name="Oslash" horiz-adv-x="833" unicode="Ø" d="M201 118q89 -84 216 -84q131 0 224 92t93 223q0 120 -80 210zM179 140l454 441q-91 85 -216 85q-131 0 -223.5 -93t-92.5 -224q0 -121 78 -209zM84 28q-9 9 0 18l63 62q-90 103 -90 241q0 150 105 255.5t255 105.5q144 0 247 -98l66 64q8 9 17 0l4 -4q9 -9 0 -18l-65 -64 q92 -105 92 -241q0 -150 -105.5 -254.5t-255.5 -104.5q-147 0 -248 96l-64 -62q-8 -9 -17 0z"/>
<glyph glyph-name="Ugrave" horiz-adv-x="720" unicode="Ù" d="M456 782l-172 79q-9 5 -4 15l10 20q2 5 9 5q4 0 8 -2l164 -90q9 -5 6 -14l-5 -10q-4 -8 -16 -3zM98 255v432q0 13 13 13h21q13 0 13 -13v-427q0 -99 58 -161.5t156 -62.5q99 0 157.5 62.5t58.5 160.5v428q0 13 14 13h20q13 0 13 -13v-432q0 -116 -72.5 -190.5 t-190.5 -74.5q-117 0 -189 74.5t-72 190.5z"/>
<glyph glyph-name="Uacute" horiz-adv-x="720" unicode="Ú" d="M300 782q-12 -5 -16 3l-5 10q-3 9 6 14l164 90q4 2 8 2q7 0 9 -5l10 -20q5 -10 -4 -15zM98 255v432q0 13 13 13h21q13 0 13 -13v-427q0 -99 58 -161.5t156 -62.5q99 0 157.5 62.5t58.5 160.5v428q0 13 14 13h20q13 0 13 -13v-432q0 -116 -72.5 -190.5t-190.5 -74.5 q-117 0 -189 74.5t-72 190.5z"/>
<glyph glyph-name="Ucircumflex" horiz-adv-x="720" unicode="Û" d="M255 768q-9 -6 -15 2l-9 11q-5 7 4 14l121 98q5 5 10 5h3q5 0 10 -5l121 -98q9 -7 4 -14l-9 -11q-6 -8 -15 -2l-113 84zM98 255v432q0 13 13 13h21q13 0 13 -13v-427q0 -99 58 -161.5t156 -62.5q99 0 157.5 62.5t58.5 160.5v428q0 13 14 13h20q13 0 13 -13v-432 q0 -116 -72.5 -190.5t-190.5 -74.5q-117 0 -189 74.5t-72 190.5z"/>
<glyph glyph-name="Udieresis" horiz-adv-x="720" unicode="Ü" d="M264 801q-14 0 -24 9.5t-10 23.5q0 15 10 25t24 10q15 0 25 -10t10 -25q0 -14 -10 -23.5t-25 -9.5zM473 801q-14 0 -24 9.5t-10 23.5q0 15 10 25t24 10q15 0 25 -10t10 -25q0 -14 -10 -23.5t-25 -9.5zM98 255v432q0 13 13 13h21q13 0 13 -13v-427q0 -99 58 -161.5 t156 -62.5q99 0 157.5 62.5t58.5 160.5v428q0 13 14 13h20q13 0 13 -13v-432q0 -116 -72.5 -190.5t-190.5 -74.5q-117 0 -189 74.5t-72 190.5z"/>
<glyph glyph-name="Yacute" horiz-adv-x="560" unicode="Ý" d="M199 782q-12 -5 -16 3l-5 10q-3 9 6 14l164 90q4 2 8 2q6 0 9 -5l10 -20q5 -10 -4 -15zM253 13v327l-255 345q-3 5 -3 7q0 8 11 8h30q8 0 13 -6l228 -311l232 311q5 6 13 6h30q11 0 11 -8q0 -2 -3 -7l-260 -344v-328q0 -13 -13 -13h-12q-22 0 -22 13z"/>
<glyph glyph-name="Thorn" horiz-adv-x="596" unicode="Þ" d="M153 171h179q74 0 127.5 53.5t53.5 129.5q0 73 -53.5 124t-128.5 51h-178v-358zM106 13v674q0 13 13 13h21q13 0 13 -13v-111h181q93 0 159.5 -65.5t66.5 -157.5q0 -94 -66 -160.5t-159 -66.5h-182v-113q0 -13 -16 -13h-18q-13 0 -13 13z"/>
<glyph glyph-name="germandbls" horiz-adv-x="554" unicode="ß" d="M76 13v397q0 148 54.5 224t158.5 76q72 0 121.5 -38.5t49.5 -115.5q0 -40 -22 -82t-44 -73.5t-22 -48.5q0 -12 22.5 -33.5t49.5 -43.5t49.5 -59.5t22.5 -79.5q0 -72 -48.5 -109t-118.5 -37q-36 0 -62.5 6.5t-36.5 14t-8 13.5l6 19q4 13 15 8q40 -22 86 -22q52 0 87 28 t35 79q0 34 -23 67t-50.5 54.5t-50.5 47t-23 45.5q0 25 45.5 95t45.5 109q0 56 -37.5 86t-89.5 30q-168 0 -168 -260v-397q0 -13 -13 -13h-20q-11 0 -11 13z"/>
<glyph glyph-name="agrave" horiz-adv-x="427" unicode="à" d="M312 559l-172 79q-9 5 -4 15l10 20q2 5 9 5q4 0 8 -2l164 -90q9 -5 6 -14l-5 -10q-4 -8 -16 -3zM85 124q0 -43 26.5 -69t68.5 -26t79 20t54 42v110q-45 21 -101 21q-57 0 -92 -27t-35 -71zM44 123q0 59 45.5 97t122.5 38q52 0 101 -18q0 73 -16.5 102.5t-71.5 29.5 q-19 0 -37 -2.5t-31.5 -6.5t-24 -7.5t-18.5 -7t-9 -3.5q-11 -4 -15 8l-5 12q-4 11 6 15q5 3 18 9t47.5 13.5t71.5 7.5q36 0 60 -9t37.5 -22.5t20 -39t8 -46.5t1.5 -58v-222q0 -13 -13 -13h-12q-9 0 -12 11l-4 36q-62 -57 -139 -57q-57 0 -94 36.5t-37 96.5z"/>
<glyph glyph-name="aacute" horiz-adv-x="427" unicode="á" d="M153 558q-10 -4 -14 4l-6 13q-4 8 6 14l165 87q4 2 8 2q6 0 9 -5l10 -20q5 -11 -9 -18zM85 124q0 -43 26.5 -69t68.5 -26t79 20t54 42v110q-45 21 -101 21q-57 0 -92 -27t-35 -71zM44 123q0 59 45.5 97t122.5 38q52 0 101 -18q0 73 -16.5 102.5t-71.5 29.5 q-19 0 -37 -2.5t-31.5 -6.5t-24 -7.5t-18.5 -7t-9 -3.5q-11 -4 -15 8l-5 12q-4 11 6 15q5 3 18 9t47.5 13.5t71.5 7.5q36 0 60 -9t37.5 -22.5t20 -39t8 -46.5t1.5 -58v-222q0 -13 -13 -13h-12q-9 0 -12 11l-4 36q-62 -57 -139 -57q-57 0 -94 36.5t-37 96.5z"/>
<glyph glyph-name="acircumflex" horiz-adv-x="427" unicode="â" d="M101 550q-9 -6 -15 2l-9 11q-5 7 4 14l121 98q5 5 10 5h3q5 0 10 -5l121 -98q9 -7 4 -14l-9 -11q-6 -8 -15 -2l-113 84zM85 124q0 -43 26.5 -69t68.5 -26t79 20t54 42v110q-45 21 -101 21q-57 0 -92 -27t-35 -71zM44 123q0 59 45.5 97t122.5 38q52 0 101 -18 q0 73 -16.5 102.5t-71.5 29.5q-19 0 -37 -2.5t-31.5 -6.5t-24 -7.5t-18.5 -7t-9 -3.5q-11 -4 -15 8l-5 12q-4 11 6 15q5 3 18 9t47.5 13.5t71.5 7.5q36 0 60 -9t37.5 -22.5t20 -39t8 -46.5t1.5 -58v-222q0 -13 -13 -13h-12q-9 0 -12 11l-4 36q-62 -57 -139 -57 q-57 0 -94 36.5t-37 96.5z"/>
<glyph glyph-name="atilde" horiz-adv-x="427" unicode="ã" d="M78 579l-12 5q-10 3 -6 14q24 61 57 78q17 8 36 8q24 0 41 -14t24.5 -31.5t19.5 -31.5t28 -14q37 0 57 59q4 13 15 7l11 -4q7 -5 7 -9v-2l-1 -2q-2 -8 -6 -17.5t-14 -27.5t-29 -29.5t-43 -11.5t-40.5 14.5t-24.5 31.5t-20.5 31.5t-27.5 14.5q-37 0 -57 -62q-3 -12 -15 -7 zM85 124q0 -43 26.5 -69t68.5 -26t79 20t54 42v110q-45 21 -101 21q-57 0 -92 -27t-35 -71zM44 123q0 59 45.5 97t122.5 38q52 0 101 -18q0 73 -16.5 102.5t-71.5 29.5q-19 0 -37 -2.5t-31.5 -6.5t-24 -7.5t-18.5 -7t-9 -3.5q-11 -4 -15 8l-5 12q-4 11 6 15q5 3 18 9 t47.5 13.5t71.5 7.5q36 0 60 -9t37.5 -22.5t20 -39t8 -46.5t1.5 -58v-222q0 -13 -13 -13h-12q-9 0 -12 11l-4 36q-62 -57 -139 -57q-57 0 -94 36.5t-37 96.5z"/>
<glyph glyph-name="adieresis" horiz-adv-x="427" unicode="ä" d="M131 596q-14 0 -24 9.5t-10 23.5q0 15 10 25t24 10q15 0 24.5 -10t9.5 -25q0 -14 -9.5 -23.5t-24.5 -9.5zM322 596q-14 0 -23.5 9.5t-9.5 23.5q0 15 9.5 25t23.5 10q15 0 25 -10t10 -25q0 -14 -10 -23.5t-25 -9.5zM85 124q0 -43 26.5 -69t68.5 -26t79 20t54 42v110 q-45 21 -101 21q-57 0 -92 -27t-35 -71zM44 123q0 59 45.5 97t122.5 38q52 0 101 -18q0 73 -16.5 102.5t-71.5 29.5q-19 0 -37 -2.5t-31.5 -6.5t-24 -7.5t-18.5 -7t-9 -3.5q-11 -4 -15 8l-5 12q-4 11 6 15q5 3 18 9t47.5 13.5t71.5 7.5q36 0 60 -9t37.5 -22.5t20 -39 t8 -46.5t1.5 -58v-222q0 -13 -13 -13h-12q-9 0 -12 11l-4 36q-62 -57 -139 -57q-57 0 -94 36.5t-37 96.5z"/>
<glyph glyph-name="aring" horiz-adv-x="427" unicode="å" d="M215 529q29 0 51 22t22 52t-22 52t-51 22q-30 0 -52.5 -22t-22.5 -52t22.5 -52t52.5 -22zM215 497q-45 0 -76 30.5t-31 75.5t31 76t76 31q44 0 75 -31t31 -76t-31 -75.5t-75 -30.5zM85 124q0 -43 26.5 -69t68.5 -26t79 20t54 42v110q-45 21 -101 21q-57 0 -92 -27 t-35 -71zM44 123q0 59 45.5 97t122.5 38q52 0 101 -18q0 73 -16.5 102.5t-71.5 29.5q-19 0 -37 -2.5t-31.5 -6.5t-24 -7.5t-18.5 -7t-9 -3.5q-11 -4 -15 8l-5 12q-4 11 6 15q5 3 18 9t47.5 13.5t71.5 7.5q36 0 60 -9t37.5 -22.5t20 -39t8 -46.5t1.5 -58v-222q0 -13 -13 -13 h-12q-9 0 -12 11l-4 36q-62 -57 -139 -57q-57 0 -94 36.5t-37 96.5z"/>
<glyph glyph-name="ae" horiz-adv-x="705" unicode="æ" d="M85 124q0 -45 29 -70t72 -25q40 0 76 18t52 39v120q-52 15 -102 15q-56 0 -91.5 -26.5t-35.5 -70.5zM352 224h267q0 62 -36 104t-101 42q-87 0 -130 -70v-76zM45 125q0 59 44 95.5t118 36.5q70 0 106 -13q0 73 -15.5 100t-69.5 27q-19 0 -38 -2.5t-33.5 -6.5t-25 -7.5 t-19 -7t-9.5 -3.5q-12 -3 -15 8l-4 16q-2 9 9 13q57 29 137 29q92 0 115 -59q54 59 137 59q79 0 130 -51.5t51 -131.5q0 -39 -15 -39h-296v-84q21 -34 56 -54t77 -20q63 0 118 37q12 8 18 0l10 -14q5 -7 -4 -16q-17 -17 -59.5 -32t-85.5 -15q-91 0 -146 68 q-23 -27 -66 -47.5t-90 -20.5q-59 0 -97 37t-38 98z"/>
<glyph glyph-name="ccedilla" horiz-adv-x="461" unicode="ç" d="M47 200q0 89 62 149.5t148 60.5q52 0 91 -20t57 -43q8 -10 -2 -18l-10 -10q-9 -9 -21 2q-13 15 -43.5 30.5t-71.5 15.5q-69 0 -117 -47.5t-48 -118.5q0 -72 48 -120.5t116 -48.5q71 0 125 59q10 11 19 2l11 -10q5 -5 5 -10q0 -2 -2 -6q-16 -25 -59 -51t-98 -26h-7v-44 q48 -6 77.5 -30.5t29.5 -66.5q0 -40 -28 -68.5t-70 -28.5q-27 0 -48.5 10.5t-29.5 23.5q-7 11 1 18l10 8q7 6 16 -3q18 -21 51 -21q26 0 42.5 17.5t16.5 42.5q0 57 -92 68q-12 3 -12 13v66q-72 15 -119.5 71t-47.5 134z"/>
<glyph glyph-name="egrave" horiz-adv-x="467" unicode="è" d="M321 559l-172 79q-9 5 -4 15l10 20q3 5 9 5q4 0 8 -2l164 -90q9 -5 6 -14l-5 -10q-4 -8 -16 -3zM92 224h289q0 62 -36 104t-101 42t-106.5 -41.5t-45.5 -104.5zM47 201q0 88 54 148.5t143 60.5q79 0 130 -51.5t51 -131.5q0 -39 -15 -39h-319q3 -66 46.5 -112t109.5 -46 q63 0 118 37q12 8 18 0l10 -14q5 -7 -4 -16q-17 -17 -59.5 -32t-85.5 -15q-89 0 -143 60.5t-54 150.5z"/>
<glyph glyph-name="eacute" horiz-adv-x="467" unicode="é" d="M165 558q-10 -4 -14 4l-6 13q-4 8 6 14l165 87q4 2 8 2q6 0 9 -5l10 -20q5 -11 -9 -18zM92 224h289q0 62 -36 104t-101 42t-106.5 -41.5t-45.5 -104.5zM47 201q0 88 54 148.5t143 60.5q79 0 130 -51.5t51 -131.5q0 -39 -15 -39h-319q3 -66 46.5 -112t109.5 -46 q63 0 118 37q12 8 18 0l10 -14q5 -7 -4 -16q-17 -17 -59.5 -32t-85.5 -15q-89 0 -143 60.5t-54 150.5z"/>
<glyph glyph-name="ecircumflex" horiz-adv-x="467" unicode="ê" d="M130 550q-9 -6 -15 2l-9 11q-5 7 4 14l121 98q5 5 10 5h3q5 0 10 -5l121 -98q9 -7 4 -14l-9 -11q-6 -8 -15 -2l-113 84zM92 224h289q0 62 -36 104t-101 42t-106.5 -41.5t-45.5 -104.5zM47 201q0 88 54 148.5t143 60.5q79 0 130 -51.5t51 -131.5q0 -39 -15 -39h-319 q3 -66 46.5 -112t109.5 -46q63 0 118 37q12 8 18 0l10 -14q5 -7 -4 -16q-17 -17 -59.5 -32t-85.5 -15q-89 0 -143 60.5t-54 150.5z"/>
<glyph glyph-name="edieresis" horiz-adv-x="467" unicode="ë" d="M147 596q-14 0 -24 9.5t-10 23.5q0 15 10 25t24 10q15 0 24.5 -10t9.5 -25q0 -14 -9.5 -23.5t-24.5 -9.5zM338 596q-14 0 -23.5 9.5t-9.5 23.5q0 15 9.5 25t23.5 10q15 0 25 -10t10 -25q0 -14 -10 -23.5t-25 -9.5zM92 224h289q0 62 -36 104t-101 42t-106.5 -41.5 t-45.5 -104.5zM47 201q0 88 54 148.5t143 60.5q79 0 130 -51.5t51 -131.5q0 -39 -15 -39h-319q3 -66 46.5 -112t109.5 -46q63 0 118 37q12 8 18 0l10 -14q5 -7 -4 -16q-17 -17 -59.5 -32t-85.5 -15q-89 0 -143 60.5t-54 150.5z"/>
<glyph glyph-name="igrave" horiz-adv-x="196" unicode="ì" d="M76 13v374q0 13 13 13h18q13 0 13 -13v-374q0 -13 -14 -13h-17q-13 0 -13 13zM176 559l-172 79q-6 3 -6 9q0 2 2 6l10 20q2 5 9 5q4 0 8 -2l164 -90q7 -4 7 -10q0 -3 -1 -4l-5 -10q-2 -5 -7 -5t-9 2z"/>
<glyph glyph-name="iacute" horiz-adv-x="196" unicode="í" d="M76 13v374q0 13 13 13h18q13 0 13 -13v-374q0 -13 -14 -13h-17q-13 0 -13 13zM20 558q-6 -2 -7 -2q-4 0 -7 6l-6 13q-1 2 -1 5q0 5 7 9l165 87q4 2 8 2q7 0 9 -5l10 -20q1 -2 1 -5q0 -8 -10 -13z"/>
<glyph glyph-name="icircumflex" horiz-adv-x="196" unicode="î" d="M-15 550q-9 -6 -15 2l-9 11q-2 4 -2 5q0 3 6 9l121 98q5 5 10 5h3q5 0 10 -5l121 -98q6 -6 6 -9q0 -1 -2 -5l-9 -11q-6 -8 -15 -2l-113 84zM76 13v374q0 13 13 13h18q13 0 13 -13v-374q0 -13 -14 -13h-17q-13 0 -13 13z"/>
<glyph glyph-name="idieresis" horiz-adv-x="196" unicode="ï" d="M76 13v374q0 13 13 13h18q13 0 13 -13v-374q0 -13 -14 -13h-17q-13 0 -13 13zM2 596q-14 0 -24 9.5t-10 23.5q0 15 10 25t24 10q15 0 24.5 -10t9.5 -25q0 -14 -9.5 -23.5t-24.5 -9.5zM193 596q-14 0 -23.5 9.5t-9.5 23.5q0 15 9.5 25t23.5 10q15 0 25 -10t10 -25 q0 -14 -10 -23.5t-25 -9.5z"/>
<glyph glyph-name="eth" horiz-adv-x="553" unicode="ð" d="M88 218q0 -77 52.5 -131.5t126.5 -54.5q91 0 140.5 69t49.5 167q0 10 -2 30q-6 7 -10 12.5t-23.5 24t-39 30.5t-52 22.5t-66.5 10.5q-73 0 -124.5 -51t-51.5 -129zM44 220q0 97 64 158t153 61q66 0 116.5 -28t69.5 -53q-21 123 -142 222l-115 -67q-12 -6 -17 5l-3 5 q-8 11 4 17l104 60q-65 44 -120 66q-12 4 -6 16l7 17q1 6 9 6q3 0 5 -1q74 -27 145 -81l69 40q11 6 18 -5l3 -5q5 -10 -5 -17l-58 -34q156 -135 156 -327q0 -125 -61 -205t-173 -80q-91 0 -157 67.5t-66 162.5z"/>
<glyph glyph-name="ntilde" horiz-adv-x="495" unicode="ñ" d="M116 579l-12 5q-10 3 -6 14q24 61 57 78q17 8 36 8q24 0 41 -14t24.5 -31.5t19.5 -31.5t28 -14q37 0 57 59q4 13 15 7l11 -4q8 -4 6 -13q-2 -8 -6 -17.5t-14 -27.5t-29 -29.5t-43 -11.5t-40.5 14.5t-24.5 31.5t-20.5 31.5t-27.5 14.5q-37 0 -57 -62q-3 -12 -15 -7zM76 13 v374q0 13 14 13h10q10 0 12 -10l4 -43q10 11 26 23t51 26t71 14q82 0 121.5 -48t39.5 -135v-214q0 -13 -13 -13h-18q-13 0 -13 13v214q0 69 -31 104.5t-88 35.5q-37 0 -72.5 -17.5t-49.5 -30.5t-21 -21v-285q0 -13 -13 -13h-19q-11 0 -11 13z"/>
<glyph glyph-name="ograve" horiz-adv-x="494" unicode="ò" d="M324 559l-172 79q-9 5 -4 15l10 20q2 5 9 5q4 0 8 -2l164 -90q9 -5 6 -14l-5 -10q-4 -8 -16 -3zM89 201q0 -71 45.5 -120.5t112.5 -49.5q66 0 111.5 49.5t45.5 120.5q0 69 -45.5 118t-111.5 49t-112 -49t-46 -118zM46 201q0 86 58.5 147.5t142.5 61.5t142.5 -61.5 t58.5 -147.5q0 -88 -58.5 -149.5t-142.5 -61.5t-142.5 61.5t-58.5 149.5z"/>
<glyph glyph-name="oacute" horiz-adv-x="494" unicode="ó" d="M168 558q-10 -4 -14 4l-6 13q-4 8 6 14l165 87q4 2 8 2q7 0 9 -5l10 -20q5 -11 -9 -18zM89 201q0 -71 45.5 -120.5t112.5 -49.5q66 0 111.5 49.5t45.5 120.5q0 69 -45.5 118t-111.5 49t-112 -49t-46 -118zM46 201q0 86 58.5 147.5t142.5 61.5t142.5 -61.5t58.5 -147.5 q0 -88 -58.5 -149.5t-142.5 -61.5t-142.5 61.5t-58.5 149.5z"/>
<glyph glyph-name="ocircumflex" horiz-adv-x="494" unicode="ô" d="M133 550q-9 -6 -15 2l-9 11q-5 7 4 14l121 98q5 5 10 5h3q5 0 10 -5l121 -98q9 -7 4 -14l-9 -11q-6 -8 -15 -2l-113 84zM89 201q0 -71 45.5 -120.5t112.5 -49.5q66 0 111.5 49.5t45.5 120.5q0 69 -45.5 118t-111.5 49t-112 -49t-46 -118zM46 201q0 86 58.5 147.5 t142.5 61.5t142.5 -61.5t58.5 -147.5q0 -88 -58.5 -149.5t-142.5 -61.5t-142.5 61.5t-58.5 149.5z"/>
<glyph glyph-name="otilde" horiz-adv-x="494" unicode="õ" d="M117 579l-12 5q-10 3 -6 14q24 61 57 78q17 8 36 8q24 0 41 -14t24.5 -31.5t19.5 -31.5t28 -14q37 0 57 59q4 13 15 7l11 -4q8 -4 6 -13q-2 -8 -6 -17.5t-14 -27.5t-29 -29.5t-43 -11.5t-40.5 14.5t-24.5 31.5t-20.5 31.5t-27.5 14.5q-37 0 -57 -62q-3 -12 -15 -7z M89 201q0 -71 45.5 -120.5t112.5 -49.5q66 0 111.5 49.5t45.5 120.5q0 69 -45.5 118t-111.5 49t-112 -49t-46 -118zM46 201q0 86 58.5 147.5t142.5 61.5t142.5 -61.5t58.5 -147.5q0 -88 -58.5 -149.5t-142.5 -61.5t-142.5 61.5t-58.5 149.5z"/>
<glyph glyph-name="odieresis" horiz-adv-x="494" unicode="ö" d="M150 596q-14 0 -24 9.5t-10 23.5q0 15 10 25t24 10q15 0 24.5 -10t9.5 -25q0 -14 -9.5 -23.5t-24.5 -9.5zM341 596q-14 0 -23.5 9.5t-9.5 23.5q0 15 9.5 25t23.5 10q15 0 25 -10t10 -25q0 -14 -10 -23.5t-25 -9.5zM89 201q0 -71 45.5 -120.5t112.5 -49.5q66 0 111.5 49.5 t45.5 120.5q0 69 -45.5 118t-111.5 49t-112 -49t-46 -118zM46 201q0 86 58.5 147.5t142.5 61.5t142.5 -61.5t58.5 -147.5q0 -88 -58.5 -149.5t-142.5 -61.5t-142.5 61.5t-58.5 149.5z"/>
<glyph glyph-name="divide" horiz-adv-x="585" unicode="÷" d="M248 190q0 16 12 28t29 12t28.5 -11.5t11.5 -28.5t-11.5 -29t-28.5 -12t-29 12.5t-12 28.5zM100 327q-13 0 -13 13v15q0 13 13 13h385q12 0 12 -13v-15q0 -13 -12 -13h-385zM289 463q-17 0 -29 12.5t-12 28.5t12 28t29 12t28.5 -11.5t11.5 -28.5t-11.5 -29t-28.5 -12z "/>
<glyph glyph-name="oslash" horiz-adv-x="493" unicode="ø" d="M138 78q45 -47 109 -47q66 0 111.5 49t45.5 120q0 54 -30 98zM118 102l236 220q-44 46 -107 46q-66 0 -111.5 -49t-45.5 -119q0 -55 28 -98zM69 36q-10 9 -1 18l18 18q-40 58 -40 128q0 86 58.5 148t142.5 62q80 0 138 -58l23 22q9 9 18 0l4 -4q11 -9 0 -18l-24 -24 q41 -57 41 -128q0 -88 -58 -149t-142 -61q-82 0 -140 58l-17 -17q-8 -9 -18 1z"/>
<glyph glyph-name="ugrave" d="M326 559l-172 79q-9 5 -4 15l10 20q2 5 9 5q4 0 8 -2l164 -90q9 -5 6 -14l-5 -10q-4 -8 -16 -3zM71 172v215q0 13 13 13h18q13 0 13 -13v-215q0 -69 30.5 -104.5t88.5 -35.5q37 0 70 18t45 31t17 21v285q0 13 13 13h18q13 0 13 -13v-374q0 -13 -13 -13h-12q-10 0 -12 12 l-4 39q-8 -11 -22.5 -23t-47 -25t-68.5 -13q-160 0 -160 182z" unicode="ù"/>
<glyph glyph-name="uacute" d="M170 558q-10 -4 -14 4l-6 13q-4 8 6 14l165 87q4 2 8 2q7 0 9 -5l10 -20q5 -11 -9 -18zM71 172v215q0 13 13 13h18q13 0 13 -13v-215q0 -69 30.5 -104.5t88.5 -35.5q37 0 70 18t45 31t17 21v285q0 13 13 13h18q13 0 13 -13v-374q0 -13 -13 -13h-12q-10 0 -12 12l-4 39 q-8 -11 -22.5 -23t-47 -25t-68.5 -13q-160 0 -160 182z" unicode="ú"/>
<glyph glyph-name="ucircumflex" d="M130 550q-9 -6 -15 2l-9 11q-5 7 4 14l121 98q5 5 10 5h3q5 0 10 -5l121 -98q9 -7 4 -14l-9 -11q-6 -8 -15 -2l-113 84zM71 172v215q0 13 13 13h18q13 0 13 -13v-215q0 -69 30.5 -104.5t88.5 -35.5q37 0 70 18t45 31t17 21v285q0 13 13 13h18q13 0 13 -13v-374 q0 -13 -13 -13h-12q-10 0 -12 12l-4 39q-8 -11 -22.5 -23t-47 -25t-68.5 -13q-160 0 -160 182z" unicode="û"/>
<glyph glyph-name="udieresis" d="M151 596q-14 0 -24 9.5t-10 23.5q0 15 10 25t24 10q15 0 24.5 -10t9.5 -25q0 -14 -9.5 -23.5t-24.5 -9.5zM342 596q-14 0 -23.5 9.5t-9.5 23.5q0 15 9.5 25t23.5 10q15 0 25 -10t10 -25q0 -14 -10 -23.5t-25 -9.5zM71 172v215q0 13 13 13h18q13 0 13 -13v-215 q0 -69 30.5 -104.5t88.5 -35.5q37 0 70 18t45 31t17 21v285q0 13 13 13h18q13 0 13 -13v-374q0 -13 -13 -13h-12q-10 0 -12 12l-4 39q-8 -11 -22.5 -23t-47 -25t-68.5 -13q-160 0 -160 182z" unicode="ü"/>
<glyph glyph-name="yacute" horiz-adv-x="443" unicode="ý" d="M149 558q-10 -4 -14 4l-6 13q-4 8 6 14l165 87q4 2 8 2q6 0 9 -5l10 -20q5 -11 -9 -18zM204 4l-189 380q-2 6 -2 8q0 8 8 8h22q9 0 13 -9l171 -338h2l156 338q5 9 13 9h22q8 0 8 -8q0 -2 -2 -8l-314 -676q-3 -8 -13 -8h-23q-13 0 -7 14z"/>
<glyph glyph-name="thorn" d="M120 80q2 -4 14.5 -14.5t40.5 -22t58 -11.5q72 0 117.5 47.5t45.5 119.5q0 71 -42.5 120.5t-109.5 49.5q-35 0 -65.5 -14t-42.5 -25.5t-16 -17.5v-232zM119 32v-319q0 -13 -13 -13h-17q-13 0 -13 13v974q0 13 14 13h16q13 0 13 -13v-324q56 47 128 47q82 0 137 -61.5 t55 -149.5q0 -90 -56.5 -149.5t-144.5 -59.5q-73 0 -119 42z" unicode="þ"/>
<glyph glyph-name="ydieresis" horiz-adv-x="443" unicode="ÿ" d="M132 596q-14 0 -24 9.5t-10 23.5q0 15 10 25t24 10q15 0 24.5 -10t9.5 -25q0 -14 -9.5 -23.5t-24.5 -9.5zM323 596q-14 0 -23.5 9.5t-9.5 23.5q0 15 9.5 25t23.5 10q15 0 25 -10t10 -25q0 -14 -10 -23.5t-25 -9.5zM204 4l-189 380q-2 6 -2 8q0 8 8 8h22q9 0 13 -9 l171 -338h2l156 338q5 9 13 9h22q8 0 8 -8q0 -2 -2 -8l-314 -676q-3 -8 -13 -8h-23q-13 0 -7 14z"/>
<glyph glyph-name="Amacron" horiz-adv-x="653" unicode="Ā" d="M195 831q-13 0 -13 13v12q0 13 13 13h272q13 0 13 -13v-12q0 -13 -13 -13h-272zM153 232h347l-171 403h-2zM13 0q-8 0 -8 7q0 3 1 5l308 696q4 7 12 7h3q9 0 13 -7l305 -696q1 -2 1 -5q0 -7 -10 -7h-26q-10 0 -14 9l-81 184h-382l-80 -184q-5 -9 -14 -9h-28z"/>
<glyph glyph-name="amacron" horiz-adv-x="427" unicode="ā" d="M76 595q-13 0 -13 12v13q0 13 13 13h272q13 0 13 -13v-13q0 -12 -13 -12h-272zM85 124q0 -43 26.5 -69t68.5 -26t79 20t54 42v110q-45 21 -101 21q-57 0 -92 -27t-35 -71zM44 123q0 59 45.5 97t122.5 38q52 0 101 -18q0 73 -16.5 102.5t-71.5 29.5q-19 0 -37 -2.5 t-31.5 -6.5t-24 -7.5t-18.5 -7t-9 -3.5q-11 -4 -15 8l-5 12q-4 11 6 15q5 3 18 9t47.5 13.5t71.5 7.5q36 0 60 -9t37.5 -22.5t20 -39t8 -46.5t1.5 -58v-222q0 -13 -13 -13h-12q-9 0 -12 11l-4 36q-62 -57 -139 -57q-57 0 -94 36.5t-37 96.5z"/>
<glyph glyph-name="Abreve" horiz-adv-x="653" unicode="Ă" d="M331 775q-51 0 -87.5 32t-43.5 79q-2 14 10 14h13q8 0 12 -12q9 -34 34.5 -56t61.5 -22q34 0 60.5 22.5t34.5 55.5q3 12 12 12h14q12 0 10 -14q-8 -48 -44.5 -79.5t-86.5 -31.5zM153 232h347l-171 403h-2zM13 0q-8 0 -8 7q0 3 1 5l308 696q4 7 12 7h3q9 0 13 -7l305 -696 q1 -2 1 -5q0 -7 -10 -7h-26q-10 0 -14 9l-81 184h-382l-80 -184q-5 -9 -14 -9h-28z"/>
<glyph glyph-name="abreve" horiz-adv-x="427" unicode="ă" d="M215 538q-50 0 -86.5 31.5t-44.5 78.5q-2 14 10 14h13q8 0 12 -11q8 -35 34 -57t62 -22q34 0 60.5 22.5t34.5 56.5q3 11 12 11h14q12 0 10 -14q-8 -47 -44.5 -78.5t-86.5 -31.5zM85 124q0 -43 26.5 -69t68.5 -26t79 20t54 42v110q-45 21 -101 21q-57 0 -92 -27t-35 -71z M44 123q0 59 45.5 97t122.5 38q52 0 101 -18q0 73 -16.5 102.5t-71.5 29.5q-19 0 -37 -2.5t-31.5 -6.5t-24 -7.5t-18.5 -7t-9 -3.5q-11 -4 -15 8l-5 12q-4 11 6 15q5 3 18 9t47.5 13.5t71.5 7.5q36 0 60 -9t37.5 -22.5t20 -39t8 -46.5t1.5 -58v-222q0 -13 -13 -13h-12 q-9 0 -12 11l-4 36q-62 -57 -139 -57q-57 0 -94 36.5t-37 96.5z"/>
<glyph glyph-name="Aogonek" horiz-adv-x="653" unicode="Ą" d="M153 232h347l-171 403h-2zM13 0q-8 0 -8 7q0 3 1 5l308 696q4 7 12 7h3q9 0 13 -7l305 -696q4 -12 -9 -12h-14q-66 -47 -66 -113q0 -32 21.5 -49.5t52.5 -17.5q29 0 62 15q11 6 13 -8l1 -10q1 -10 -8 -16q-29 -17 -73 -17q-46 0 -77 24.5t-31 73.5q0 32 17 61.5 t32.5 42.5t30.5 22l-82 185h-382l-80 -184q-5 -9 -14 -9h-28z"/>
<glyph glyph-name="aogonek" horiz-adv-x="427" unicode="ą" d="M85 124q0 -43 26.5 -69t68.5 -26t79 20t54 42v110q-45 21 -101 21q-57 0 -92 -27t-35 -71zM44 123q0 59 45.5 97t122.5 38q52 0 101 -18q0 73 -16.5 102.5t-71.5 29.5q-19 0 -37 -2.5t-31.5 -6.5t-24 -7.5t-18.5 -7t-9 -3.5q-11 -4 -15 8l-5 12q-4 11 6 15q5 3 18 9 t47.5 13.5t71.5 7.5q36 0 60 -9t37.5 -22.5t20 -39t8 -46.5t1.5 -58v-222q0 -13 -13 -13h-3q-66 -47 -66 -113q0 -32 21.5 -49.5t52.5 -17.5q29 0 62 15q11 6 13 -8l1 -10q1 -10 -8 -16q-29 -17 -73 -17q-46 0 -77 24.5t-31 73.5q0 34 19 64.5t35.5 43.5t29.5 20l-4 37 q-62 -57 -139 -57q-57 0 -94 36.5t-37 96.5z"/>
<glyph glyph-name="Cacute" horiz-adv-x="718" unicode="Ć" d="M350 782q-12 -5 -16 3l-5 10q-3 9 6 14l164 90q4 2 8 2q7 0 9 -5l10 -20q5 -10 -4 -15zM56 349q0 150 106 255.5t256 105.5q141 0 243 -93q4 -4 4 -10q0 -5 -3 -8l-16 -17q-8 -8 -17 1q-92 82 -211 82q-131 0 -221.5 -93t-90.5 -223t90.5 -222t221.5 -92q110 0 211 84 q9 7 16 2l17 -17q4 -4 4 -8q0 -5 -4 -9q-100 -97 -244 -97q-150 0 -256 104.5t-106 254.5z"/>
<glyph glyph-name="cacute" horiz-adv-x="459" unicode="ć" d="M175 558q-10 -4 -14 4l-6 13q-4 8 6 14l165 87q4 2 8 2q6 0 9 -5l10 -20q5 -11 -9 -18zM46 200q0 89 62 149.5t148 60.5q52 0 91 -20t57 -43q8 -10 -2 -18l-10 -10q-10 -9 -21 2q-13 15 -43.5 30.5t-71.5 15.5q-69 0 -117 -47.5t-48 -118.5q0 -72 48 -120.5t116 -48.5 q71 0 125 59q10 11 19 2l11 -10q5 -5 5 -10q0 -2 -2 -6q-16 -25 -59 -51t-98 -26q-86 0 -148 60.5t-62 149.5z"/>
<glyph glyph-name="Ccircumflex" horiz-adv-x="718" unicode="Ĉ" d="M305 768q-9 -6 -15 2l-9 11q-5 7 4 14l121 98q5 5 10 5h3q5 0 10 -5l121 -98q9 -7 4 -14l-9 -11q-6 -8 -15 -2l-113 84zM56 349q0 150 106 255.5t256 105.5q141 0 243 -93q4 -4 4 -10q0 -5 -3 -8l-16 -17q-8 -8 -17 1q-92 82 -211 82q-131 0 -221.5 -93t-90.5 -223 t90.5 -222t221.5 -92q110 0 211 84q9 7 16 2l17 -17q4 -4 4 -8q0 -5 -4 -9q-100 -97 -244 -97q-150 0 -256 104.5t-106 254.5z"/>
<glyph glyph-name="ccircumflex" horiz-adv-x="459" unicode="ĉ" d="M138 550q-9 -6 -15 2l-9 11q-5 7 4 14l121 98q5 5 10 5h3q5 0 10 -5l121 -98q9 -7 4 -14l-9 -11q-6 -8 -15 -2l-113 84zM46 200q0 89 62 149.5t148 60.5q52 0 91 -20t57 -43q8 -10 -2 -18l-10 -10q-10 -9 -21 2q-13 15 -43.5 30.5t-71.5 15.5q-69 0 -117 -47.5 t-48 -118.5q0 -72 48 -120.5t116 -48.5q71 0 125 59q10 11 19 2l11 -10q5 -5 5 -10q0 -2 -2 -6q-16 -25 -59 -51t-98 -26q-86 0 -148 60.5t-62 149.5z"/>
<glyph glyph-name="Cdotaccent" horiz-adv-x="718" unicode="Ċ" d="M418 810q-16 0 -27 11t-11 27t11 27t27 11t27 -11t11 -27t-11 -27t-27 -11zM56 349q0 150 106 255.5t256 105.5q141 0 243 -93q4 -4 4 -10q0 -5 -3 -8l-16 -17q-8 -8 -17 1q-92 82 -211 82q-131 0 -221.5 -93t-90.5 -223t90.5 -222t221.5 -92q110 0 211 84q9 7 16 2 l17 -17q4 -4 4 -8q0 -5 -4 -9q-100 -97 -244 -97q-150 0 -256 104.5t-106 254.5z"/>
<glyph glyph-name="cdotaccent" horiz-adv-x="459" unicode="ċ" d="M253 582q-16 0 -27 11.5t-11 26.5q0 16 11 27t27 11t27 -11t11 -27q0 -15 -11 -26.5t-27 -11.5zM46 200q0 89 62 149.5t148 60.5q52 0 91 -20t57 -43q8 -10 -2 -18l-10 -10q-10 -9 -21 2q-13 15 -43.5 30.5t-71.5 15.5q-69 0 -117 -47.5t-48 -118.5q0 -72 48 -120.5 t116 -48.5q71 0 125 59q10 11 19 2l11 -10q5 -5 5 -10q0 -2 -2 -6q-16 -25 -59 -51t-98 -26q-86 0 -148 60.5t-62 149.5z"/>
<glyph glyph-name="Ccaron" horiz-adv-x="718" unicode="Č" d="M417 763q-5 0 -10 5l-121 98q-9 7 -4 14l9 11q3 5 8 5q3 0 7 -3l113 -84l112 84q5 3 7 3q5 0 8 -5l9 -11q5 -7 -4 -14l-121 -98q-5 -5 -10 -5h-3zM56 349q0 150 106 255.5t256 105.5q141 0 243 -93q4 -4 4 -10q0 -5 -3 -8l-16 -17q-8 -8 -17 1q-92 82 -211 82 q-131 0 -221.5 -93t-90.5 -223t90.5 -222t221.5 -92q110 0 211 84q9 7 16 2l17 -17q4 -4 4 -8q0 -5 -4 -9q-100 -97 -244 -97q-150 0 -256 104.5t-106 254.5z"/>
<glyph glyph-name="ccaron" horiz-adv-x="459" unicode="č" d="M250 545q-5 0 -10 5l-121 98q-9 7 -4 14l9 11q3 5 8 5q2 0 7 -3l113 -84l112 84q5 3 7 3q5 0 8 -5l9 -11q5 -7 -4 -14l-121 -98q-5 -5 -10 -5h-3zM46 200q0 89 62 149.5t148 60.5q52 0 91 -20t57 -43q8 -10 -2 -18l-10 -10q-10 -9 -21 2q-13 15 -43.5 30.5t-71.5 15.5 q-69 0 -117 -47.5t-48 -118.5q0 -72 48 -120.5t116 -48.5q71 0 125 59q10 11 19 2l11 -10q5 -5 5 -10q0 -2 -2 -6q-16 -25 -59 -51t-98 -26q-86 0 -148 60.5t-62 149.5z"/>
<glyph glyph-name="Dcaron" horiz-adv-x="738" unicode="Ď" d="M322 763q-5 0 -10 5l-121 98q-9 7 -4 14l9 11q3 5 8 5q2 0 7 -3l113 -84l112 84q5 3 7 3q5 0 8 -5l9 -11q5 -7 -4 -14l-121 -98q-5 -5 -10 -5h-3zM153 43h169q131 0 220.5 88.5t89.5 219.5q0 130 -89.5 218t-220.5 88h-169v-614zM106 13v674q0 5 3.5 9t8.5 4h212 q145 0 248.5 -102.5t103.5 -246.5q0 -146 -103 -248.5t-249 -102.5h-212q-5 0 -8.5 4t-3.5 9z"/>
<glyph glyph-name="dcaron" horiz-adv-x="516" unicode="ď" d="M524 477l-8 10q-7 8 4 16q51 41 56 95v8q0 17 -5 30q-8 -5 -16 -5q-19 0 -29.5 11.5t-10.5 28.5q0 18 11.5 28.5t30.5 10.5q24 0 40 -23.5t16 -70.5q0 -52 -24.5 -89t-47.5 -50q-12 -7 -17 0zM91 200q0 -71 41 -120.5t103 -49.5q39 0 72 18t44.5 32t15.5 21v224 q-5 5 -14.5 12t-41 18.5t-63.5 11.5q-69 0 -113 -47.5t-44 -119.5zM47 200q0 89 56 149.5t141 60.5q34 0 64.5 -10t44.5 -20l14 -10v317q0 13 13 13h18q5 0 8.5 -4t3.5 -9v-674q0 -13 -13 -13h-10q-13 0 -14 13l-3 35q-54 -58 -138 -58q-78 0 -131.5 61t-53.5 149z"/>
<glyph glyph-name="Dcroat" horiz-adv-x="741" unicode="Đ" d="M156 43h169q131 0 220 88.5t89 219.5q0 130 -89 218t-220 88h-169v-294h250q13 0 13 -13v-6q0 -12 -13 -12h-250v-289zM109 13v319h-35q-12 0 -12 13v5q0 13 12 13h35v324q0 13 12 13h212q145 0 248.5 -102.5t103.5 -246.5q0 -146 -103 -248.5t-249 -102.5h-212 q-12 0 -12 13z"/>
<glyph glyph-name="dcroat" d="M91 200q0 -71 41 -120.5t103 -49.5q39 0 72 18t44.5 32t15.5 21v224q-5 5 -14.5 12t-41 18.5t-63.5 11.5q-69 0 -113 -47.5t-44 -119.5zM47 200q0 89 56 149.5t141 60.5q34 0 64.5 -10t44.5 -20l14 -10v172h-191q-13 0 -13 13v5q0 13 13 13h191v114q0 13 14 13h17 q5 0 8.5 -4t3.5 -9v-114h39q12 0 12 -15v-3q0 -13 -12 -13h-39v-529q0 -13 -13 -13h-10q-13 0 -14 13l-3 36q-9 -10 -24 -22t-47 -24.5t-67 -12.5q-78 0 -131.5 61t-53.5 149z" unicode="đ"/>
<glyph glyph-name="Emacron" horiz-adv-x="598" unicode="Ē" d="M190 831q-13 0 -13 13v12q0 13 13 13h272q13 0 13 -13v-12q0 -13 -13 -13h-272zM106 13v674q0 13 13 13h401q13 0 13 -13v-17q0 -13 -13 -13h-366v-276h317q13 0 13 -13v-17q0 -13 -13 -13h-317v-296h366q13 0 13 -13v-16q0 -13 -13 -13h-401q-13 0 -13 13z"/>
<glyph glyph-name="emacron" horiz-adv-x="467" unicode="ē" d="M108 595q-13 0 -13 12v13q0 13 13 13h272q13 0 13 -13v-13q0 -12 -13 -12h-272zM92 224h289q0 62 -36 104t-101 42t-106.5 -41.5t-45.5 -104.5zM47 201q0 88 54 148.5t143 60.5q79 0 130 -51.5t51 -131.5q0 -39 -15 -39h-319q3 -66 46.5 -112t109.5 -46q63 0 118 37 q12 8 18 0l10 -14q5 -7 -4 -16q-17 -17 -59.5 -32t-85.5 -15q-89 0 -143 60.5t-54 150.5z"/>
<glyph glyph-name="Ebreve" horiz-adv-x="598" unicode="Ĕ" d="M315 775q-51 0 -87.5 32t-43.5 79q-2 14 10 14h13q8 0 12 -12q9 -34 34.5 -56t61.5 -22q34 0 60.5 22.5t34.5 55.5q3 12 12 12h14q12 0 10 -14q-8 -48 -44.5 -79.5t-86.5 -31.5zM106 13v674q0 13 13 13h401q13 0 13 -13v-17q0 -13 -13 -13h-366v-276h317q13 0 13 -13v-17 q0 -13 -13 -13h-317v-296h366q13 0 13 -13v-16q0 -13 -13 -13h-401q-13 0 -13 13z"/>
<glyph glyph-name="ebreve" horiz-adv-x="467" unicode="ĕ" d="M244 538q-50 0 -86.5 31.5t-44.5 78.5q-2 14 10 14h13q8 0 12 -11q8 -35 34 -57t62 -22q34 0 60.5 22.5t34.5 56.5q3 11 12 11h14q12 0 10 -14q-8 -47 -44.5 -78.5t-86.5 -31.5zM92 224h289q0 62 -36 104t-101 42t-106.5 -41.5t-45.5 -104.5zM47 201q0 88 54 148.5 t143 60.5q79 0 130 -51.5t51 -131.5q0 -39 -15 -39h-319q3 -66 46.5 -112t109.5 -46q63 0 118 37q12 8 18 0l10 -14q5 -7 -4 -16q-17 -17 -59.5 -32t-85.5 -15q-89 0 -143 60.5t-54 150.5z"/>
<glyph glyph-name="Edotaccent" horiz-adv-x="598" unicode="Ė" d="M316 810q-16 0 -27 11t-11 27t11 27t27 11t27 -11t11 -27t-11 -27t-27 -11zM106 13v674q0 13 13 13h401q13 0 13 -13v-17q0 -13 -13 -13h-366v-276h317q13 0 13 -13v-17q0 -13 -13 -13h-317v-296h366q13 0 13 -13v-16q0 -13 -13 -13h-401q-13 0 -13 13z"/>
<glyph glyph-name="edotaccent" horiz-adv-x="467" unicode="ė" d="M246 582q-16 0 -27 11.5t-11 26.5q0 16 11 27t27 11t27 -11t11 -27q0 -15 -11 -26.5t-27 -11.5zM92 224h289q0 62 -36 104t-101 42t-106.5 -41.5t-45.5 -104.5zM47 201q0 88 54 148.5t143 60.5q79 0 130 -51.5t51 -131.5q0 -39 -15 -39h-319q3 -66 46.5 -112t109.5 -46 q63 0 118 37q12 8 18 0l10 -14q5 -7 -4 -16q-17 -17 -59.5 -32t-85.5 -15q-89 0 -143 60.5t-54 150.5z"/>
<glyph glyph-name="Eogonek" horiz-adv-x="598" unicode="Ę" d="M106 13v674q0 13 13 13h401q13 0 13 -13v-17q0 -13 -13 -13h-366v-276h317q13 0 13 -13v-17q0 -13 -13 -13h-317v-296h366q13 0 13 -13v-11q0 -9 -14 -18q-66 -47 -66 -113q0 -32 21.5 -49.5t52.5 -17.5q29 0 62 15q11 6 13 -8l1 -10q1 -10 -8 -16q-29 -17 -73 -17 q-46 0 -77 24.5t-31 73.5q0 72 67 118h-362q-13 0 -13 13z"/>
<glyph glyph-name="eogonek" horiz-adv-x="469" unicode="ę" d="M93 224h289q0 62 -36 104t-101 42t-106.5 -41.5t-45.5 -104.5zM168 -118q0 63 55 109q-80 7 -127.5 66.5t-47.5 143.5q0 88 54 148.5t143 60.5q79 0 130 -51.5t51 -131.5q0 -39 -15 -39h-319q3 -66 46.5 -112t109.5 -46q62 0 118 37q12 8 18 0l10 -14q5 -7 -4 -16 q-15 -15 -52.5 -29t-77.5 -17q-53 -46 -53 -104q0 -32 21.5 -49.5t52.5 -17.5q29 0 62 15q11 6 13 -8l1 -10q1 -10 -8 -16q-29 -17 -73 -17q-46 0 -77 24.5t-31 73.5z"/>
<glyph glyph-name="Ecaron" horiz-adv-x="598" unicode="Ě" d="M313 763q-5 0 -10 5l-121 98q-9 7 -4 14l9 11q3 5 8 5q3 0 7 -3l113 -84l112 84q5 3 7 3q5 0 8 -5l9 -11q5 -7 -4 -14l-121 -98q-5 -5 -10 -5h-3zM106 13v674q0 13 13 13h401q13 0 13 -13v-17q0 -13 -13 -13h-366v-276h317q13 0 13 -13v-17q0 -13 -13 -13h-317v-296h366 q13 0 13 -13v-16q0 -13 -13 -13h-401q-13 0 -13 13z"/>
<glyph glyph-name="ecaron" horiz-adv-x="467" unicode="ě" d="M244 545q-5 0 -10 5l-121 98q-9 7 -4 14l9 11q3 5 8 5q2 0 7 -3l113 -84l112 84q5 3 7 3q5 0 8 -5l9 -11q5 -7 -4 -14l-121 -98q-5 -5 -10 -5h-3zM92 224h289q0 62 -36 104t-101 42t-106.5 -41.5t-45.5 -104.5zM47 201q0 88 54 148.5t143 60.5q79 0 130 -51.5t51 -131.5 q0 -39 -15 -39h-319q3 -66 46.5 -112t109.5 -46q63 0 118 37q12 8 18 0l10 -14q5 -7 -4 -16q-17 -17 -59.5 -32t-85.5 -15q-89 0 -143 60.5t-54 150.5z"/>
<glyph glyph-name="Gcircumflex" horiz-adv-x="743" unicode="Ĝ" d="M304 768q-9 -6 -15 2l-9 11q-5 7 4 14l121 98q5 5 10 5h3q5 0 10 -5l121 -98q9 -7 4 -14l-9 -11q-6 -8 -15 -2l-113 84zM56 349q0 150 105.5 255.5t256.5 105.5q140 0 242 -93q10 -9 1 -18q-5 -6 -16 -17q-8 -9 -17 0q-90 84 -211 84q-130 0 -220.5 -92.5t-90.5 -222.5 t90.5 -222.5t220.5 -92.5q55 0 105.5 13t72 24t30.5 18v188h-171q-13 0 -13 13v20q0 12 13 12h205q5 0 9 -3.5t4 -8.5v-232q0 -16 -14 -26q-16 -10 -41 -22.5t-82.5 -27t-116.5 -14.5q-151 0 -256.5 104.5t-105.5 254.5z"/>
<glyph glyph-name="gcircumflex" horiz-adv-x="462" unicode="ĝ" d="M134 550q-9 -6 -15 2l-9 11q-5 7 4 14l121 98q5 5 10 5h3q5 0 10 -5l121 -98q9 -7 4 -14l-9 -11q-6 -8 -15 -2l-113 84zM94 -157q0 -44 40.5 -78t109.5 -34q67 0 113 35t46 86q0 38 -25 63t-77 25h-126q-8 -1 -25.5 -10t-36.5 -32.5t-19 -54.5zM238 114q55 0 89 36.5 t34 91.5q0 60 -35.5 94t-87.5 34q-57 0 -92 -36.5t-35 -91.5t33.5 -91.5t93.5 -36.5zM35 34q0 30 15.5 56t27.5 35.5t23 15.5q-31 39 -31 100q0 73 48 121t127 48h164q13 0 13 -13v-11q0 -10 -9 -12l-72 -5q13 -7 25 -19t24.5 -41.5t12.5 -67.5q0 -69 -46 -117.5t-120 -48.5 q-76 0 -109 36q-7 -3 -17 -9.5t-22 -24t-12 -38.5q0 -58 79 -58h145q68 0 108 -32t40 -96q0 -66 -57.5 -114.5t-146.5 -48.5q-94 0 -144.5 45t-50.5 103q0 66 63 105q-24 5 -51 28.5t-27 62.5z"/>
<glyph glyph-name="Gbreve" horiz-adv-x="743" unicode="Ğ" d="M418 775q-51 0 -87.5 32t-43.5 79q-2 14 10 14h13q8 0 12 -12q9 -34 34.5 -56t61.5 -22q34 0 60.5 22.5t34.5 55.5q3 12 12 12h14q12 0 10 -14q-8 -48 -44.5 -79.5t-86.5 -31.5zM56 349q0 150 105.5 255.5t256.5 105.5q140 0 242 -93q10 -9 1 -18q-5 -6 -16 -17 q-8 -9 -17 0q-90 84 -211 84q-130 0 -220.5 -92.5t-90.5 -222.5t90.5 -222.5t220.5 -92.5q55 0 105.5 13t72 24t30.5 18v188h-171q-13 0 -13 13v20q0 12 13 12h205q5 0 9 -3.5t4 -8.5v-232q0 -16 -14 -26q-16 -10 -41 -22.5t-82.5 -27t-116.5 -14.5q-151 0 -256.5 104.5 t-105.5 254.5z"/>
<glyph glyph-name="gbreve" horiz-adv-x="462" unicode="ğ" d="M255 538q-50 0 -86.5 31.5t-44.5 78.5q-2 14 10 14h13q8 0 12 -11q8 -35 34 -57t62 -22q34 0 60.5 22.5t34.5 56.5q3 11 12 11h14q12 0 10 -14q-8 -47 -44.5 -78.5t-86.5 -31.5zM94 -157q0 -44 40.5 -78t109.5 -34q67 0 113 35t46 86q0 38 -25 63t-77 25h-126 q-8 -1 -25.5 -10t-36.5 -32.5t-19 -54.5zM238 114q55 0 89 36.5t34 91.5q0 60 -35.5 94t-87.5 34q-57 0 -92 -36.5t-35 -91.5t33.5 -91.5t93.5 -36.5zM35 34q0 30 15.5 56t27.5 35.5t23 15.5q-31 39 -31 100q0 73 48 121t127 48h164q13 0 13 -13v-11q0 -10 -9 -12l-72 -5 q13 -7 25 -19t24.5 -41.5t12.5 -67.5q0 -69 -46 -117.5t-120 -48.5q-76 0 -109 36q-7 -3 -17 -9.5t-22 -24t-12 -38.5q0 -58 79 -58h145q68 0 108 -32t40 -96q0 -66 -57.5 -114.5t-146.5 -48.5q-94 0 -144.5 45t-50.5 103q0 66 63 105q-24 5 -51 28.5t-27 62.5z"/>
<glyph glyph-name="Gdotaccent" horiz-adv-x="743" unicode="Ġ" d="M417 810q-16 0 -27 11t-11 27t11 27t27 11t27 -11t11 -27t-11 -27t-27 -11zM56 349q0 150 105.5 255.5t256.5 105.5q140 0 242 -93q10 -9 1 -18q-5 -6 -16 -17q-8 -9 -17 0q-90 84 -211 84q-130 0 -220.5 -92.5t-90.5 -222.5t90.5 -222.5t220.5 -92.5q55 0 105.5 13 t72 24t30.5 18v188h-171q-13 0 -13 13v20q0 12 13 12h205q5 0 9 -3.5t4 -8.5v-232q0 -16 -14 -26q-16 -10 -41 -22.5t-82.5 -27t-116.5 -14.5q-151 0 -256.5 104.5t-105.5 254.5z"/>
<glyph glyph-name="gdotaccent" horiz-adv-x="462" unicode="ġ" d="M252 582q-16 0 -27 11.5t-11 26.5q0 16 11 27t27 11t27 -11t11 -27q0 -15 -11 -26.5t-27 -11.5zM94 -157q0 -44 40.5 -78t109.5 -34q67 0 113 35t46 86q0 38 -25 63t-77 25h-126q-8 -1 -25.5 -10t-36.5 -32.5t-19 -54.5zM238 114q55 0 89 36.5t34 91.5q0 60 -35.5 94 t-87.5 34q-57 0 -92 -36.5t-35 -91.5t33.5 -91.5t93.5 -36.5zM35 34q0 30 15.5 56t27.5 35.5t23 15.5q-31 39 -31 100q0 73 48 121t127 48h164q13 0 13 -13v-11q0 -10 -9 -12l-72 -5q13 -7 25 -19t24.5 -41.5t12.5 -67.5q0 -69 -46 -117.5t-120 -48.5q-76 0 -109 36 q-7 -3 -17 -9.5t-22 -24t-12 -38.5q0 -58 79 -58h145q68 0 108 -32t40 -96q0 -66 -57.5 -114.5t-146.5 -48.5q-94 0 -144.5 45t-50.5 103q0 66 63 105q-24 5 -51 28.5t-27 62.5z"/>
<glyph glyph-name="Gcommaaccent" horiz-adv-x="743" unicode="Ģ" d="M373 -141q0 18 11.5 28.5t30.5 10.5q24 0 40 -23.5t16 -70.5q0 -52 -24.5 -89t-47.5 -50q-6 -3 -10 -3t-7 3l-8 10q-7 8 4 16q51 41 56 95v8q0 17 -5 30q-8 -5 -16 -5q-19 0 -29.5 11.5t-10.5 28.5zM56 349q0 150 105.5 255.5t256.5 105.5q140 0 242 -93q10 -9 1 -18 q-5 -6 -16 -17q-8 -9 -17 0q-90 84 -211 84q-130 0 -220.5 -92.5t-90.5 -222.5t90.5 -222.5t220.5 -92.5q55 0 105.5 13t72 24t30.5 18v188h-171q-13 0 -13 13v20q0 12 13 12h205q5 0 9 -3.5t4 -8.5v-232q0 -16 -14 -26q-16 -10 -41 -22.5t-82.5 -27t-116.5 -14.5 q-151 0 -256.5 104.5t-105.5 254.5z"/>
<glyph glyph-name="gcommaaccent" horiz-adv-x="462" unicode="ģ" d="M94 -157q0 -44 40.5 -78t109.5 -34q67 0 113 35t46 86q0 38 -25 63t-77 25h-126q-8 -1 -25.5 -10t-36.5 -32.5t-19 -54.5zM238 114q55 0 89 36.5t34 91.5q0 60 -35.5 94t-87.5 34q-57 0 -92 -36.5t-35 -91.5t33.5 -91.5t93.5 -36.5zM35 34q0 30 15.5 56t27.5 35.5 t23 15.5q-31 39 -31 100q0 73 48 121t127 48h164q13 0 13 -13v-11q0 -10 -9 -12l-72 -5q13 -7 25 -19t24.5 -41.5t12.5 -67.5q0 -69 -46 -117.5t-120 -48.5q-76 0 -109 36q-7 -3 -17 -9.5t-22 -24t-12 -38.5q0 -58 79 -58h145q68 0 108 -32t40 -96q0 -66 -57.5 -114.5 t-146.5 -48.5q-94 0 -144.5 45t-50.5 103q0 66 63 105q-24 5 -51 28.5t-27 62.5zM248 538q-24 0 -40 23.5t-16 70.5q0 52 24.5 89t47.5 50q6 3 10 3t7 -3l8 -10q2 -2 2 -6q0 -5 -6 -10q-51 -41 -56 -95v-8q0 -17 5 -30q8 5 16 5q19 0 29.5 -11.5t10.5 -28.5 q0 -18 -11.5 -28.5t-30.5 -10.5z"/>
<glyph glyph-name="Hcircumflex" horiz-adv-x="755" unicode="Ĥ" d="M273 768q-9 -6 -15 2l-9 11q-5 7 4 14l121 98q5 5 10 5h3q5 0 10 -5l121 -98q9 -7 4 -14l-9 -11q-6 -8 -15 -2l-113 84zM106 13v674q0 13 13 13h21q13 0 13 -13v-307h449v307q0 13 13 13h21q13 0 13 -13v-674q0 -13 -13 -13h-21q-13 0 -13 13v325h-449v-325 q0 -13 -13 -13h-21q-13 0 -13 13z"/>
<glyph glyph-name="hcircumflex" horiz-adv-x="495" unicode="ĥ" d="M-14 767q-9 -6 -15 2l-9 11q-2 4 -2 5q0 3 6 9l121 98q5 5 10 5h3q5 0 10 -5l121 -98q9 -7 4 -14l-9 -11q-6 -8 -15 -2l-113 84zM76 13v674q0 13 14 13h16q13 0 13 -13v-341q64 64 145 64q78 0 119.5 -47t41.5 -136v-214q0 -13 -13 -13h-18q-13 0 -13 13v214 q0 69 -31 104.5t-88 35.5q-37 0 -73 -18t-49.5 -30.5t-20.5 -21.5v-284q0 -13 -13 -13h-19q-11 0 -11 13z"/>
<glyph glyph-name="Hbar" horiz-adv-x="756" unicode="Ħ" d="M153 381h449v161h-449v-161zM106 13v529h-26q-12 0 -12 14v4q0 13 12 13h26v114q0 13 13 13h21q13 0 13 -13v-114h449v114q0 13 23 13h12q13 0 13 -13v-114h26q13 0 13 -15v-4q0 -12 -13 -12h-26v-529q0 -13 -13 -13h-12q-23 0 -23 13v325h-449v-325q0 -13 -16 -13h-18 q-13 0 -13 13z"/>
<glyph glyph-name="hbar" horiz-adv-x="495" unicode="ħ" d="M76 13v529h-39q-12 0 -12 14v4q0 13 12 13h39v114q0 13 13 13h17q13 0 13 -13v-114h191q13 0 13 -15v-4q0 -5 -4 -8.5t-9 -3.5h-191v-196q64 64 145 64q78 0 119.5 -47t41.5 -136v-214q0 -13 -13 -13h-18q-13 0 -13 13v214q0 69 -31 104.5t-88 35.5q-37 0 -73 -18 t-49.5 -30.5t-20.5 -21.5v-284q0 -13 -14 -13h-16q-13 0 -13 13z"/>
<glyph glyph-name="Itilde" horiz-adv-x="260" unicode="Ĩ" d="M-3 799l-12 5q-7 4 -7 10v2q1 1 1 2q24 61 57 78q17 8 36 8q24 0 41 -14t24.5 -31.5t19.5 -31.5t28 -14q37 0 57 59q4 13 15 7l11 -4q7 -5 7 -9l-1 -2v-2q-2 -8 -6 -17.5t-14 -27.5t-29 -29.5t-43 -11.5t-40.5 14.5t-24.5 31.5t-20.5 31.5t-27.5 14.5q-37 0 -57 -62 q-3 -12 -15 -7zM105 13v674q0 13 13 13h22q13 0 13 -13v-674q0 -13 -14 -13h-21q-13 0 -13 13z"/>
<glyph glyph-name="itilde" horiz-adv-x="196" unicode="ĩ" d="M75 13v374q0 13 13 13h18q13 0 13 -13v-374q0 -13 -14 -13h-17q-13 0 -13 13zM-33 579l-12 5q-7 4 -7 10v2q1 1 1 2q24 61 57 78q17 8 36 8q24 0 41 -14t24.5 -31.5t19.5 -31.5t28 -14q37 0 57 59q4 13 15 7l11 -4q7 -5 7 -9l-1 -2v-2q-2 -8 -6 -17.5t-14 -27.5 t-29 -29.5t-43 -11.5t-40.5 14.5t-24.5 31.5t-20.5 31.5t-27.5 14.5q-37 0 -57 -62q-3 -12 -15 -7z"/>
<glyph glyph-name="Imacron" horiz-adv-x="260" unicode="Ī" d="M-6 831q-13 0 -13 13v12q0 13 13 13h272q13 0 13 -13v-12q0 -13 -13 -13h-272zM106 13v674q0 13 13 13h22q13 0 13 -13v-674q0 -13 -14 -13h-21q-13 0 -13 13z"/>
<glyph glyph-name="imacron" horiz-adv-x="196" unicode="ī" d="M76 13v374q0 13 13 13h18q13 0 13 -13v-374q0 -13 -14 -13h-17q-13 0 -13 13zM-37 595q-13 0 -13 12v13q0 13 13 13h272q13 0 13 -13v-13q0 -12 -13 -12h-272z"/>
<glyph glyph-name="Ibreve" horiz-adv-x="260" unicode="Ĭ" d="M130 775q-50 0 -90.5 33.5t-40.5 80.5q0 11 10 11h13q8 0 12 -12q9 -34 34.5 -56t61.5 -22q34 0 60.5 22.5t34.5 55.5q3 12 12 12h14q10 0 10 -12q0 -47 -41.5 -80t-89.5 -33zM106 13v674q0 13 13 13h22q13 0 13 -13v-674q0 -13 -14 -13h-21q-13 0 -13 13z"/>
<glyph glyph-name="ibreve" horiz-adv-x="196" unicode="ĭ" d="M76 13v374q0 13 13 13h18q13 0 13 -13v-374q0 -13 -14 -13h-17q-13 0 -13 13zM99 538q-49 0 -90 33.5t-41 79.5q0 11 10 11h13q8 0 12 -11q8 -35 34 -57t62 -22q34 0 60.5 22.5t34.5 56.5q3 11 12 11h14q10 0 10 -12q0 -46 -41.5 -79t-89.5 -33z"/>
<glyph glyph-name="Iogonek" horiz-adv-x="261" unicode="Į" d="M107 11v676q0 13 13 13h22q13 0 13 -13v-674q0 -13 -14 -13h-15q-66 -47 -66 -113q0 -32 21.5 -49.5t52.5 -17.5q29 0 62 15q11 6 13 -8l1 -10q1 -10 -8 -16q-29 -17 -73 -17q-46 0 -77 24.5t-31 73.5q0 36 20.5 67.5t37.5 44t28 17.5z"/>
<glyph glyph-name="iogonek" horiz-adv-x="197" unicode="į" d="M77 11v376q0 13 13 13h18q13 0 13 -13v-374q0 -13 -13 -13h-11q-66 -47 -66 -113q0 -32 21.5 -49.5t52.5 -17.5q29 0 62 15q11 6 13 -8l1 -10q1 -10 -8 -16q-29 -17 -73 -17q-46 0 -77 24.5t-31 73.5q0 27 11 51.5t27 40.5t27.5 24.5t19.5 12.5zM99 596q-14 0 -24 9.5 t-10 23.5t10 24.5t24 10.5t24 -10.5t10 -24.5t-10 -23.5t-24 -9.5z"/>
<glyph glyph-name="Idotaccent" horiz-adv-x="260" unicode="İ" d="M129 810q-16 0 -27 11t-11 27t11 27t27 11t27 -11t11 -27t-11 -27t-27 -11zM106 13v674q0 13 13 13h22q13 0 13 -13v-674q0 -13 -14 -13h-21q-13 0 -13 13z"/>
<glyph glyph-name="dotlessi" horiz-adv-x="196" unicode="ı" d="M76 13v374q0 13 13 13h18q13 0 13 -13v-374q0 -13 -14 -13h-17q-13 0 -13 13z"/>
<glyph glyph-name="IJ" horiz-adv-x="660" unicode="Ĳ" d="M244 65q-6 10 1 17l13 12q8 8 17 0q20 -20 28.5 -28t36.5 -21t58 -13q66 0 106 45.5t40 132.5v477q0 13 14 13h20q13 0 13 -13v-476q0 -104 -52 -162.5t-142 -58.5q-92 0 -153 75zM106 13v674q0 13 13 13h22q13 0 13 -13v-674q0 -13 -14 -13h-21q-13 0 -13 13z"/>
<glyph glyph-name="ij" horiz-adv-x="432" unicode="ĳ" d="M313 -137v524q0 13 13 13h17q13 0 13 -13v-524q0 -86 -39 -129.5t-107 -43.5q-35 0 -65.5 13.5t-46.5 29.5q-7 7 -2 14l10 16q7 10 17 0q43 -33 87 -33q103 0 103 133zM334 596q-14 0 -24 9.5t-10 23.5t10 24.5t24 10.5t24 -10.5t10 -24.5t-10 -23.5t-24 -9.5zM76 13v374 q0 13 13 13h18q13 0 13 -13v-374q0 -13 -13 -13h-20q-11 0 -11 13zM98 596q-14 0 -24 9.5t-10 23.5t10 24.5t24 10.5t24 -10.5t10 -24.5t-10 -23.5t-24 -9.5z"/>
<glyph glyph-name="Jcircumflex" horiz-adv-x="392" unicode="Ĵ" d="M185 768q-9 -6 -15 2l-9 11q-5 7 4 14l121 98q5 5 10 5h3q5 0 10 -5l121 -98q6 -6 6 -9q0 -1 -2 -5l-9 -11q-6 -8 -15 -2l-113 84zM-25 65q-3 5 -3 8q0 5 4 9l13 12q9 8 17 0q20 -20 28.5 -28t36.5 -21t58 -13q66 0 106 45.5t40 132.5v477q0 13 14 13h20q13 0 13 -13 v-476q0 -104 -52 -162.5t-142 -58.5q-92 0 -153 75z"/>
<glyph glyph-name="jcircumflex" horiz-adv-x="195" unicode="ĵ" d="M-15 550q-9 -6 -15 2l-9 11q-5 7 4 14l121 98q5 5 10 5h3q5 0 10 -5l121 -98q6 -6 6 -9q0 -1 -2 -5l-9 -11q-6 -8 -15 -2l-113 84zM76 -137v524q0 13 13 13h17q13 0 13 -13v-524q0 -86 -39 -129.5t-107 -43.5q-35 0 -65.5 13.5t-46.5 29.5q-4 4 -4 8q0 2 2 6l10 16 q7 10 17 0q43 -33 87 -33q103 0 103 133z"/>
<glyph glyph-name="Kcommaaccent" horiz-adv-x="590" unicode="Ķ" d="M279 -141q0 18 11.5 28.5t30.5 10.5q24 0 40 -23.5t16 -70.5q0 -52 -24.5 -89t-47.5 -50q-6 -3 -10 -3t-7 3l-8 10q-7 8 4 16q51 41 56 95v8q0 17 -5 30q-8 -5 -16 -5q-19 0 -29.5 11.5t-10.5 28.5zM106 13v672q0 15 15 15h18q15 0 15 -15v-309l340 317q8 7 20 7h28 q8 0 9.5 -6t-3.5 -11l-348 -323l359 -343q3 -3 3 -7q0 -10 -12 -10h-32q-12 0 -22 10l-342 332v-329q0 -13 -15 -13h-20q-13 0 -13 13z"/>
<glyph glyph-name="kcommaaccent" horiz-adv-x="428" unicode="ķ" d="M174 -141q0 18 11.5 28.5t30.5 10.5q24 0 40 -23.5t16 -70.5q0 -52 -24.5 -89t-47.5 -50q-6 -3 -10 -3t-7 3l-8 10q-7 8 4 16q51 41 56 95v8q0 17 -5 30q-8 -5 -16 -5q-19 0 -29.5 11.5t-10.5 28.5zM76 13v674q0 13 13 13h17q13 0 13 -13v-448l213 155q8 6 16 6h29 q5 0 7 -3.5t1 -8t-5 -6.5l-215 -158l241 -207q4 -3 4 -8q0 -9 -9 -9h-31q-10 0 -20 8l-231 199v-194q0 -13 -13 -13h-19q-11 0 -11 13z"/>
<glyph glyph-name="kgreenlandic" horiz-adv-x="432" unicode="ĸ" d="M76 13v374q0 13 13 13h17q13 0 13 -13v-170l223 177q8 6 16 6h29q5 0 7 -3t1 -7.5t-5 -7.5l-227 -180l243 -185q4 -3 4 -8q0 -9 -9 -9h-31q-10 0 -20 8l-231 177v-172q0 -13 -13 -13h-19q-11 0 -11 13z"/>
<glyph glyph-name="Lacute" horiz-adv-x="489" unicode="Ĺ" d="M55 782q-12 -5 -16 3l-5 10q-1 1 -1 4q0 6 7 10l164 90q4 2 8 2q6 0 9 -5l10 -20q5 -10 -4 -15zM106 13v674q0 13 13 13h22q5 0 8.5 -4t3.5 -9v-645h319q13 0 13 -13v-18q0 -11 -13 -11h-353q-13 0 -13 13z"/>
<glyph glyph-name="lacute" horiz-adv-x="196" unicode="ĺ" d="M19 775q-10 -4 -14 4l-6 13q-1 2 -1 5q0 5 7 9l165 87q4 2 8 2q6 0 9 -5l10 -20q1 -2 1 -5q0 -8 -10 -13zM76 13v674q0 13 13 13h18q13 0 13 -13v-674q0 -13 -13 -13h-20q-11 0 -11 13z"/>
<glyph glyph-name="Lcommaaccent" horiz-adv-x="490" unicode="Ļ" d="M254 -141q0 18 11.5 28.5t30.5 10.5q24 0 40 -23.5t16 -70.5q0 -52 -24.5 -89t-47.5 -50q-6 -3 -10 -3t-7 3l-8 10q-7 8 4 16q51 41 56 95v8q0 17 -5 30q-8 -5 -16 -5q-19 0 -29.5 11.5t-10.5 28.5zM106 13v674q0 13 13 13h22q5 0 8.5 -4t3.5 -9v-645h319q13 0 13 -13 v-18q0 -11 -13 -11h-353q-13 0 -13 13z"/>
<glyph glyph-name="lcommaaccent" horiz-adv-x="196" unicode="ļ" d="M55 -141q0 18 11.5 28.5t30.5 10.5q24 0 40 -23.5t16 -70.5q0 -52 -24.5 -89t-47.5 -50q-6 -3 -10 -3t-7 3l-8 10q-2 2 -2 6q0 5 6 10q51 41 56 95v8q0 17 -5 30q-8 -5 -16 -5q-19 0 -29.5 11.5t-10.5 28.5zM76 13v674q0 13 13 13h18q13 0 13 -13v-674q0 -13 -13 -13h-20 q-11 0 -11 13z"/>
<glyph glyph-name="Lcaron" horiz-adv-x="489" unicode="Ľ" d="M349 671q0 18 11.5 28.5t30.5 10.5q24 0 40 -23.5t16 -70.5q0 -52 -24.5 -89t-47.5 -50q-12 -7 -17 0l-8 10q-7 8 4 16q51 41 56 95v8q0 17 -5 30q-8 -5 -16 -5q-19 0 -29.5 11.5t-10.5 28.5zM106 13v674q0 13 13 13h22q5 0 8.5 -4t3.5 -9v-645h319q13 0 13 -13v-18 q0 -11 -13 -11h-353q-13 0 -13 13z"/>
<glyph glyph-name="lcaron" horiz-adv-x="226" unicode="ľ" d="M241 477l-8 10q-7 8 4 16q51 41 56 95v8q0 17 -5 30q-8 -5 -16 -5q-19 0 -29.5 11.5t-10.5 28.5q0 18 11.5 28.5t30.5 10.5q24 0 40 -23.5t16 -70.5q0 -52 -24.5 -89t-47.5 -50q-12 -7 -17 0zM76 13v674q0 13 13 13h18q13 0 13 -13v-674q0 -13 -13 -13h-20q-11 0 -11 13z "/>
<glyph glyph-name="Ldot" horiz-adv-x="549" unicode="Ŀ" d="M460 316q-16 0 -27 11t-11 27t11 27t27 11t27 -11t11 -27t-11 -27t-27 -11zM106 13v674q0 13 13 13h22q5 0 8.5 -4t3.5 -9v-645h319q13 0 13 -13v-18q0 -11 -13 -11h-353q-13 0 -13 13z"/>
<glyph glyph-name="ldot" horiz-adv-x="300" unicode="ŀ" d="M248 321q-16 0 -27 11.5t-11 26.5q0 16 11 27t27 11t27 -11t11 -27q0 -15 -11 -26.5t-27 -11.5zM76 13v674q0 13 13 13h18q13 0 13 -13v-674q0 -13 -13 -13h-20q-11 0 -11 13z"/>
<glyph glyph-name="Lslash" horiz-adv-x="497" unicode="Ł" d="M114 13v307l-33 -16q-11 -7 -16 4l-4 7q-1 2 -1 5q0 8 6 11l48 24v332q0 13 13 13h21q13 0 13 -13v-305l146 74q12 8 17 -5l3 -6q6 -9 -5 -16l-161 -83v-304h329q13 0 13 -20v-9q0 -13 -13 -13h-363q-13 0 -13 13z"/>
<glyph glyph-name="lslash" horiz-adv-x="234" unicode="ł" d="M94 13v322l-68 -34q-11 -6 -16 4l-3 6q-2 4 -2 6q0 7 6 11l83 42v317q0 13 13 13h17q13 0 13 -13v-293l115 59q10 7 16 -5l3 -6q2 -4 2 -6q0 -6 -7 -10l-129 -67v-346q0 -13 -14 -13h-16q-13 0 -13 13z"/>
<glyph glyph-name="Nacute" horiz-adv-x="771" unicode="Ń" d="M323 782q-12 -5 -16 3l-5 10q-3 9 6 14l164 90q4 2 8 2q6 0 9 -5l10 -20q5 -10 -4 -15zM106 13v684q0 13 15 13h17l480 -625h1v602q0 13 13 13h20q13 0 13 -13v-684q0 -13 -16 -13h-13q-7 0 -484 631h-1v-608q0 -13 -13 -13h-19q-13 0 -13 13z"/>
<glyph glyph-name="nacute" horiz-adv-x="495" unicode="ń" d="M173 558q-10 -4 -14 4l-6 13q-4 8 6 14l165 87q4 2 8 2q6 0 9 -5l10 -20q5 -11 -9 -18zM76 13v374q0 13 14 13h10q10 0 12 -10l4 -43q10 11 26 23t51 26t71 14q82 0 121.5 -48t39.5 -135v-214q0 -13 -13 -13h-18q-13 0 -13 13v214q0 69 -31 104.5t-88 35.5 q-37 0 -72.5 -17.5t-49.5 -30.5t-21 -21v-285q0 -13 -13 -13h-19q-11 0 -11 13z"/>
<glyph glyph-name="Ncommaaccent" horiz-adv-x="771" unicode="Ņ" d="M354 -141q0 18 11.5 28.5t30.5 10.5q24 0 40 -23.5t16 -70.5q0 -52 -24.5 -89t-47.5 -50q-6 -3 -10 -3t-7 3l-8 10q-7 8 4 16q51 41 56 95v8q0 17 -5 30q-8 -5 -16 -5q-19 0 -29.5 11.5t-10.5 28.5zM106 13v684q0 13 15 13h17l480 -625h1v602q0 13 13 13h20q13 0 13 -13 v-684q0 -13 -16 -13h-13q-7 0 -484 631h-1v-608q0 -13 -13 -13h-19q-13 0 -13 13z"/>
<glyph glyph-name="ncommaaccent" horiz-adv-x="496" unicode="ņ" d="M206 -141q0 18 11.5 28.5t30.5 10.5q24 0 40 -23.5t16 -70.5q0 -52 -24.5 -89t-47.5 -50q-6 -3 -10 -3t-7 3l-8 10q-7 8 4 16q51 41 56 95v8q0 17 -5 30q-8 -5 -16 -5q-19 0 -29.5 11.5t-10.5 28.5zM76 13v374q0 13 14 13h10q10 0 12 -10l4 -43q10 11 26 23t51 26t71 14 q82 0 121.5 -48t39.5 -135v-214q0 -13 -13 -13h-18q-13 0 -13 13v214q0 69 -31 104.5t-88 35.5q-37 0 -72.5 -17.5t-49.5 -30.5t-21 -21v-285q0 -13 -13 -13h-19q-11 0 -11 13z"/>
<glyph glyph-name="Ncaron" horiz-adv-x="771" unicode="Ň" d="M390 763q-5 0 -10 5l-121 98q-9 7 -4 14l9 11q3 5 8 5q2 0 7 -3l113 -84l112 84q4 3 7 3q5 0 8 -5l9 -11q5 -7 -4 -14l-121 -98q-5 -5 -10 -5h-3zM106 13v684q0 13 15 13h17l480 -625h1v602q0 13 13 13h20q13 0 13 -13v-684q0 -13 -16 -13h-13q-7 0 -484 631h-1v-608 q0 -13 -13 -13h-19q-13 0 -13 13z"/>
<glyph glyph-name="ncaron" horiz-adv-x="495" unicode="ň" d="M250 545q-5 0 -10 5l-121 98q-9 7 -4 14l9 11q3 5 8 5q2 0 7 -3l113 -84l112 84q5 3 7 3q5 0 8 -5l9 -11q5 -7 -4 -14l-121 -98q-5 -5 -10 -5h-3zM76 13v374q0 13 14 13h10q10 0 12 -10l4 -43q10 11 26 23t51 26t71 14q82 0 121.5 -48t39.5 -135v-214q0 -13 -13 -13h-18 q-13 0 -13 13v214q0 69 -31 104.5t-88 35.5q-37 0 -72.5 -17.5t-49.5 -30.5t-21 -21v-285q0 -13 -13 -13h-19q-11 0 -11 13z"/>
<glyph glyph-name="napostrophe" horiz-adv-x="495" unicode="ŉ" d="M-105 671q0 18 11.5 28.5t30.5 10.5q24 0 40 -23.5t16 -70.5q0 -52 -24.5 -89t-47.5 -50q-12 -7 -17 0l-8 10q-2 2 -2 6q0 5 6 10q51 41 56 95v8q0 17 -5 30q-8 -5 -16 -5q-19 0 -29.5 11.5t-10.5 28.5zM76 13v374q0 13 14 13h10q10 0 12 -10l4 -43q10 11 26 23t51 26 t71 14q82 0 121.5 -48t39.5 -135v-214q0 -13 -13 -13h-18q-13 0 -13 13v214q0 69 -31 104.5t-88 35.5q-37 0 -72.5 -17.5t-49.5 -30.5t-21 -21v-285q0 -13 -13 -13h-19q-11 0 -11 13z"/>
<glyph glyph-name="Eng" horiz-adv-x="771" unicode="Ŋ" d="M106 13v684q0 13 15 13h17l480 -628h1v605q0 13 13 13h20q13 0 13 -13v-824q0 -86 -39 -129.5t-107 -43.5q-35 0 -65.5 13.5t-46.5 29.5q-7 7 -2 14l10 16q7 10 17 0q43 -33 87 -33q101 0 101 133v143q-37 45 -468 615h-1v-608q0 -13 -13 -13h-19q-13 0 -13 13z"/>
<glyph glyph-name="eng" horiz-adv-x="496" unicode="ŋ" d="M76 13v374q0 13 14 13h10q10 0 12 -10l4 -43q10 11 26 23t51 26t71 14q82 0 121.5 -48t39.5 -135v-364q0 -86 -39 -129.5t-107 -43.5q-35 0 -65.5 13.5t-46.5 29.5q-7 7 -2 14l10 16q7 10 17 0q43 -33 87 -33q102 0 102 133v364q0 69 -31 104.5t-88 35.5 q-37 0 -72.5 -17.5t-49.5 -30.5t-21 -21v-285q0 -13 -13 -13h-19q-11 0 -11 13z"/>
<glyph glyph-name="Omacron" horiz-adv-x="833" unicode="Ō" d="M281 831q-13 0 -13 13v12q0 13 13 13h272q13 0 13 -13v-12q0 -13 -13 -13h-272zM100 349q0 -131 92.5 -223t223.5 -92t224 92t93 223t-93 224t-224 93t-223.5 -93t-92.5 -224zM56 349q0 150 105 255.5t255 105.5q151 0 256 -105.5t105 -255.5q0 -151 -105 -255t-256 -104 q-150 0 -255 104.5t-105 254.5z"/>
<glyph glyph-name="omacron" horiz-adv-x="494" unicode="ō" d="M111 595q-13 0 -13 12v13q0 13 13 13h272q13 0 13 -13v-13q0 -12 -13 -12h-272zM89 201q0 -71 45.5 -120.5t112.5 -49.5q66 0 111.5 49.5t45.5 120.5q0 69 -45.5 118t-111.5 49t-112 -49t-46 -118zM46 201q0 86 58.5 147.5t142.5 61.5t142.5 -61.5t58.5 -147.5 q0 -88 -58.5 -149.5t-142.5 -61.5t-142.5 61.5t-58.5 149.5z"/>
<glyph glyph-name="Obreve" horiz-adv-x="833" unicode="Ŏ" d="M417 775q-51 0 -87.5 32t-43.5 79q-2 14 10 14h13q8 0 12 -12q9 -34 34.5 -56t61.5 -22q34 0 60.5 22.5t34.5 55.5q3 12 12 12h14q12 0 10 -14q-8 -48 -44.5 -79.5t-86.5 -31.5zM100 349q0 -131 92.5 -223t223.5 -92t224 92t93 223t-93 224t-224 93t-223.5 -93 t-92.5 -224zM56 349q0 150 105 255.5t255 105.5q151 0 256 -105.5t105 -255.5q0 -151 -105 -255t-256 -104q-150 0 -255 104.5t-105 254.5z"/>
<glyph glyph-name="obreve" horiz-adv-x="494" unicode="ŏ" d="M247 538q-50 0 -86.5 31.5t-44.5 78.5q-2 14 10 14h13q8 0 12 -11q8 -35 34 -57t62 -22q34 0 60.5 22.5t34.5 56.5q3 11 12 11h14q12 0 10 -14q-8 -47 -44.5 -78.5t-86.5 -31.5zM89 201q0 -71 45.5 -120.5t112.5 -49.5q66 0 111.5 49.5t45.5 120.5q0 69 -45.5 118 t-111.5 49t-112 -49t-46 -118zM46 201q0 86 58.5 147.5t142.5 61.5t142.5 -61.5t58.5 -147.5q0 -88 -58.5 -149.5t-142.5 -61.5t-142.5 61.5t-58.5 149.5z"/>
<glyph glyph-name="Ohungarumlaut" horiz-adv-x="833" unicode="Ő" d="M335 766q-12 0 -7 12l79 159q5 11 14 11h22q8 0 11 -5t-1 -12l-93 -157q-4 -8 -13 -8h-12zM501 766q-12 0 -7 12l79 159q5 11 14 11h22q8 0 11 -5t-1 -12l-93 -157q-4 -8 -13 -8h-12zM100 349q0 -131 92.5 -223t223.5 -92t224 92t93 223t-93 224t-224 93t-223.5 -93 t-92.5 -224zM56 349q0 150 105 255.5t255 105.5q151 0 256 -105.5t105 -255.5q0 -151 -105 -255t-256 -104q-150 0 -255 104.5t-105 254.5z"/>
<glyph glyph-name="ohungarumlaut" horiz-adv-x="494" unicode="ő" d="M161 518q-12 0 -7 12l79 159q5 11 14 11h22q8 0 11 -5t-1 -12l-93 -157q-4 -8 -13 -8h-12zM327 518q-12 0 -7 12l79 159q5 11 14 11h22q8 0 11 -5t-1 -12l-93 -157q-4 -8 -13 -8h-12zM89 201q0 -71 45.5 -120.5t112.5 -49.5q66 0 111.5 49.5t45.5 120.5q0 69 -45.5 118 t-111.5 49t-112 -49t-46 -118zM46 201q0 86 58.5 147.5t142.5 61.5t142.5 -61.5t58.5 -147.5q0 -88 -58.5 -149.5t-142.5 -61.5t-142.5 61.5t-58.5 149.5z"/>
<glyph glyph-name="OE" horiz-adv-x="976" unicode="Œ" d="M99 349q0 -131 92.5 -223t223.5 -92q38 0 70 7v616q-37 8 -70 8q-131 0 -223.5 -92.5t-92.5 -223.5zM56 349q0 150 104.5 255.5t254.5 105.5q38 0 85 -10h399q12 0 12 -13v-17q0 -13 -12 -13h-366v-276h317q13 0 13 -13v-17q0 -13 -13 -13h-317v-296h366q12 0 12 -13v-16 q0 -13 -12 -13h-398q-47 -10 -86 -10q-151 0 -255 104t-104 255z"/>
<glyph glyph-name="oe" horiz-adv-x="788" unicode="œ" d="M89 201q0 -71 45.5 -120.5t111.5 -49.5q46 0 86.5 28t54.5 60v170q-19 30 -57.5 54.5t-83.5 24.5q-66 0 -111.5 -49t-45.5 -118zM428 221h274q0 62 -36.5 105t-101.5 43q-43 0 -81.5 -22t-54.5 -59v-67zM46 201q0 86 58 147.5t142 61.5q49 0 92 -21t71 -59q53 80 155 80 q78 0 130 -52.5t52 -133.5q0 -39 -15 -39h-303v-66q16 -35 55.5 -62t83.5 -27q63 0 118 37q12 8 18 0l10 -14q5 -7 -4 -16q-17 -17 -59.5 -32t-85.5 -15q-97 0 -159 83q-60 -83 -159 -83q-84 0 -142 61.5t-58 149.5z"/>
<glyph glyph-name="Racute" horiz-adv-x="650" unicode="Ŕ" d="M229 782q-12 -5 -16 3l-5 10q-3 9 6 14l164 90q4 2 8 2q6 0 9 -5l10 -20q5 -10 -4 -15zM154 312h211q73 0 125 50.5t52 123.5q0 71 -52.5 119.5t-125.5 48.5h-210v-342zM106 13v674q0 13 13 13h248q92 0 157.5 -61.5t65.5 -152.5q0 -74 -46 -131t-119 -78l146 -259 q4 -6 2 -12t-9 -6h-31q-9 0 -14 9l-145 262q-13 -1 -37 -1h-184v-257q0 -13 -16 -13h-18q-13 0 -13 13z"/>
<glyph glyph-name="racute" horiz-adv-x="324" unicode="ŕ" d="M100 558q-10 -4 -14 4l-6 13q-4 8 6 14l165 87q4 2 8 2q7 0 9 -5l10 -20q5 -11 -9 -18zM76 13v374q0 13 13 13h12q10 0 12 -11l4 -41q44 62 125 62q30 0 62 -12q12 -3 12 -13q0 -3 -1 -5l-8 -20q-4 -10 -16 -5q-30 12 -52 12q-35 0 -64.5 -17.5t-40 -30.5t-14.5 -21v-285 q0 -13 -13 -13h-20q-11 0 -11 13z"/>
<glyph glyph-name="Rcommaaccent" horiz-adv-x="650" unicode="Ŗ" d="M274 -141q0 18 11.5 28.5t30.5 10.5q24 0 40 -23.5t16 -70.5q0 -52 -24.5 -89t-47.5 -50q-6 -3 -10 -3t-7 3l-8 10q-7 8 4 16q51 41 56 95v8q0 17 -5 30q-8 -5 -16 -5q-19 0 -29.5 11.5t-10.5 28.5zM154 312h211q73 0 125 50.5t52 123.5q0 71 -52.5 119.5t-125.5 48.5 h-210v-342zM106 13v674q0 13 13 13h248q92 0 157.5 -61.5t65.5 -152.5q0 -74 -46 -131t-119 -78l146 -259q4 -6 2 -12t-9 -6h-31q-9 0 -14 9l-145 262q-13 -1 -37 -1h-184v-257q0 -13 -16 -13h-18q-13 0 -13 13z"/>
<glyph glyph-name="rcommaaccent" horiz-adv-x="325" unicode="ŗ" d="M51 -141q0 18 11.5 28.5t30.5 10.5q24 0 40 -23.5t16 -70.5q0 -52 -24.5 -89t-47.5 -50q-6 -3 -10 -3t-7 3l-8 10q-2 2 -2 6q0 5 6 10q51 41 56 95v8q0 17 -5 30q-8 -5 -16 -5q-19 0 -29.5 11.5t-10.5 28.5zM76 13v374q0 13 13 13h12q10 0 12 -11l4 -41q44 62 125 62 q30 0 62 -12q12 -3 12 -13q0 -3 -1 -5l-8 -20q-4 -10 -16 -5q-30 12 -52 12q-35 0 -64.5 -17.5t-40 -30.5t-14.5 -21v-285q0 -13 -13 -13h-20q-11 0 -11 13z"/>
<glyph glyph-name="Rcaron" horiz-adv-x="650" unicode="Ř" d="M296 763q-5 0 -10 5l-121 98q-9 7 -4 14l9 11q3 5 8 5q2 0 7 -3l113 -84l112 84q5 3 7 3q5 0 8 -5l9 -11q5 -7 -4 -14l-121 -98q-5 -5 -10 -5h-3zM154 312h211q73 0 125 50.5t52 123.5q0 71 -52.5 119.5t-125.5 48.5h-210v-342zM106 13v674q0 13 13 13h248 q92 0 157.5 -61.5t65.5 -152.5q0 -74 -46 -131t-119 -78l146 -259q4 -6 2 -12t-9 -6h-31q-9 0 -14 9l-145 262q-13 -1 -37 -1h-184v-257q0 -13 -16 -13h-18q-13 0 -13 13z"/>
<glyph glyph-name="rcaron" horiz-adv-x="324" unicode="ř" d="M177 545q-5 0 -10 5l-121 98q-6 6 -6 9q0 1 2 5l9 11q3 5 8 5q3 0 7 -3l113 -84l112 84q5 3 7 3q5 0 8 -5l9 -11q2 -4 2 -5q0 -3 -6 -9l-121 -98q-5 -5 -10 -5h-3zM76 13v374q0 13 13 13h12q10 0 12 -11l4 -41q44 62 125 62q30 0 62 -12q12 -3 12 -13q0 -3 -1 -5l-8 -20 q-4 -10 -16 -5q-30 12 -52 12q-35 0 -64.5 -17.5t-40 -30.5t-14.5 -21v-285q0 -13 -13 -13h-20q-11 0 -11 13z"/>
<glyph glyph-name="Sacute" horiz-adv-x="543" unicode="Ś" d="M207 774q-12 -5 -16 3l-5 10q-3 9 6 14l164 90q4 2 8 2q6 0 9 -5l10 -20q5 -10 -4 -15zM67 72q-7 5 -7 11q0 5 4 10l9 12q12 13 22 4q86 -77 185 -77q68 0 118 39.5t50 94.5q0 62 -47 99t-147 71q-100 35 -146.5 76t-46.5 121q0 30 12.5 59.5t36.5 56.5t67.5 44t99.5 17 q44 0 87 -13t64 -25l21 -13q12 -9 4 -21q-4 -6 -8 -13q-9 -13 -22 -5q-71 47 -147 47q-84 0 -126.5 -41t-42.5 -92q0 -59 41 -93t125 -62q115 -40 169.5 -85t54.5 -126q0 -74 -65 -126t-153 -52q-41 0 -80 10.5t-67 27t-42 26t-23 18.5z"/>
<glyph glyph-name="sacute" horiz-adv-x="370" unicode="ś" d="M122 559q-10 -4 -14 4l-6 13q-4 8 6 14l165 87q4 2 8 2q7 0 9 -5l10 -20q5 -11 -9 -18zM57 35q-9 6 -4 14l10 16q7 11 18 1q49 -39 107 -39q42 0 69 20.5t27 50.5q0 31 -26 49.5t-86 40.5q-60 21 -91.5 48t-31.5 70q0 39 34 71.5t97 32.5q64 0 113 -32q11 -7 4 -19 l-6 -11q-7 -12 -19 -5q-42 28 -92 28q-43 0 -64.5 -20t-21.5 -44q0 -28 23 -45t72 -35q37 -14 55.5 -22t42 -23.5t33.5 -35t10 -45.5q0 -45 -41.5 -78t-100.5 -33q-73 0 -131 45z"/>
<glyph glyph-name="Scircumflex" horiz-adv-x="543" unicode="Ŝ" d="M162 760q-9 -6 -15 2l-9 11q-5 7 4 14l121 98q5 5 10 5h3q5 0 10 -5l121 -98q9 -7 4 -14l-9 -11q-6 -8 -15 -2l-113 84zM67 72q-7 5 -7 11q0 5 4 10l9 12q12 13 22 4q86 -77 185 -77q68 0 118 39.5t50 94.5q0 62 -47 99t-147 71q-100 35 -146.5 76t-46.5 121 q0 30 12.5 59.5t36.5 56.5t67.5 44t99.5 17q44 0 87 -13t64 -25l21 -13q12 -9 4 -21q-4 -6 -8 -13q-9 -13 -22 -5q-71 47 -147 47q-84 0 -126.5 -41t-42.5 -92q0 -59 41 -93t125 -62q115 -40 169.5 -85t54.5 -126q0 -74 -65 -126t-153 -52q-41 0 -80 10.5t-67 27t-42 26 t-23 18.5z"/>
<glyph glyph-name="scircumflex" horiz-adv-x="370" unicode="ŝ" d="M70 551q-9 -6 -15 2l-9 11q-2 4 -2 5q0 3 6 9l121 98q5 5 10 5h3q5 0 10 -5l121 -98q9 -7 4 -14l-9 -11q-6 -8 -15 -2l-113 84zM57 35q-9 6 -4 14l10 16q7 11 18 1q49 -39 107 -39q42 0 69 20.5t27 50.5q0 31 -26 49.5t-86 40.5q-60 21 -91.5 48t-31.5 70q0 39 34 71.5 t97 32.5q64 0 113 -32q11 -7 4 -19l-6 -11q-7 -12 -19 -5q-42 28 -92 28q-43 0 -64.5 -20t-21.5 -44q0 -28 23 -45t72 -35q37 -14 55.5 -22t42 -23.5t33.5 -35t10 -45.5q0 -45 -41.5 -78t-100.5 -33q-73 0 -131 45z"/>
<glyph glyph-name="Scedilla" horiz-adv-x="545" unicode="Ş" d="M68 72q-7 5 -7 11q0 5 4 10l9 12q12 13 22 4q86 -77 185 -77q68 0 118 39.5t50 94.5q0 62 -47 99t-147 71q-100 35 -146.5 76t-46.5 121q0 30 12.5 59.5t36.5 56.5t67.5 44t99.5 17q44 0 87 -13t64 -25l21 -13q12 -9 4 -21l-8 -13q-9 -13 -22 -5q-70 47 -147 47 q-84 0 -126.5 -41t-42.5 -92q0 -59 41 -93t125 -62q115 -40 169.5 -85t54.5 -126q0 -74 -65 -126t-153 -52v-44q48 -6 77.5 -30.5t29.5 -66.5q0 -40 -28 -68.5t-70 -28.5q-27 0 -48.5 10.5t-29.5 23.5q-7 11 1 18l10 8q7 6 16 -3q18 -21 51 -21q26 0 42.5 17.5t16.5 42.5 q0 57 -92 68q-12 3 -12 13v63q-45 5 -87 24t-60.5 32.5t-28.5 23.5z"/>
<glyph glyph-name="scedilla" horiz-adv-x="371" unicode="ş" d="M58 35q-9 6 -4 14l10 16q7 11 18 1q49 -39 107 -39q42 0 69 20.5t27 50.5q0 31 -26 49.5t-86 40.5q-60 21 -91.5 48t-31.5 70q0 39 34 71.5t97 32.5q64 0 113 -32q11 -7 4 -19l-6 -11q-7 -12 -19 -5q-42 28 -92 28q-43 0 -64.5 -20t-21.5 -44q0 -28 23 -45t72 -35 q37 -14 55.5 -22t42 -23.5t33.5 -35t10 -45.5q0 -45 -41.5 -78t-100.5 -33h-1v-44q48 -6 77.5 -30.5t29.5 -66.5q0 -40 -28 -68.5t-70 -28.5q-27 0 -48.5 10.5t-29.5 23.5q-7 11 1 18l10 8q7 6 16 -3q18 -21 51 -21q26 0 42.5 17.5t16.5 42.5q0 57 -92 68q-12 3 -12 13v64 q-52 8 -94 42z"/>
<glyph glyph-name="Scaron" horiz-adv-x="543" unicode="Š" d="M274 755q-5 0 -10 5l-121 98q-9 7 -4 14l9 11q3 5 8 5q2 0 7 -3l113 -84l112 84q5 3 7 3q5 0 8 -5l9 -11q5 -7 -4 -14l-121 -98q-5 -5 -10 -5h-3zM67 72q-7 5 -7 11q0 5 4 10l9 12q12 13 22 4q86 -77 185 -77q68 0 118 39.5t50 94.5q0 62 -47 99t-147 71 q-100 35 -146.5 76t-46.5 121q0 30 12.5 59.5t36.5 56.5t67.5 44t99.5 17q44 0 87 -13t64 -25l21 -13q12 -9 4 -21q-4 -6 -8 -13q-9 -13 -22 -5q-71 47 -147 47q-84 0 -126.5 -41t-42.5 -92q0 -59 41 -93t125 -62q115 -40 169.5 -85t54.5 -126q0 -74 -65 -126t-153 -52 q-41 0 -80 10.5t-67 27t-42 26t-23 18.5z"/>
<glyph glyph-name="scaron" horiz-adv-x="370" unicode="š" d="M185 546q-5 0 -10 5l-121 98q-6 6 -6 9q0 1 2 5l9 11q3 5 8 5q3 0 7 -3l113 -84l112 84q5 3 7 3q5 0 8 -5l9 -11q5 -7 -4 -14l-121 -98q-5 -5 -10 -5h-3zM57 35q-9 6 -4 14l10 16q7 11 18 1q49 -39 107 -39q42 0 69 20.5t27 50.5q0 31 -26 49.5t-86 40.5q-60 21 -91.5 48 t-31.5 70q0 39 34 71.5t97 32.5q64 0 113 -32q11 -7 4 -19l-6 -11q-7 -12 -19 -5q-42 28 -92 28q-43 0 -64.5 -20t-21.5 -44q0 -28 23 -45t72 -35q37 -14 55.5 -22t42 -23.5t33.5 -35t10 -45.5q0 -45 -41.5 -78t-100.5 -33q-73 0 -131 45z"/>
<glyph glyph-name="Tcommaaccent" horiz-adv-x="470" unicode="Ţ" d="M195 -141q0 18 11.5 28.5t30.5 10.5q24 0 40 -23.5t16 -70.5q0 -52 -24.5 -89t-47.5 -50q-6 -3 -10 -3t-7 3l-8 10q-7 8 4 16q51 41 56 95v8q0 17 -5 30q-8 -5 -16 -5q-19 0 -29.5 11.5t-10.5 28.5zM211 13v644h-191q-13 0 -13 15v15q0 13 13 13h430q13 0 13 -13v-17 q0 -13 -13 -13h-192v-644q0 -13 -16 -13h-18q-13 0 -13 13z"/>
<glyph glyph-name="tcommaaccent" horiz-adv-x="330" unicode="ţ" d="M136 -141q0 18 11.5 28.5t30.5 10.5q24 0 40 -23.5t16 -70.5q0 -52 -24.5 -89t-47.5 -50q-6 -3 -10 -3t-7 3l-8 10q-7 8 4 16q51 41 56 95v8q0 17 -5 30q-8 -5 -16 -5q-19 0 -29.5 11.5t-10.5 28.5zM93 103v258h-47q-12 0 -12 13v16q0 10 12 10h47v109q0 13 13 13l17 1 q13 0 13 -13v-110h139q13 0 13 -13v-13q0 -13 -13 -13h-139v-255q0 -40 9.5 -56.5t42.5 -16.5q47 0 91 27q10 6 16 -4l7 -12q2 -3 2 -8q0 -6 -5 -9q-46 -37 -116 -37q-57 0 -73.5 28t-16.5 85z"/>
<glyph glyph-name="Tcaron" horiz-adv-x="472" unicode="Ť" d="M234 763q-5 0 -10 5l-121 98q-9 7 -4 14l9 11q3 5 8 5q2 0 7 -3l113 -84l112 84q4 3 7 3q5 0 8 -5l9 -11q5 -7 -4 -14l-121 -98q-5 -5 -10 -5h-3zM212 13v644h-191q-13 0 -13 15v15q0 13 13 13h430q13 0 13 -13v-17q0 -13 -13 -13h-192v-644q0 -13 -16 -13h-18 q-13 0 -13 13z"/>
<glyph glyph-name="tcaron" horiz-adv-x="329" unicode="ť" d="M361 477l-8 10q-7 8 4 16q51 41 56 95v8q0 17 -5 30q-8 -5 -16 -5q-19 0 -29.5 11.5t-10.5 28.5q0 18 11.5 28.5t30.5 10.5q24 0 40 -23.5t16 -70.5q0 -52 -24.5 -89t-47.5 -50q-12 -7 -17 0zM93 103v258h-47q-12 0 -12 13v16q0 10 12 10h47v109q0 13 13 13l17 1 q13 0 13 -13v-110h139q13 0 13 -13v-13q0 -13 -13 -13h-139v-255q0 -40 9.5 -56.5t42.5 -16.5q47 0 91 27q10 6 16 -4l7 -12q2 -3 2 -8q0 -6 -5 -9q-46 -37 -116 -37q-57 0 -73.5 28t-16.5 85z"/>
<glyph glyph-name="Tbar" horiz-adv-x="472" unicode="Ŧ" d="M212 13v290h-125q-13 0 -13 15v4q0 5 4 8.5t9 3.5h125v324h-191q-13 0 -13 20v9q0 13 13 13h430q13 0 13 -13v-16q0 -13 -13 -13h-192v-324h128q5 0 9 -3.5t4 -8.5v-6q0 -13 -13 -13h-128v-290q0 -13 -22 -13h-12q-13 0 -13 13z"/>
<glyph glyph-name="tbar" horiz-adv-x="329" unicode="ŧ" d="M93 103v83h-36q-13 0 -13 14v4q0 13 13 13h36v144h-47q-12 0 -12 13v16q0 10 12 10h47v109q0 13 13 13l17 1q13 0 13 -13v-110h139q13 0 13 -13v-13q0 -13 -13 -13h-139v-144h118q13 0 13 -13v-6q0 -12 -13 -12h-118v-80q0 -40 9.5 -56.5t42.5 -16.5q47 0 91 27 q10 6 16 -4l7 -12q2 -3 2 -8q0 -6 -5 -9q-46 -37 -116 -37q-57 0 -73.5 28t-16.5 85z"/>
<glyph glyph-name="Utilde" horiz-adv-x="720" unicode="Ũ" d="M237 799l-12 5q-10 3 -6 14q24 61 57 78q17 8 36 8q24 0 41 -14t24.5 -31.5t19.5 -31.5t28 -14q37 0 57 59q4 13 15 7l11 -4q8 -4 6 -13q-2 -8 -6 -17.5t-14 -27.5t-29 -29.5t-43 -11.5t-40.5 14.5t-24.5 31.5t-20.5 31.5t-27.5 14.5q-37 0 -57 -62q-3 -12 -15 -7z M98 255v432q0 13 13 13h21q13 0 13 -13v-427q0 -99 58 -161.5t156 -62.5q99 0 157.5 62.5t58.5 160.5v428q0 13 14 13h20q13 0 13 -13v-432q0 -116 -72.5 -190.5t-190.5 -74.5q-117 0 -189 74.5t-72 190.5z"/>
<glyph glyph-name="utilde" d="M117 579l-12 5q-10 3 -6 14q24 61 57 78q17 8 36 8q24 0 41 -14t24.5 -31.5t19.5 -31.5t28 -14q37 0 57 59q4 13 15 7l11 -4q8 -4 6 -13q-2 -8 -6 -17.5t-14 -27.5t-29 -29.5t-43 -11.5t-40.5 14.5t-24.5 31.5t-20.5 31.5t-27.5 14.5q-37 0 -57 -62q-3 -12 -15 -7z M71 172v215q0 13 13 13h18q13 0 13 -13v-215q0 -69 30.5 -104.5t88.5 -35.5q37 0 70 18t45 31t17 21v285q0 13 13 13h18q13 0 13 -13v-374q0 -13 -13 -13h-12q-10 0 -12 12l-4 39q-8 -11 -22.5 -23t-47 -25t-68.5 -13q-160 0 -160 182z" unicode="ũ"/>
<glyph glyph-name="Umacron" horiz-adv-x="720" unicode="Ū" d="M233 831q-13 0 -13 13v12q0 13 13 13h272q13 0 13 -13v-12q0 -13 -13 -13h-272zM98 255v432q0 13 13 13h21q13 0 13 -13v-427q0 -99 58 -161.5t156 -62.5q99 0 157.5 62.5t58.5 160.5v428q0 13 14 13h20q13 0 13 -13v-432q0 -116 -72.5 -190.5t-190.5 -74.5 q-117 0 -189 74.5t-72 190.5z"/>
<glyph glyph-name="umacron" d="M106 595q-13 0 -13 12v13q0 13 13 13h272q13 0 13 -13v-13q0 -12 -13 -12h-272zM71 172v215q0 13 13 13h18q13 0 13 -13v-215q0 -69 30.5 -104.5t88.5 -35.5q37 0 70 18t45 31t17 21v285q0 13 13 13h18q13 0 13 -13v-374q0 -13 -13 -13h-12q-10 0 -12 12l-4 39 q-8 -11 -22.5 -23t-47 -25t-68.5 -13q-160 0 -160 182z" unicode="ū"/>
<glyph glyph-name="Ubreve" horiz-adv-x="720" unicode="Ŭ" d="M369 775q-51 0 -87.5 32t-43.5 79q-2 14 10 14h13q8 0 12 -12q9 -34 34.5 -56t61.5 -22q34 0 60.5 22.5t34.5 55.5q3 12 12 12h14q12 0 10 -14q-8 -48 -44.5 -79.5t-86.5 -31.5zM98 255v432q0 13 13 13h21q13 0 13 -13v-427q0 -99 58 -161.5t156 -62.5q99 0 157.5 62.5 t58.5 160.5v428q0 13 14 13h20q13 0 13 -13v-432q0 -116 -72.5 -190.5t-190.5 -74.5q-117 0 -189 74.5t-72 190.5z"/>
<glyph glyph-name="ubreve" d="M246 538q-50 0 -86.5 31.5t-44.5 78.5q-2 14 10 14h13q8 0 12 -11q8 -35 34 -57t62 -22q34 0 60.5 22.5t34.5 56.5q3 11 12 11h14q12 0 10 -14q-8 -47 -44.5 -78.5t-86.5 -31.5zM71 172v215q0 13 13 13h18q13 0 13 -13v-215q0 -69 30.5 -104.5t88.5 -35.5q37 0 70 18 t45 31t17 21v285q0 13 13 13h18q13 0 13 -13v-374q0 -13 -13 -13h-12q-10 0 -12 12l-4 39q-8 -11 -22.5 -23t-47 -25t-68.5 -13q-160 0 -160 182z" unicode="ŭ"/>
<glyph glyph-name="Uring" horiz-adv-x="720" unicode="Ů" d="M369 786q30 0 52 22t22 52t-22 52t-52 22t-52 -22t-22 -52t22 -52t52 -22zM369 754q-45 0 -75.5 30.5t-30.5 75.5t30.5 76t75.5 31q44 0 75.5 -31t31.5 -76t-31 -75.5t-76 -30.5zM98 255v432q0 13 13 13h21q13 0 13 -13v-427q0 -99 58 -161.5t156 -62.5q99 0 157.5 62.5 t58.5 160.5v428q0 13 14 13h20q13 0 13 -13v-432q0 -116 -72.5 -190.5t-190.5 -74.5q-117 0 -189 74.5t-72 190.5z"/>
<glyph glyph-name="uring" d="M242 529q29 0 51 22t22 52t-22 52t-51 22q-30 0 -52.5 -22t-22.5 -52t22.5 -52t52.5 -22zM242 497q-45 0 -76 30.5t-31 75.5t31 76t76 31q44 0 75 -31t31 -76t-31 -75.5t-75 -30.5zM71 172v215q0 13 13 13h18q13 0 13 -13v-215q0 -69 30.5 -104.5t88.5 -35.5q37 0 70 18 t45 31t17 21v285q0 13 13 13h18q13 0 13 -13v-374q0 -13 -13 -13h-12q-10 0 -12 12l-4 39q-8 -11 -22.5 -23t-47 -25t-68.5 -13q-160 0 -160 182z" unicode="ů"/>
<glyph glyph-name="Uhungarumlaut" horiz-adv-x="720" unicode="Ű" d="M277 766q-12 0 -7 12l79 159q5 11 14 11h22q8 0 11 -5t-1 -12l-93 -157q-4 -8 -13 -8h-12zM443 766q-12 0 -7 12l79 159q5 11 14 11h22q8 0 11 -5t-1 -12l-93 -157q-4 -8 -13 -8h-12zM98 255v432q0 13 13 13h21q13 0 13 -13v-427q0 -99 58 -161.5t156 -62.5 q99 0 157.5 62.5t58.5 160.5v428q0 13 14 13h20q13 0 13 -13v-432q0 -116 -72.5 -190.5t-190.5 -74.5q-117 0 -189 74.5t-72 190.5z"/>
<glyph glyph-name="uhungarumlaut" d="M161 518q-12 0 -7 12l79 159q5 11 14 11h22q8 0 11 -5t-1 -12l-93 -157q-4 -8 -13 -8h-12zM327 518q-12 0 -7 12l79 159q5 11 14 11h22q12 0 12 -10q0 -1 -2 -7l-93 -157q-4 -8 -13 -8h-12zM71 172v215q0 13 13 13h18q13 0 13 -13v-215q0 -69 30.5 -104.5t88.5 -35.5 q37 0 70 18t45 31t17 21v285q0 13 13 13h18q13 0 13 -13v-374q0 -13 -13 -13h-12q-10 0 -12 12l-4 39q-8 -11 -22.5 -23t-47 -25t-68.5 -13q-160 0 -160 182z" unicode="ű"/>
<glyph glyph-name="Uogonek" horiz-adv-x="724" unicode="Ų" d="M100 255v432q0 13 13 13h21q13 0 13 -13v-427q0 -99 58 -161.5t156 -62.5q99 0 157.5 62.5t58.5 160.5v428q0 13 14 13h20q13 0 13 -13v-432q0 -112 -67.5 -185.5t-178.5 -78.5q-61 -45 -61 -110q0 -32 21.5 -49.5t52.5 -17.5q29 0 62 15q11 6 13 -8l1 -10q1 -10 -8 -16 q-29 -17 -73 -17q-46 0 -77 24.5t-31 73.5q0 67 63 115q-109 7 -175 80t-66 184z"/>
<glyph glyph-name="uogonek" horiz-adv-x="485" unicode="ų" d="M70 172v215q0 13 13 13h18q13 0 13 -13v-215q0 -69 30.5 -104.5t88.5 -35.5q37 0 70 18t45 31t17 21v285q0 13 13 13h18q13 0 13 -13v-374q0 -13 -13 -13h-5q-66 -47 -66 -113q0 -32 21.5 -49.5t52.5 -17.5q29 0 62 15q11 6 13 -8l1 -10q1 -10 -8 -16q-29 -17 -73 -17 q-46 0 -77 24.5t-31 73.5q0 28 11.5 53t28 41t28 24.5t18.5 11.5l-4 39q-8 -11 -22.5 -23t-47 -25t-68.5 -13q-160 0 -160 182z"/>
<glyph glyph-name="Wcircumflex" horiz-adv-x="896" unicode="Ŵ" d="M336 768q-9 -6 -15 2l-9 11q-5 7 4 14l121 98q5 5 10 5h3q5 0 10 -5l121 -98q9 -7 4 -14l-9 -11q-6 -8 -15 -2l-113 84zM237 -3l-198 690q0 1 -1 3v1q0 9 12 9h24q10 0 12 -11l168 -586h2l176 598q3 9 15 9h2q12 0 15 -9l177 -598h2l167 586q2 11 12 11h24q12 0 12 -9v-1 q-1 -2 -1 -3l-198 -690q-2 -7 -9 -7h-11q-7 0 -10 7l-180 609h-2l-180 -609q-3 -7 -10 -7h-11q-7 0 -9 7z"/>
<glyph glyph-name="wcircumflex" horiz-adv-x="606" unicode="ŵ" d="M191 550q-9 -6 -15 2l-9 11q-5 7 4 14l121 98q5 5 10 5h3q5 0 10 -5l121 -98q9 -7 4 -14l-9 -11q-6 -8 -15 -2l-113 84zM154 -1l-120 385q-2 6 -2 9q0 7 8 7h22q10 0 13 -9l94 -315h1l119 325q3 9 12 9h4q9 0 12 -9l119 -325h1l94 315q3 9 13 9h22q8 0 8 -7q0 -3 -2 -9 l-120 -385q-3 -9 -12 -9h-4q-9 0 -12 9l-121 337h-1l-120 -337q-3 -9 -12 -9h-4q-9 0 -12 9z"/>
<glyph glyph-name="Ycircumflex" horiz-adv-x="560" unicode="Ŷ" d="M166 768q-9 -6 -15 2l-9 11q-5 7 4 14l121 98q5 5 10 5h3q5 0 10 -5l121 -98q9 -7 4 -14l-9 -11q-6 -8 -15 -2l-113 84zM253 13v327l-255 345q-3 5 -3 7q0 8 11 8h30q8 0 13 -6l228 -311l232 311q5 6 13 6h30q11 0 11 -8q0 -2 -3 -7l-260 -344v-328q0 -13 -13 -13h-12 q-22 0 -22 13z"/>
<glyph glyph-name="ycircumflex" horiz-adv-x="443" unicode="ŷ" d="M117 550q-9 -6 -15 2l-9 11q-5 7 4 14l121 98q5 5 10 5h3q5 0 10 -5l121 -98q9 -7 4 -14l-9 -11q-6 -8 -15 -2l-113 84zM204 4l-189 380q-2 6 -2 8q0 8 8 8h22q9 0 13 -9l171 -338h2l156 338q5 9 13 9h22q8 0 8 -8q0 -2 -2 -8l-314 -676q-3 -8 -13 -8h-23q-13 0 -7 14z "/>
<glyph glyph-name="Ydieresis" horiz-adv-x="560" unicode="Ÿ" d="M173 801q-14 0 -24 9.5t-10 23.5q0 15 10 25t24 10q15 0 25 -10t10 -25q0 -14 -10 -23.5t-25 -9.5zM382 801q-14 0 -24 9.5t-10 23.5q0 15 10 25t24 10q15 0 25 -10t10 -25q0 -14 -10 -23.5t-25 -9.5zM253 13v327l-255 345q-3 5 -3 7q0 8 11 8h30q8 0 13 -6l228 -311 l232 311q5 6 13 6h30q11 0 11 -8q0 -2 -3 -7l-260 -344v-328q0 -13 -13 -13h-12q-22 0 -22 13z"/>
<glyph glyph-name="Zacute" horiz-adv-x="533" unicode="Ź" d="M215 782q-12 -5 -16 3l-5 10q-3 9 6 14l164 90q4 2 8 2q6 0 9 -5l10 -20q5 -10 -4 -15zM30 12v18l406 624v2h-362q-13 0 -13 15v16q0 13 13 13h412q13 0 13 -13v-16l-407 -626v-1h373q13 0 13 -13v-18q0 -13 -13 -13h-421q-14 0 -14 12z"/>
<glyph glyph-name="zacute" horiz-adv-x="371" unicode="ź" d="M118 558q-10 -4 -14 4l-6 13q-4 8 6 14l165 87q4 2 8 2q7 0 9 -5l10 -20q5 -11 -9 -18zM34 11v11l235 335v3h-204q-12 0 -12 13v14q0 13 12 13h259q13 0 13 -12q0 -5 -2 -7l-234 -338v-3h207q13 0 13 -13v-14q0 -13 -13 -13h-262q-12 0 -12 11z"/>
<glyph glyph-name="Zdotaccent" horiz-adv-x="533" unicode="Ż" d="M283 810q-16 0 -27 11t-11 27t11 27t27 11t27 -11t11 -27t-11 -27t-27 -11zM30 12v18l406 624v2h-362q-13 0 -13 15v16q0 13 13 13h412q13 0 13 -13v-16l-407 -626v-1h373q13 0 13 -13v-18q0 -13 -13 -13h-421q-14 0 -14 12z"/>
<glyph glyph-name="zdotaccent" horiz-adv-x="371" unicode="ż" d="M193 582q-16 0 -27 11.5t-11 26.5q0 16 11 27t27 11t27 -11t11 -27q0 -15 -11 -26.5t-27 -11.5zM34 11v11l235 335v3h-204q-12 0 -12 13v14q0 13 12 13h259q13 0 13 -12q0 -5 -2 -7l-234 -338v-3h207q13 0 13 -13v-14q0 -13 -13 -13h-262q-12 0 -12 11z"/>
<glyph glyph-name="Zcaron" horiz-adv-x="533" unicode="Ž" d="M282 763q-5 0 -10 5l-121 98q-9 7 -4 14l9 11q3 5 8 5q2 0 7 -3l113 -84l112 84q4 3 7 3q5 0 8 -5l9 -11q5 -7 -4 -14l-121 -98q-5 -5 -10 -5h-3zM30 12v18l406 624v2h-362q-13 0 -13 15v16q0 13 13 13h412q13 0 13 -13v-16l-407 -626v-1h373q13 0 13 -13v-18 q0 -13 -13 -13h-421q-14 0 -14 12z"/>
<glyph glyph-name="zcaron" horiz-adv-x="371" unicode="ž" d="M195 545q-5 0 -10 5l-121 98q-9 7 -4 14l9 11q3 5 8 5q3 0 7 -3l113 -84l112 84q5 3 7 3q5 0 8 -5l9 -11q5 -7 -4 -14l-121 -98q-5 -5 -10 -5h-3zM34 11v11l235 335v3h-204q-12 0 -12 13v14q0 13 12 13h259q13 0 13 -12q0 -5 -2 -7l-234 -338v-3h207q13 0 13 -13v-14 q0 -13 -13 -13h-262q-12 0 -12 11z"/>
<glyph glyph-name="florin" horiz-adv-x="336" unicode="ƒ" d="M118 -135v496h-87q-13 0 -13 13v13q0 13 13 13h87v137q0 85 41.5 129t109.5 44q36 0 68 -13.5t44 -29.5q4 -4 4 -10q0 -2 -2 -6l-10 -14q-7 -11 -17 -1q-36 34 -87 34q-49 0 -78 -33t-29 -100v-137h148q13 0 13 -12v-15q0 -12 -13 -12h-148v-496q0 -85 -41.5 -129 t-109.5 -44q-36 0 -68 13.5t-44 29.5q-4 4 -4 10q0 2 2 6l10 14q7 11 17 1q36 -34 87 -34q49 0 78 33t29 100z"/>
<glyph glyph-name="Aringacute" horiz-adv-x="653" unicode="Ǻ" d="M153 232h347l-171 403h-2zM331 721q30 0 52 22t22 52t-22 52t-52 22t-52 -22t-22 -52t22 -52t52 -22zM13 0q-8 0 -8 7q0 3 1 5l300 679q-36 8 -58.5 36.5t-22.5 67.5q0 45 30.5 76t75.5 31q44 0 75.5 -31t31.5 -76q0 -40 -25 -69t-64 -36l298 -678q1 -2 1 -5q0 -7 -10 -7 h-26q-10 0 -14 9l-81 184h-382l-80 -184q-5 -9 -14 -9h-28zM234 911l-5 10q-1 1 -1 4q0 6 7 10l164 90q4 2 8 2q7 0 9 -5l10 -20q2 -4 2 -6q0 -6 -6 -9l-172 -79q-4 -2 -9 -2t-7 5z"/>
<glyph glyph-name="aringacute" horiz-adv-x="427" unicode="ǻ" d="M133 642q-10 -4 -14 4l-6 13q-4 8 6 14l165 87q4 2 8 2q6 0 9 -5l10 -20q5 -11 -9 -18zM212 461q29 0 51 22t22 52t-22 52t-51 22q-30 0 -52.5 -22t-22.5 -52t22.5 -52t52.5 -22zM212 429q-45 0 -76 30.5t-31 75.5t31 76t76 31q44 0 75 -31t31 -76t-31 -75.5t-75 -30.5z M85 124q0 -43 26.5 -69t68.5 -26t79 20t54 42v110q-45 21 -101 21q-57 0 -92 -27t-35 -71zM44 123q0 59 45.5 97t122.5 38q52 0 101 -18q0 73 -16.5 102.5t-71.5 29.5q-19 0 -37 -2.5t-31.5 -6.5t-24 -7.5t-18.5 -7t-9 -3.5q-11 -4 -15 8l-5 12q-4 11 6 15q5 3 18 9 t47.5 13.5t71.5 7.5q36 0 60 -9t37.5 -22.5t20 -39t8 -46.5t1.5 -58v-222q0 -13 -13 -13h-12q-9 0 -12 11l-4 36q-62 -57 -139 -57q-57 0 -94 36.5t-37 96.5z"/>
<glyph glyph-name="AEacute" horiz-adv-x="915" unicode="Ǽ" d="M537 783q-12 -5 -16 3l-5 10q-3 9 6 14l164 90q4 2 8 2q6 0 9 -5l10 -20q5 -10 -4 -15zM179 232h243v382zM-4 0q-8 0 -8 7q0 2 4 10l425 666q10 17 25 17h393q13 0 13 -13v-16q0 -13 -13 -13h-369v-277h321q13 0 13 -13v-17q0 -13 -13 -13h-321v-296h369q13 0 13 -14v-15 q0 -13 -13 -13h-400q-13 0 -13 13v180h-266l-116 -184q-6 -9 -16 -9h-28z"/>
<glyph glyph-name="aeacute" horiz-adv-x="705" unicode="ǽ" d="M304 558q-10 -4 -14 4l-6 13q-4 8 6 14l165 87q4 2 8 2q7 0 9 -5l10 -20q5 -11 -9 -18zM85 124q0 -45 29 -70t72 -25q40 0 76 18t52 39v120q-52 15 -102 15q-56 0 -91.5 -26.5t-35.5 -70.5zM352 224h267q0 62 -36 104t-101 42q-87 0 -130 -70v-76zM45 125q0 59 44 95.5 t118 36.5q70 0 106 -13q0 73 -15.5 100t-69.5 27q-19 0 -38 -2.5t-33.5 -6.5t-25 -7.5t-19 -7t-9.5 -3.5q-12 -3 -15 8l-4 16q-2 9 9 13q57 29 137 29q92 0 115 -59q54 59 137 59q79 0 130 -51.5t51 -131.5q0 -39 -15 -39h-296v-84q21 -34 56 -54t77 -20q63 0 118 37 q12 8 18 0l10 -14q5 -7 -4 -16q-17 -17 -59.5 -32t-85.5 -15q-91 0 -146 68q-23 -27 -66 -47.5t-90 -20.5q-59 0 -97 37t-38 98z"/>
<glyph glyph-name="Oslashacute" horiz-adv-x="833" unicode="Ǿ" d="M348 782q-12 -5 -16 3l-5 10q-3 9 6 14l164 90q4 2 8 2q7 0 9 -5l10 -20q5 -10 -4 -15zM201 118q89 -84 216 -84q131 0 224 92t93 223q0 120 -80 210zM179 140l454 441q-91 85 -216 85q-131 0 -223.5 -93t-92.5 -224q0 -121 78 -209zM84 28q-9 9 0 18l63 62 q-90 103 -90 241q0 150 105 255.5t255 105.5q144 0 247 -98l66 64q8 9 17 0l4 -4q9 -9 0 -18l-65 -64q92 -105 92 -241q0 -150 -105.5 -254.5t-255.5 -104.5q-147 0 -248 96l-64 -62q-8 -9 -17 0z"/>
<glyph glyph-name="oslashacute" horiz-adv-x="493" unicode="ǿ" d="M138 78q45 -47 109 -47q66 0 111.5 49t45.5 120q0 54 -30 98zM118 102l236 220q-44 46 -107 46q-66 0 -111.5 -49t-45.5 -119q0 -55 28 -98zM69 36q-10 9 -1 18l18 18q-40 58 -40 128q0 86 58.5 148t142.5 62q80 0 138 -58l23 22q9 9 18 0l4 -4q11 -9 0 -18l-24 -24 q41 -57 41 -128q0 -88 -58 -149t-142 -61q-82 0 -140 58l-17 -17q-8 -9 -18 1zM169 558q-6 -2 -7 -2q-4 0 -7 6l-6 13q-1 2 -1 5q0 5 7 9l165 87q4 2 8 2q6 0 9 -5l10 -20q1 -2 1 -5q0 -8 -10 -13z"/>
<glyph glyph-name="Scommaaccent" horiz-adv-x="543" unicode="Ș" d="M239 -149q0 18 11.5 28.5t30.5 10.5q24 0 40 -23.5t16 -70.5q0 -52 -24.5 -89t-47.5 -50q-6 -3 -10 -3t-7 3l-8 10q-7 8 4 16q51 41 56 95v8q0 17 -5 30q-8 -5 -16 -5q-19 0 -29.5 11.5t-10.5 28.5zM67 72q-7 5 -7 11q0 5 4 10l9 12q12 13 22 4q86 -77 185 -77 q68 0 118 39.5t50 94.5q0 62 -47 99t-147 71q-100 35 -146.5 76t-46.5 121q0 30 12.5 59.5t36.5 56.5t67.5 44t99.5 17q44 0 87 -13t64 -25l21 -13q12 -9 4 -21q-4 -6 -8 -13q-9 -13 -22 -5q-71 47 -147 47q-84 0 -126.5 -41t-42.5 -92q0 -59 41 -93t125 -62 q115 -40 169.5 -85t54.5 -126q0 -74 -65 -126t-153 -52q-41 0 -80 10.5t-67 27t-42 26t-23 18.5z"/>
<glyph glyph-name="scommaaccent" horiz-adv-x="370" unicode="ș" d="M146 -140q0 18 11.5 28.5t30.5 10.5q24 0 40 -23.5t16 -70.5q0 -52 -24.5 -89t-47.5 -50q-6 -3 -10 -3t-7 3l-8 10q-7 8 4 16q51 41 56 95v8q0 17 -5 30q-8 -5 -16 -5q-19 0 -29.5 11.5t-10.5 28.5zM57 35q-9 6 -4 14l10 16q7 11 18 1q49 -39 107 -39q42 0 69 20.5 t27 50.5q0 31 -26 49.5t-86 40.5q-60 21 -91.5 48t-31.5 70q0 39 34 71.5t97 32.5q64 0 113 -32q11 -7 4 -19l-6 -11q-7 -12 -19 -5q-42 28 -92 28q-43 0 -64.5 -20t-21.5 -44q0 -28 23 -45t72 -35q37 -14 55.5 -22t42 -23.5t33.5 -35t10 -45.5q0 -45 -41.5 -78t-100.5 -33 q-73 0 -131 45z"/>
<glyph glyph-name="uni021A" horiz-adv-x="470" unicode="Ț" d="M195 -141q0 18 11.5 28.5t30.5 10.5q24 0 40 -23.5t16 -70.5q0 -52 -24.5 -89t-47.5 -50q-6 -3 -10 -3t-7 3l-8 10q-7 8 4 16q51 41 56 95v8q0 17 -5 30q-8 -5 -16 -5q-19 0 -29.5 11.5t-10.5 28.5zM211 13v644h-191q-13 0 -13 15v15q0 13 13 13h430q13 0 13 -13v-17 q0 -13 -13 -13h-192v-644q0 -13 -16 -13h-18q-13 0 -13 13z"/>
<glyph glyph-name="uni021B" horiz-adv-x="330" unicode="ț" d="M136 -141q0 18 11.5 28.5t30.5 10.5q24 0 40 -23.5t16 -70.5q0 -52 -24.5 -89t-47.5 -50q-6 -3 -10 -3t-7 3l-8 10q-7 8 4 16q51 41 56 95v8q0 17 -5 30q-8 -5 -16 -5q-19 0 -29.5 11.5t-10.5 28.5zM93 103v258h-47q-12 0 -12 13v16q0 10 12 10h47v109q0 13 13 13l17 1 q13 0 13 -13v-110h139q13 0 13 -13v-13q0 -13 -13 -13h-139v-255q0 -40 9.5 -56.5t42.5 -16.5q47 0 91 27q10 6 16 -4l7 -12q2 -3 2 -8q0 -6 -5 -9q-46 -37 -116 -37q-57 0 -73.5 28t-16.5 85z"/>
<glyph glyph-name="dotlessj" horiz-adv-x="195" unicode="ȷ" d="M76 -137v524q0 13 13 13h17q13 0 13 -13v-524q0 -86 -39 -129.5t-107 -43.5q-35 0 -65.5 13.5t-46.5 29.5q-4 4 -4 8q0 2 2 6l10 16q7 10 17 0q43 -33 87 -33q103 0 103 133z"/>
<glyph glyph-name="circumflex" horiz-adv-x="373" unicode="ˆ" d="M72 550q-4 -3 -7 -3q-5 0 -8 5l-9 11q-2 4 -2 5q0 3 6 9l121 98q5 5 10 5h3q5 0 10 -5l121 -98q6 -6 6 -9q0 -1 -2 -5l-9 -11q-3 -5 -8 -5q-2 0 -7 3l-113 84z"/>
<glyph glyph-name="caron" horiz-adv-x="373" unicode="ˇ" d="M184 545q-5 0 -10 5l-121 98q-6 6 -6 9q0 1 2 5l9 11q3 5 8 5q2 0 7 -3l113 -84l112 84q5 3 7 3q5 0 8 -5l9 -11q2 -4 2 -5q0 -3 -6 -9l-121 -98q-5 -5 -10 -5h-3z"/>
<glyph glyph-name="uni02C9" horiz-adv-x="414" unicode="ˉ" d="M71 595q-13 0 -13 12v13q0 13 13 13h272q13 0 13 -13v-13q0 -12 -13 -12h-272z"/>
<glyph glyph-name="breve" horiz-adv-x="346" unicode="˘" d="M173 538q-49 0 -90 33.5t-41 79.5q0 11 10 11h13q8 0 12 -11q8 -35 34 -57t62 -22q34 0 60.5 22.5t34.5 56.5q3 11 12 11h14q10 0 10 -12q0 -46 -41.5 -79t-89.5 -33z"/>
<glyph glyph-name="dotaccent" horiz-adv-x="219" unicode="˙" d="M108 582q-16 0 -27 11.5t-11 26.5q0 16 11 27t27 11t27 -11t11 -27q0 -15 -11 -26.5t-27 -11.5z"/>
<glyph glyph-name="ring" horiz-adv-x="290" unicode="˚" d="M145 529q29 0 51 22t22 52t-22 52t-51 22q-30 0 -52.5 -22t-22.5 -52t22.5 -52t52.5 -22zM145 497q-45 0 -76 30.5t-31 75.5t31 76t76 31q44 0 75 -31t31 -76t-31 -75.5t-75 -30.5z"/>
<glyph glyph-name="ogonek" horiz-adv-x="276" unicode="˛" d="M38 -118q0 23 8.5 45t20.5 36.5t25 26t21.5 16.5t11.5 6l30 -4q-3 -2 -8.5 -5.5t-19 -15t-23.5 -24.5t-18.5 -33.5t-8.5 -42.5q0 -32 21.5 -49.5t52.5 -17.5q29 0 62 15q11 6 13 -8l1 -10q1 -10 -8 -16q-29 -17 -73 -17q-46 0 -77 24.5t-31 73.5z"/>
<glyph glyph-name="tilde" horiz-adv-x="380" unicode="˜" d="M53 579l-12 5q-7 4 -7 10v2q1 1 1 2q24 61 57 78q17 8 36 8q24 0 41 -14t24.5 -31.5t19.5 -31.5t28 -14q37 0 57 59q4 13 15 7l11 -4q7 -5 7 -9l-1 -2v-2q-2 -8 -6 -17.5t-14 -27.5t-29 -29.5t-43 -11.5t-40.5 14.5t-24.5 31.5t-20.5 31.5t-27.5 14.5q-37 0 -57 -62 q-3 -12 -15 -7z"/>
<glyph glyph-name="hungarumlaut" horiz-adv-x="392" unicode="˝" d="M65 518q-8 0 -8 7q0 3 1 5l79 159q5 11 14 11h22q8 0 11 -5t-1 -12l-93 -157q-4 -8 -13 -8h-12zM231 518q-8 0 -8 7q0 3 1 5l79 159q5 11 14 11h22q12 0 12 -10q0 -1 -2 -7l-93 -157q-4 -8 -13 -8h-12z"/>
<glyph glyph-name="Wgrave" horiz-adv-x="896" unicode="Ẁ" d="M526 782l-172 79q-9 5 -4 15l10 20q2 5 9 5q4 0 8 -2l164 -90q9 -5 6 -14l-5 -10q-4 -8 -16 -3zM237 -3l-198 690q0 1 -1 3v1q0 9 12 9h24q10 0 12 -11l168 -586h2l176 598q3 9 15 9h2q12 0 15 -9l177 -598h2l167 586q2 11 12 11h24q12 0 12 -9v-1q-1 -2 -1 -3l-198 -690 q-2 -7 -9 -7h-11q-7 0 -10 7l-180 609h-2l-180 -609q-3 -7 -10 -7h-11q-7 0 -9 7z"/>
<glyph glyph-name="wgrave" horiz-adv-x="606" unicode="ẁ" d="M381 559l-172 79q-9 5 -4 15l10 20q3 5 9 5q4 0 8 -2l164 -90q9 -5 6 -14l-5 -10q-4 -8 -16 -3zM154 -1l-120 385q-2 6 -2 9q0 7 8 7h22q10 0 13 -9l94 -315h1l119 325q3 9 12 9h4q9 0 12 -9l119 -325h1l94 315q3 9 13 9h22q8 0 8 -7q0 -3 -2 -9l-120 -385q-3 -9 -12 -9 h-4q-9 0 -12 9l-121 337h-1l-120 -337q-3 -9 -12 -9h-4q-9 0 -12 9z"/>
<glyph glyph-name="Wacute" horiz-adv-x="896" unicode="Ẃ" d="M370 782q-12 -5 -16 3l-5 10q-3 9 6 14l164 90q4 2 8 2q7 0 9 -5l10 -20q5 -10 -4 -15zM237 -3l-198 690q0 1 -1 3v1q0 9 12 9h24q10 0 12 -11l168 -586h2l176 598q3 9 15 9h2q12 0 15 -9l177 -598h2l167 586q2 11 12 11h24q12 0 12 -9v-1q-1 -2 -1 -3l-198 -690 q-2 -7 -9 -7h-11q-7 0 -10 7l-180 609h-2l-180 -609q-3 -7 -10 -7h-11q-7 0 -9 7z"/>
<glyph glyph-name="wacute" horiz-adv-x="606" unicode="ẃ" d="M224 558q-10 -4 -14 4l-6 13q-4 8 6 14l165 87q4 2 8 2q7 0 9 -5l10 -20q5 -11 -9 -18zM154 -1l-120 385q-2 6 -2 9q0 7 8 7h22q10 0 13 -9l94 -315h1l119 325q3 9 12 9h4q9 0 12 -9l119 -325h1l94 315q3 9 13 9h22q8 0 8 -7q0 -3 -2 -9l-120 -385q-3 -9 -12 -9h-4 q-9 0 -12 9l-121 337h-1l-120 -337q-3 -9 -12 -9h-4q-9 0 -12 9z"/>
<glyph glyph-name="Wdieresis" horiz-adv-x="896" unicode="Ẅ" d="M343 801q-14 0 -24 9.5t-10 23.5q0 15 10 25t24 10q15 0 25 -10t10 -25q0 -14 -10 -23.5t-25 -9.5zM552 801q-14 0 -24 9.5t-10 23.5q0 15 10 25t24 10q15 0 25 -10t10 -25q0 -14 -10 -23.5t-25 -9.5zM237 -3l-198 690q0 1 -1 3v1q0 9 12 9h24q10 0 12 -11l168 -586h2 l176 598q3 9 15 9h2q12 0 15 -9l177 -598h2l167 586q2 11 12 11h24q12 0 12 -9v-1q-1 -2 -1 -3l-198 -690q-2 -7 -9 -7h-11q-7 0 -10 7l-180 609h-2l-180 -609q-3 -7 -10 -7h-11q-7 0 -9 7z"/>
<glyph glyph-name="wdieresis" horiz-adv-x="606" unicode="ẅ" d="M207 596q-14 0 -24 9.5t-10 23.5q0 15 10 25t24 10q15 0 24.5 -10t9.5 -25q0 -14 -9.5 -23.5t-24.5 -9.5zM398 596q-14 0 -23.5 9.5t-9.5 23.5q0 15 9.5 25t23.5 10q15 0 25 -10t10 -25q0 -14 -10 -23.5t-25 -9.5zM154 -1l-120 385q-2 6 -2 9q0 7 8 7h22q10 0 13 -9 l94 -315h1l119 325q3 9 12 9h4q9 0 12 -9l119 -325h1l94 315q3 9 13 9h22q8 0 8 -7q0 -3 -2 -9l-120 -385q-3 -9 -12 -9h-4q-9 0 -12 9l-121 337h-1l-120 -337q-3 -9 -12 -9h-4q-9 0 -12 9z"/>
<glyph glyph-name="Ygrave" horiz-adv-x="560" unicode="Ỳ" d="M355 782l-172 79q-9 5 -4 15l10 20q3 5 9 5q4 0 8 -2l164 -90q9 -5 6 -14l-5 -10q-4 -8 -16 -3zM253 13v327l-255 345q-3 5 -3 7q0 8 11 8h30q8 0 13 -6l228 -311l232 311q5 6 13 6h30q11 0 11 -8q0 -2 -3 -7l-260 -344v-328q0 -13 -13 -13h-12q-22 0 -22 13z"/>
<glyph glyph-name="ygrave" horiz-adv-x="443" unicode="ỳ" d="M306 559l-172 79q-9 5 -4 15l10 20q2 5 9 5q4 0 8 -2l164 -90q9 -5 6 -14l-5 -10q-4 -8 -16 -3zM204 4l-189 380q-2 6 -2 8q0 8 8 8h22q9 0 13 -9l171 -338h2l156 338q5 9 13 9h22q8 0 8 -8q0 -2 -2 -8l-314 -676q-3 -8 -13 -8h-23q-13 0 -7 14z"/>
<glyph glyph-name="endash" horiz-adv-x="644" unicode="–" d="M130 233q-13 0 -13 12v8q0 13 13 13h384q13 0 13 -13v-8q0 -12 -13 -12h-384z"/>
<glyph glyph-name="emdash" horiz-adv-x="862" unicode="—" d="M130 233q-13 0 -13 12v8q0 13 13 13h602q13 0 13 -13v-8q0 -12 -13 -12h-602z"/>
<glyph glyph-name="quoteleft" horiz-adv-x="189" unicode="‘" d="M99 472q-24 0 -40 23.5t-16 70.5q0 52 24.5 89t47.5 50q6 3 10 3t7 -3l8 -10q2 -2 2 -6q0 -5 -6 -10q-51 -41 -56 -95v-8q0 -17 5 -30q8 5 16 5q19 0 29.5 -11.5t10.5 -28.5q0 -18 -11.5 -28.5t-30.5 -10.5z"/>
<glyph glyph-name="quoteright" horiz-adv-x="189" unicode="’" d="M60 477l-8 10q-2 2 -2 6q0 5 6 10q51 41 56 95v8q0 17 -5 30q-8 -5 -16 -5q-19 0 -29.5 11.5t-10.5 28.5q0 18 11.5 28.5t30.5 10.5q24 0 40 -23.5t16 -70.5q0 -52 -24.5 -89t-47.5 -50q-6 -3 -10 -3t-7 3z"/>
<glyph glyph-name="quotesinglbase" horiz-adv-x="229" unicode="‚" d="M70 29q0 18 11.5 28.5t30.5 10.5q24 0 40 -23.5t16 -70.5q0 -52 -24.5 -89t-47.5 -50q-6 -3 -10 -3t-7 3l-8 10q-2 2 -2 6q0 5 6 10q51 41 56 95v8q0 17 -5 30q-8 -5 -16 -5q-19 0 -29.5 11.5t-10.5 28.5z"/>
<glyph glyph-name="quotedblleft" horiz-adv-x="369" unicode="“" d="M100 473q-24 0 -40 23.5t-16 70.5q0 52 24.5 89t47.5 50q6 3 10 3t7 -3l8 -10q7 -8 -4 -16q-51 -41 -56 -95v-8q0 -17 5 -30q8 5 16 5q19 0 29.5 -11.5t10.5 -28.5q0 -18 -11.5 -28.5t-30.5 -10.5zM279 473q-24 0 -40 23.5t-16 70.5q0 52 24.5 89t47.5 50q6 3 10 3t7 -3 l8 -10q2 -2 2 -6q0 -6 -6 -10q-51 -41 -56 -95v-8q0 -17 5 -30q8 5 16 5q19 0 29.5 -11.5t10.5 -28.5q0 -18 -11.5 -28.5t-30.5 -10.5z"/>
<glyph glyph-name="quotedblright" horiz-adv-x="368" unicode="”" d="M60 477l-8 10q-2 2 -2 6q0 5 6 10q51 41 56 95v8q0 17 -5 30q-8 -5 -16 -5q-19 0 -29.5 11.5t-10.5 28.5q0 18 11.5 28.5t30.5 10.5q24 0 40 -23.5t16 -70.5q0 -52 -24.5 -89t-47.5 -50q-6 -3 -10 -3t-7 3zM239 477l-8 10q-2 2 -2 6q0 5 6 10q51 41 56 95v8q0 17 -5 30 q-8 -5 -16 -5q-19 0 -29.5 11.5t-10.5 28.5q0 18 11.5 28.5t30.5 10.5q24 0 40 -23.5t16 -70.5q0 -52 -24.5 -89t-47.5 -50q-6 -3 -10 -3t-7 3z"/>
<glyph glyph-name="quotedblbase" horiz-adv-x="408" unicode="„" d="M70 29q0 18 11.5 28.5t30.5 10.5q24 0 40 -23.5t16 -70.5q0 -52 -24.5 -89t-47.5 -50q-6 -3 -10 -3t-7 3l-8 10q-2 2 -2 6q0 5 6 10q51 41 56 95v8q0 17 -5 30q-8 -5 -16 -5q-19 0 -29.5 11.5t-10.5 28.5zM249 29q0 18 11.5 28.5t30.5 10.5q24 0 40 -23.5t16 -70.5 q0 -52 -24.5 -89t-47.5 -50q-6 -3 -10 -3t-7 3l-8 10q-2 2 -2 6q0 5 6 10q51 41 56 95v8q0 17 -5 30q-8 -5 -16 -5q-19 0 -29.5 11.5t-10.5 28.5z"/>
<glyph glyph-name="bullet" horiz-adv-x="354" unicode="•" d="M175 154q-29 0 -50 21t-21 50q0 31 21 52.5t50 21.5q31 0 52.5 -21.5t21.5 -52.5q0 -29 -21.5 -50t-52.5 -21z"/>
<glyph glyph-name="guilsinglleft" horiz-adv-x="245" unicode="‹" d="M154 42l-108 157q-3 3 -3 8t3 9l108 154q7 9 14 9h2h16q8 0 8 -8q0 -4 -3 -10l-94 -153l94 -157q3 -6 3 -10q0 -8 -8 -8h-16h-2q-7 0 -14 9z"/>
<glyph glyph-name="guilsinglright" horiz-adv-x="245" unicode="›" d="M59 33q-8 0 -8 8q0 4 3 10l94 157l-94 153q-3 6 -3 10q0 8 8 8h16h2q7 0 14 -9l108 -154q3 -4 3 -9t-3 -8l-108 -157q-7 -9 -14 -9h-2h-16z"/>
<glyph glyph-name="fraction" horiz-adv-x="144" unicode="⁄" d="M-92 5q-3 -5 -13 -5h-15q-10 0 -10 8q0 2 2 6l384 681q3 5 13 5h15q10 0 10 -8q0 -2 -2 -6z"/>
<glyph glyph-name="zerosuperior" horiz-adv-x="345" unicode="⁰" d="M172 527q41 0 64 32.5t23 91.5t-23 93t-64 34q-40 0 -63 -34t-23 -93q0 -58 22.5 -91t63.5 -33zM172 494q-57 0 -89.5 42t-32.5 115q0 74 32 116.5t90 42.5t90.5 -42t32.5 -117q0 -73 -32.5 -115t-90.5 -42z"/>
<glyph glyph-name="foursuperior" horiz-adv-x="342" unicode="⁴" d="M106 607h119v130zM235 504q-10 0 -10 9v60h-167q-9 0 -9 9v9l189 209h14q10 0 10 -9v-185h39q9 0 9 -8v-16q0 -8 -9 -8h-39v-61q0 -9 -10 -9h-17z"/>
<glyph glyph-name="fivesuperior" horiz-adv-x="348" unicode="⁵" d="M154 494q-57 0 -98 38q-5 5 -5 8q0 1 4 7l9 11q6 7 13 0q33 -33 78 -33q35 0 58 21.5t23 49.5q0 27 -20 44.5t-53 17.5h-78q-15 0 -15 15v118q0 9 9 9h148q9 0 9 -9v-17q0 -8 -9 -8h-124v-75h59q54 0 82.5 -24t28.5 -69q0 -43 -34 -73.5t-85 -30.5z"/>
<glyph glyph-name="sixsuperior" horiz-adv-x="324" unicode="⁶" d="M165 525q30 0 50 20t20 53q0 30 -21 49t-51 19q-26 0 -47 -14t-29 -29q-1 -38 20.5 -68t57.5 -30zM164 494q-54 0 -83.5 38.5t-29.5 95.5q0 42 19 77.5t48 57.5t51.5 34t41.5 18q1 0 3 1q6 0 9 -7l5 -11q6 -13 -6 -17q-42 -12 -79.5 -41.5t-53.5 -73.5l5 4q5 4 11.5 8 t15.5 8.5t22.5 7t28.5 2.5q41 0 71 -26t30 -72q0 -43 -32 -73.5t-77 -30.5z"/>
<glyph glyph-name="sevensuperior" horiz-adv-x="324" unicode="⁷" d="M100 504q-14 0 -14 14l134 248h-161q-9 0 -9 9v16q0 9 9 9h197q9 0 9 -9v-16l-139 -262q-5 -9 -13 -9h-13z"/>
<glyph glyph-name="eightsuperior" horiz-adv-x="314" unicode="⁸" d="M160 525q33 0 53.5 16t20.5 41q0 23 -18 39t-56 18q-38 -2 -56 -18t-18 -39q0 -25 20.5 -41t53.5 -16zM160 669q66 5 66 55q0 25 -18.5 39.5t-47.5 14.5t-47.5 -14.5t-18.5 -39.5q0 -50 66 -55zM160 494q-50 0 -81 24.5t-31 61.5q0 23 12.5 41.5t23 24.5t18.5 9v2 q-19 8 -32 28t-13 43q0 38 29 60t74 22t74 -22t29 -60q0 -23 -13.5 -42.5t-32.5 -28.5v-2q6 -2 12.5 -6t17.5 -12.5t18 -23.5t7 -33q0 -37 -31 -61.5t-81 -24.5z"/>
<glyph glyph-name="ninesuperior" horiz-adv-x="325" unicode="⁹" d="M161 636q26 0 47 14t29 29q1 38 -20.5 68t-57.5 30q-30 0 -50 -20t-20 -53q0 -30 21 -49t51 -19zM113 487q-1 0 -3 -1q-6 0 -9 7l-5 11q-6 13 6 17q42 12 79.5 41.5t53.5 73.5l-5 -4q-5 -4 -11.5 -8t-15.5 -8.5t-22.5 -7t-28.5 -2.5q-41 0 -71 26t-30 72q0 43 32 73.5 t77 30.5q54 0 83.5 -38.5t29.5 -95.5q0 -42 -19 -77.5t-48 -57.5t-51.5 -34t-41.5 -18z"/>
<glyph glyph-name="zeroinferior" horiz-adv-x="345" unicode="₀" d="M86 7q0 -58 22.5 -91t63.5 -33t64 32.5t23 91.5t-23 93t-64 34q-40 0 -63 -34t-23 -93zM50 7q0 74 32 116.5t90 42.5t90.5 -42t32.5 -117q0 -73 -32.5 -115t-90.5 -42q-57 0 -89.5 42t-32.5 115z"/>
<glyph glyph-name="oneinferior" horiz-adv-x="199" unicode="₁" d="M58 83l-6 10q-1 2 -1 4q0 4 4 7l73 52h12q10 0 10 -8v-280q0 -8 -8 -8h-20q-8 0 -8 8v241l-47 -28q-6 -3 -9 2z"/>
<glyph glyph-name="twoinferior" horiz-adv-x="311" unicode="₂" d="M75 99l-13 12q-5 5 -1 10t11 12.5t31.5 20t51.5 12.5q50 0 78 -26t28 -64q0 -45 -46 -88l-106 -97h143q7 0 7 -8v-15q0 -8 -7 -8h-193q-9 0 -9 8v9l139 130q35 33 36 66q0 24 -19 42t-53 18q-35 0 -68 -33q-5 -6 -10 -1z"/>
<glyph glyph-name="threeinferior" horiz-adv-x="322" unicode="₃" d="M100 5v12q0 8 8 8h45q32 0 52.5 14t20.5 41q0 24 -19 39t-49 15q-41 0 -71 -30q-5 -6 -10 -1l-13 11q-6 6 -1 11q4 5 11.5 11.5t33 18t52.5 11.5q45 0 74 -22t29 -60q0 -23 -15.5 -43t-36.5 -29q2 -1 6.5 -2.5t15 -8t18.5 -14t14.5 -21.5t6.5 -30q0 -37 -32 -61.5 t-82 -24.5q-71 0 -105 41q-3 3 -3 6q0 2 3 5l11 11q6 7 13 0l4 -4q4 -4 6.5 -6t8 -5.5t11.5 -6t13.5 -5t17 -4t19.5 -1.5q34 0 55.5 16t21.5 41q0 24 -21 40.5t-60 16.5h-45q-8 0 -8 10z"/>
<glyph glyph-name="fourinferior" horiz-adv-x="342" unicode="₄" d="M106 -37h119v130zM49 -53l189 209h14q10 0 10 -9v-185h39q9 0 9 -8v-16q0 -8 -9 -8h-39v-61q0 -9 -10 -9h-17q-10 0 -10 9v60h-167q-9 0 -9 9v9z"/>
<glyph glyph-name="fiveinferior" horiz-adv-x="348" unicode="₅" d="M70 29v118q0 9 9 9h148q9 0 9 -9v-17q0 -8 -9 -8h-124v-75h59q54 0 82.5 -24t28.5 -69q0 -43 -34 -73.5t-85 -30.5q-57 0 -98 38q-5 5 -5 8q0 1 4 7l9 11q6 7 13 0q33 -33 78 -33q35 0 58 21.5t23 49.5q0 27 -20 44.5t-53 17.5h-78q-15 0 -15 15z"/>
<glyph glyph-name="sixinferior" horiz-adv-x="324" unicode="₆" d="M87 -21q-1 -38 20.5 -68t57.5 -30q30 0 50 20t20 53q0 30 -21 49t-51 19q-26 0 -47 -14t-29 -29zM51 -16q0 42 19 77.5t48 57.5t51.5 34t41.5 18q1 0 3 1q6 0 9 -7l5 -11q6 -13 -6 -17q-42 -12 -79.5 -41.5t-53.5 -73.5l5 4q5 4 11.5 8t15.5 8.5t22.5 7t28.5 2.5 q41 0 71 -26t30 -72q0 -43 -32 -73.5t-77 -30.5q-54 0 -83.5 38.5t-29.5 95.5z"/>
<glyph glyph-name="seveninferior" horiz-adv-x="324" unicode="₇" d="M59 122q-9 0 -9 9v16q0 9 9 9h197q9 0 9 -9v-16l-139 -262q-5 -9 -13 -9h-13q-14 0 -14 14l134 248h-161z"/>
<glyph glyph-name="eightinferior" horiz-adv-x="314" unicode="₈" d="M86 -62q0 -25 20.5 -41t53.5 -16t53.5 16t20.5 41q0 23 -18 39t-56 18q-38 -2 -56 -18t-18 -39zM94 80q0 -50 66 -55q66 5 66 55q0 25 -18.5 39.5t-47.5 14.5t-47.5 -14.5t-18.5 -39.5zM48 -64q0 23 12.5 41.5t23 24.5t18.5 9v2q-19 9 -32 28.5t-13 42.5q0 38 29 60 t74 22t74 -22t29 -60q0 -23 -13.5 -42.5t-32.5 -28.5v-2q6 -2 12.5 -6t17.5 -12.5t18 -23.5t7 -33q0 -37 -31 -61.5t-81 -24.5t-81 24.5t-31 61.5z"/>
<glyph glyph-name="nineinferior" horiz-adv-x="325" unicode="₉" d="M89 60q0 -30 21 -49t51 -19q26 0 47 14t29 29q1 38 -20.5 68t-57.5 30q-30 0 -50 -20t-20 -53zM51 60q0 43 32 73.5t77 30.5q54 0 83.5 -38.5t29.5 -95.5q0 -42 -19 -77.5t-48 -57.5t-51.5 -34t-41.5 -18q-1 0 -3 -1q-6 0 -9 7l-5 11q-6 13 6 17q42 12 79.5 41.5 t53.5 73.5l-5 -4q-5 -4 -11.5 -8t-15.5 -8.5t-22.5 -7t-28.5 -2.5q-41 0 -71 26t-30 72z"/>
<glyph glyph-name="Euro" horiz-adv-x="735" unicode="€" d="M32 259q-12 0 -12 13v5q0 13 12 13h47q-5 30 -5 59q0 19 1 28h-43q-12 0 -12 14v5q0 13 12 13h47q21 129 122 215t235 86q142 0 243 -93q4 -4 4 -10q0 -5 -3 -8l-15 -15q-10 -10 -20 0q-85 81 -209 81q-115 0 -200.5 -73t-105.5 -183h323q13 0 13 -15v-4q0 -13 -13 -13 h-328q-1 -9 -1 -28q0 -35 5 -59h285q12 0 12 -15v-4q0 -12 -12 -12h-277q29 -99 111 -161.5t188 -62.5q67 0 113.5 20.5t97.5 63.5q10 8 16 2l17 -17q4 -4 4 -9t-4 -8q-101 -97 -244 -97q-126 0 -223 75.5t-127 193.5h-54z"/>
<glyph glyph-name="uni2215" horiz-adv-x="144" unicode="∕" d="M-92 5q-3 -5 -13 -5h-15q-10 0 -10 8q0 2 2 6l384 681q3 5 13 5h15q10 0 10 -8q0 -2 -2 -6z"/>
</font>
</defs>
</svg>
